<?xml version="1.0" encoding="iso-8859-1"?>
<!-- Generator: Adobe Illustrator 18.0.0, SVG Export Plug-In . SVG Version: 6.00 Build 0)  -->
<!DOCTYPE svg PUBLIC "-//W3C//DTD SVG 1.1//EN" "http://www.w3.org/Graphics/SVG/1.1/DTD/svg11.dtd">
<svg version="1.1" id="Capa_1" xmlns="http://www.w3.org/2000/svg" xmlns:xlink="http://www.w3.org/1999/xlink" x="0px" y="0px"
	 viewBox="0 0 452.808 452.808" style="enable-background:new 0 0 452.808 452.808;" xml:space="preserve">
<g id="XMLID_811_">
	<circle id="XMLID_819_" cx="226.29" cy="46.507" r="46.507"/>
	<path id="XMLID_1165_" d="M332.808,278.784c-4.789,3.246-10.627,5.153-16.793,5.153c-7.025,0-13.494-2.428-18.612-6.487
		c-3.796,2.928-7.753,4.682-12.887,4.682c-8.188,0-12.243-4.185-19.251-9.59c-7.063,5.448-11.071,9.59-19.251,9.59
		c-8.259,0-12.591-4.453-19.251-9.59c-6.979,5.383-11.06,9.59-19.251,9.59c-8.189,0-12.247-4.188-19.251-9.59
		c-6.979,5.383-11.06,9.59-19.251,9.59c-5.822,0-9.686-2.213-13.372-5.056c-5.188,4.284-11.837,6.862-19.075,6.862
		c-5.401,0-10.932-1.471-15.859-4.551c-9.172,2.191-15.87,3.569-21.903,11.961c-4.811,6.682-6.436,15.41-3.88,23.685l36.699,118.789
		c4.398,14.235,19.498,22.164,33.676,17.779c14.209-4.39,22.169-19.467,17.78-33.676c-31.302-101.351-36.86-119.532-37.658-121.408
		l17.403,28.177l126.065,0.409l18.963-29.59c-1.221,2.573-7.217,22.345-38.114,122.412c-4.39,14.209,3.57,29.286,17.78,33.676
		c14.202,4.39,29.286-3.567,33.676-17.779l36.699-118.788c2.164-7.005,1.518-15.297-2.337-22.059
		C349.106,281.667,338.771,280.209,332.808,278.784z"/>
	<path id="XMLID_1168_" d="M136.564,169.576c-4.429,0-8.179,2.882-9.493,6.87l20.818,18.331c14.719,12.961,16.144,35.4,3.183,50.119
		c-0.602,0.684-1.231,1.329-1.872,1.955l19.812,15.28l19.251-14.847l19.251,14.847l19.251-14.847l19.251,14.847l19.251-14.847
		l19.251,14.847l18.625-14.364c-15.488-13.98-15.81-38.645,0.345-52.99l21.725-19.131c-1.527-3.569-5.069-6.071-9.197-6.071
		c-5.523,0-10,4.478-10,10v8.387l-21.499-16.581l-19.251,14.847l-19.251-14.847l-19.251,14.847l-19.251-14.847l-19.251,14.847
		l-19.251-14.847l-22.447,17.312v-9.118C146.564,174.053,142.087,169.576,136.564,169.576z"/>
	<path id="XMLID_1172_" d="M146.564,253.937v-4.754c-5.718,4.572-12.568,7.148-19.569,7.657c1.244,4.106,5.056,7.097,9.569,7.097
		C142.087,263.937,146.564,259.459,146.564,253.937z"/>
	<path id="XMLID_1174_" d="M316.015,263.937c4.488,0,8.285-2.956,9.551-7.028c-5.415-0.207-10.863-1.651-15.918-4.473
		c-1.275-0.712-2.481-1.498-3.633-2.337v3.837C306.015,259.459,310.492,263.937,316.015,263.937z"/>
	<path id="XMLID_1176_" d="M387.027,132.227l-90.923-19.813c-6.805-1.483-13.749-2.231-20.714-2.231h-97.642
		c-7.203,0-14.383,0.8-21.41,2.385l-90.55,20.428c-16.041,3.624-23.037,22.951-12.525,35.981
		c6.494,8.048,42.133,52.215,49.925,61.872c7.78,9.642,21.907,11.156,31.555,3.372c9.645-7.783,11.155-21.91,3.372-31.556
		L92.13,145.677l19.527,17.195c5.392-8.014,14.543-13.297,24.907-13.297c7.238,0,13.887,2.577,19.075,6.861
		c3.653-2.817,7.462-5.056,13.372-5.056c8.281,0.001,12.443,4.34,19.251,9.59c7.058-5.443,11.072-9.59,19.251-9.59
		c8.188,0.001,12.238,4.181,19.251,9.59c7.059-5.444,11.072-9.59,19.251-9.59c8.189,0,12.249,4.19,19.251,9.59
		c6.743-5.2,11.021-9.59,19.251-9.59c5.166,0,9.121,1.776,12.887,4.682c5.118-4.06,11.587-6.487,18.612-6.487
		c10.077,0,19.003,4.999,24.446,12.643l21.612-19.031L314.7,201.895c-7.782,9.645-6.273,23.772,3.372,31.555
		c9.644,7.783,23.773,6.273,31.555-3.371c6.126-7.591,44.438-55.071,49.925-61.871C410.039,155.214,403.093,135.849,387.027,132.227
		z"/>
</g>
<g>
</g>
<g>
</g>
<g>
</g>
<g>
</g>
<g>
</g>
<g>
</g>
<g>
</g>
<g>
</g>
<g>
</g>
<g>
</g>
<g>
</g>
<g>
</g>
<g>
</g>
<g>
</g>
<g>
</g>
</svg>
