<?xml version="1.0" encoding="iso-8859-1"?>
<!-- Generator: Adobe Illustrator 18.0.0, SVG Export Plug-In . SVG Version: 6.00 Build 0)  -->
<!DOCTYPE svg PUBLIC "-//W3C//DTD SVG 1.1//EN" "http://www.w3.org/Graphics/SVG/1.1/DTD/svg11.dtd">
<svg version="1.1" id="Capa_1" xmlns="http://www.w3.org/2000/svg" xmlns:xlink="http://www.w3.org/1999/xlink" x="0px" y="0px"
	 viewBox="0 0 461.762 461.762" style="enable-background:new 0 0 461.762 461.762;" xml:space="preserve">
<g id="XMLID_226_">
	<path id="XMLID_232_" d="M265.857,227.187l-5.108,3.607c-8.524,6.019-19.507,7.827-29.853,4.322
		c-9.879,3.346-20.93,1.979-29.853-4.322l-5.108-3.607c-2.594,4.53-5.828,8.17-9.98,11.278c0,0,0.008,139.81,0.008,156.522
		c0,11.254,9.123,20.377,20.377,20.377c11.254,0,20.377-9.123,20.377-20.377c0-15.134,0-123.468,0-146.448
		c0-2.321,1.881-4.202,4.202-4.202c2.53,0,4.581,2.051,4.581,4.581v146.069c0,11.254,9.123,20.377,20.377,20.377
		c11.254,0,20.377-9.123,20.377-20.377V238.785C275.201,237.93,270.049,234.5,265.857,227.187z"/>
	<circle id="XMLID_1268_" cx="231.113" cy="35.193" r="35.193"/>
	<path id="XMLID_1271_" d="M217.333,180.765l-16.804-11.866c0.349,43.448,0.353,40.013,0.26,41.759
		c10.158,7.173,9.878,7.017,10.879,7.603C205.435,205.62,208.003,190.616,217.333,180.765z"/>
	<path id="XMLID_1272_" d="M231.757,189.735c-7.661,5.41-9.487,16.006-4.077,23.666c3.309,4.686,8.557,7.188,13.886,7.188
		c3.386,0,6.804-1.009,9.78-3.111l9.658-6.82c-0.039-0.731-0.064-1.445-0.058-2.141l0.318-39.618L231.757,189.735z"/>
	<path id="XMLID_1273_" d="M275.9,122.348c0-1.839,1.487-3.332,3.326-3.34c1.839-0.008,3.338,1.473,3.353,3.312c0,0,0,0,0,0
		c8.735-7.414,19.649-12.421,31.663-13.869c-5.526-15.612-20.445-26.847-37.891-26.847c-9.621,0-80.535,0-90.91,0
		c-17.455,0-32.38,11.248-37.899,26.847c11.339,1.369,22.403,6.021,31.671,13.896c0.015-1.858,1.529-3.353,3.386-3.344
		c1.857,0.008,3.357,1.516,3.357,3.372v6.665c4.285,4.981,7.768,10.666,10.253,16.851l34.688,24.495l34.673-24.484
		c2.498-6.231,6.008-11.951,10.331-16.958V122.348z"/>
	<path id="XMLID_1275_" d="M139.885,266.492l-15.15,10.698c-8.525,6.021-19.508,7.828-29.854,4.323
		c-9.856,3.339-20.912,1.992-29.853-4.323L49.94,266.537l0.008,174.847c0,11.254,9.123,20.377,20.377,20.377
		s20.377-9.123,20.377-20.377V295.126c0-2.425,1.966-4.392,4.392-4.392s4.392,1.966,4.392,4.392v146.258
		c0,11.254,9.123,20.377,20.377,20.377s20.377-9.123,20.377-20.377C140.239,260.237,139.885,266.492,139.885,266.492z"/>
	<path id="XMLID_1276_" d="M95.097,116.784c19.384,0,35.193-15.737,35.193-35.193c0-19.437-15.757-35.193-35.193-35.193
		c-19.437,0-35.193,15.757-35.193,35.193C59.904,101.036,75.7,116.784,95.097,116.784z"/>
	<path id="XMLID_1277_" d="M180.52,167.934c0-0.018-0.003-0.036-0.003-0.055c-0.1-13.061-6.486-24.67-16.267-31.947
		c-0.008-0.006-0.017-0.012-0.025-0.018c-6.931-5.148-15.276-7.913-23.89-7.913c-9.826,0-80.48,0-90.91,0
		c-22.047,0-40.074,17.937-40.185,39.933l-0.327,40.743c-0.046,5.818,2.998,11.164,7.391,14.151
		c62.239,43.951,58.347,41.243,59.347,41.83c-3.084-6.255-4.123-13.298-2.916-20.304c1.128-6.549,4.113-12.475,8.581-17.192
		l-38.371-27.096c0.169-21.044,0.127-15.859,0.256-31.86c0-0.004,0-0.007,0-0.011l0-0.04c0.009-1.858,1.52-3.357,3.378-3.352
		c1.857,0.005,3.36,1.512,3.36,3.369v16.876l44.941,31.735l45.004-31.78v-16.78c0-1.84,1.489-3.332,3.328-3.337
		s3.337,1.479,3.347,3.32c0-0.001,0,0,0,0l0.256,31.86l-51.074,36.066c-7.661,5.41-9.487,16.006-4.077,23.666
		c5.41,7.661,16.006,9.486,23.666,4.077l58.125-41.045c4.588-3.136,7.436-8.543,7.393-14.152
		C180.706,191.032,180.63,181.582,180.52,167.934z"/>
	<path id="XMLID_1278_" d="M411.916,266.47c-0.051,0.036-15.131,10.685-15.181,10.72c-8.525,6.021-19.509,7.828-29.854,4.323
		c-9.856,3.339-20.912,1.992-29.853-4.323l-15.088-10.654l0.008,174.847c0,11.254,9.123,20.377,20.377,20.377
		c0.006,0,0.012-0.001,0.018-0.001c0.005,0,0.009,0.001,0.013,0.001c11.254,0,20.377-9.123,20.377-20.377V295.111
		c0-2.417,1.959-4.376,4.376-4.376c2.417,0,4.376,1.959,4.376,4.376v146.274c0,11.254,9.123,20.377,20.377,20.377
		c0.006,0,0.012-0.001,0.018-0.001c0.005,0,0.009,0.001,0.013,0.001c11.254,0,20.377-9.123,20.377-20.377
		C412.271,260.342,411.916,266.47,411.916,266.47z"/>
	<path id="XMLID_1282_" d="M367.097,116.784c19.386,0,35.193-15.738,35.193-35.193c0-19.437-15.757-35.193-35.193-35.193
		c-19.437,0-35.193,15.757-35.193,35.193C331.904,101.036,347.7,116.784,367.097,116.784z"/>
	<path id="XMLID_1284_" d="M452.552,167.935c0-0.019-0.003-0.037-0.003-0.055c-0.168-21.998-18.17-39.877-40.181-39.877h-0.022
		c-0.003,0-0.007,0-0.01,0c-9.618,0-80.535,0-90.91,0c-22.047,0-40.073,17.937-40.185,39.933l-0.327,40.744
		c-0.042,5.265,2.455,10.663,7.346,14.119c0.015,0.01,0.03,0.021,0.045,0.032c62.235,43.948,58.347,41.243,59.347,41.83
		c-3.084-6.255-4.123-13.299-2.916-20.304c1.128-6.549,4.113-12.475,8.581-17.192l-38.371-27.096l0.287-31.86
		c0-0.003,0-0.005,0-0.008l0-0.043c0.01-1.85,1.514-3.342,3.362-3.337c1.849,0.005,3.344,1.505,3.344,3.354v16.876l44.941,31.735
		l45.004-31.78l0.031-0.022v-16.758c0-1.831,1.482-3.317,3.313-3.322c1.831-0.005,3.321,1.473,3.331,3.305c0-0.001,0,0,0,0
		c0.148,18.488,0.029,3.56,0.256,31.86l-51.074,36.066c-7.661,5.41-9.487,16.006-4.077,23.666c5.41,7.662,16.007,9.486,23.666,4.077
		c0.014-0.01,58.16-41.07,58.174-41.08c4.827-3.407,7.385-8.661,7.343-14.117L452.552,167.935z"/>
</g>
<g>
</g>
<g>
</g>
<g>
</g>
<g>
</g>
<g>
</g>
<g>
</g>
<g>
</g>
<g>
</g>
<g>
</g>
<g>
</g>
<g>
</g>
<g>
</g>
<g>
</g>
<g>
</g>
<g>
</g>
</svg>
