<?xml version="1.0" encoding="iso-8859-1"?>
<!-- Generator: Adobe Illustrator 18.0.0, SVG Export Plug-In . SVG Version: 6.00 Build 0)  -->
<!DOCTYPE svg PUBLIC "-//W3C//DTD SVG 1.1//EN" "http://www.w3.org/Graphics/SVG/1.1/DTD/svg11.dtd">
<svg version="1.1" id="Capa_1" xmlns="http://www.w3.org/2000/svg" xmlns:xlink="http://www.w3.org/1999/xlink" x="0px" y="0px"
	 viewBox="0 0 460.067 460.067" style="enable-background:new 0 0 460.067 460.067;" xml:space="preserve">
<g id="XMLID_908_">
	<path id="XMLID_910_" d="M202.169,187.399c0.052,10.361,5.841,16.819,13.413,18.91c7.962,2.199,16.302-1.22,20.498-8.155
		l15.302-25.299c-3.968,3.165-8.697,5.503-13.984,6.683L202.169,187.399z"/>
	<path id="XMLID_998_" d="M272.279,103.004c-8.636-5.224-19.866-2.458-25.09,6.177l-3.156,5.218
		c9.57,4.312,17.061,12.921,19.523,23.954c1.063,4.766,1.079,9.52,0.21,14.027l14.69-24.286
		C283.679,119.46,280.913,108.227,272.279,103.004z"/>
	<circle id="XMLID_1003_" cx="146.301" cy="37.866" r="37.866"/>
	<path id="XMLID_1006_" d="M194.239,189.168c-15.202,3.392-36.875,8.228-51.449,11.48c-11.551,2.577-23.02-3.316-27.94-13.54
		l-17.387-36.111l0.009,287.145c0,12.109,9.816,21.925,21.925,21.925c12.109,0,21.925-9.816,21.925-21.925V262.895c0,0,0,0,0,0
		h9.466c0,0,0,0,0,0v175.247c0,12.109,9.816,21.925,21.925,21.925s21.925-9.816,21.925-21.925L194.239,189.168z"/>
	<path id="XMLID_1008_" d="M141.767,183.799c2.876-0.001-3.523,1.234,92.097-20.101c9.849-2.197,16.051-11.962,13.854-21.811
		c-2.197-9.848-11.967-16.054-21.811-13.853L148.9,145.216l-31.28-39.017c0,0,24.61,16.878,31.526,22.334
		c6.72-1.499,64.895-14.48,73.226-16.339c3.853-0.86,7.698-1.029,11.412-0.607c-7.144-14.091-21.781-23.785-38.593-23.785
		c-66.929-0.031-92.554-0.048-101.612,0.579c-5.529,0.292-10.774,3.079-14.065,7.831c-4.601,6.645-4.289,15.523,0.767,21.829
		c4.401,5.49,41.062,51.217,47.232,58.914C131.023,181.335,136.294,183.799,141.767,183.799z"/>
	<path id="XMLID_1010_" d="M291.972,39.746c-5.311-1.525-10.848,1.542-12.372,6.85c-1.524,5.308,1.542,10.848,6.851,12.372
		c12.956,3.722,23.688,12.267,30.218,24.06c6.529,11.793,8.075,25.423,4.354,38.379c-1.524,5.308,1.542,10.848,6.851,12.373
		c0.922,0.265,1.852,0.391,2.766,0.391c4.346,0,8.347-2.856,9.606-7.241c5.197-18.091,3.038-37.123-6.079-53.589
		C325.048,56.874,310.064,44.943,291.972,39.746z"/>
	<path id="XMLID_1011_" d="M374.952,51.28c-9.117-16.467-24.102-28.398-42.192-33.595c-5.305-1.526-10.848,1.542-12.372,6.85
		c-1.525,5.308,1.542,10.848,6.85,12.373c26.745,7.684,42.254,35.694,34.57,62.439c-1.525,5.308,1.542,10.848,6.85,12.372
		c0.922,0.265,1.852,0.391,2.766,0.391c4.346,0,8.347-2.856,9.606-7.241C386.229,86.779,384.069,67.747,374.952,51.28z"/>
</g>
<g>
</g>
<g>
</g>
<g>
</g>
<g>
</g>
<g>
</g>
<g>
</g>
<g>
</g>
<g>
</g>
<g>
</g>
<g>
</g>
<g>
</g>
<g>
</g>
<g>
</g>
<g>
</g>
<g>
</g>
</svg>
