<?xml version="1.0" encoding="iso-8859-1"?>
<!-- Generator: Adobe Illustrator 18.0.0, SVG Export Plug-In . SVG Version: 6.00 Build 0)  -->
<!DOCTYPE svg PUBLIC "-//W3C//DTD SVG 1.1//EN" "http://www.w3.org/Graphics/SVG/1.1/DTD/svg11.dtd">
<svg version="1.1" id="Capa_1" xmlns="http://www.w3.org/2000/svg" xmlns:xlink="http://www.w3.org/1999/xlink" x="0px" y="0px"
	 viewBox="0 0 458.962 458.962" style="enable-background:new 0 0 458.962 458.962;" xml:space="preserve">
<g id="XMLID_489_">
	<path id="XMLID_490_" d="M177.053,258.363v-29.939l-16.038,1.325c-17.324,1.43-31.413-9.344-35.526-18.119l-33.965-72.461
		l50.979,64.486c0.003,0.004,0.007,0.008,0.01,0.012c4.044,5.107,10.448,7.892,16.95,7.357c0.002,0,0.004,0,0.006,0
		c7.391-0.611,70.325-5.811,77.933-6.44c10.745-0.887,18.787-10.317,17.895-21.118c-0.91-10.983-10.643-18.761-21.118-17.895h0
		l-67.475,5.575l-46.166-58.397l51.765,39.08l4.326-0.357c2.664-12.644,8.553-25.086,17.679-35.72
		c-0.518-5.135-0.494-9.356-0.2-13.667c-29.672-5.991-42.063-8.261-44.459-8.261h-48.868c-15.134,0-27.403,12.269-27.403,27.403
		v140.338l-2.929,69.972l-39.135,94.985c-4.941,11.994,0.775,25.722,12.77,30.663c11.994,4.943,25.723-0.777,30.664-12.769
		l40.712-98.813c1.043-2.533,1.636-5.228,1.75-7.965c3.361-80.31,3.148-74.876,3.148-75.814h7.928l24.387,66.492l-21.661,102.287
		c-2.688,12.69,5.421,25.157,18.111,27.844c12.689,2.687,25.157-5.423,27.844-18.112l23.061-108.897
		c0.915-4.319,0.594-8.809-0.927-12.954L177.053,258.363z"/>
	<circle id="XMLID_1109_" cx="125.429" cy="40.565" r="40.565"/>
	<path id="XMLID_1117_" d="M274.365,47.142c-30.392,0-55.539,22.424-59.817,51.629c11.976-7.08,25.926-11.162,40.817-11.162
		c32.412,0,60.39,19.273,73.127,46.952c4.05-8.117,6.34-17.265,6.34-26.952C334.832,74.214,307.76,47.142,274.365,47.142z"/>
	<path id="XMLID_1125_" d="M337.593,23.185c-5.306-1.526-10.848,1.542-12.372,6.85c-1.524,5.308,1.542,10.848,6.851,12.373
		c26.745,7.684,42.254,35.694,34.57,62.439c-1.524,5.308,1.542,10.848,6.851,12.373c5.289,1.521,10.843-1.527,12.372-6.85
		c5.197-18.091,3.038-37.123-6.079-53.589C370.668,40.313,355.684,28.383,337.593,23.185z"/>
	<path id="XMLID_1179_" d="M420.573,34.72c-9.117-16.467-24.102-28.398-42.192-33.595c-5.304-1.527-10.847,1.543-12.372,6.85
		c-1.524,5.308,1.542,10.848,6.851,12.372c26.745,7.684,42.254,35.694,34.57,62.439c-1.524,5.308,1.542,10.848,6.851,12.372
		c5.289,1.521,10.843-1.527,12.372-6.85C431.849,70.218,429.69,51.186,420.573,34.72z"/>
	<path id="XMLID_1193_" d="M255.365,107.609c-26.997,0-49.854,17.696-57.624,42.119l34.891-2.883
		c21.12-1.747,39.647,13.962,41.392,35.073c1.345,16.275-7.783,31.646-22.715,38.249c-6.918,3.059-11.805,3.097-19.256,3.713
		c7.175,3.001,15.049,4.663,23.312,4.663c33.395,0,60.467-27.072,60.467-60.467C315.832,134.681,288.76,107.609,255.365,107.609z"/>
</g>
<g>
</g>
<g>
</g>
<g>
</g>
<g>
</g>
<g>
</g>
<g>
</g>
<g>
</g>
<g>
</g>
<g>
</g>
<g>
</g>
<g>
</g>
<g>
</g>
<g>
</g>
<g>
</g>
<g>
</g>
</svg>
