<?xml version="1.0" encoding="iso-8859-1"?>
<!-- Generator: Adobe Illustrator 18.0.0, SVG Export Plug-In . SVG Version: 6.00 Build 0)  -->
<!DOCTYPE svg PUBLIC "-//W3C//DTD SVG 1.1//EN" "http://www.w3.org/Graphics/SVG/1.1/DTD/svg11.dtd">
<svg version="1.1" id="Capa_1" xmlns="http://www.w3.org/2000/svg" xmlns:xlink="http://www.w3.org/1999/xlink" x="0px" y="0px"
	 viewBox="0 0 460.064 460.064" style="enable-background:new 0 0 460.064 460.064;" xml:space="preserve">
<g id="XMLID_4_">
	<circle id="XMLID_18_" cx="221.212" cy="48.768" r="38.118"/>
	<path id="XMLID_985_" d="M269.922,254.019V151.653c-14.878-5.734-20.364-23.49-11.553-35.498l9.164-12.493
		c0,0-71.216,0.049-71.241,0.049l18.518,41.845c4.695,10.61,0.299,23.146-10.22,29.156c-9.002,5.147-20.286,4.305-27.851-2.556
		l-4.236-3.842v85.705l-42.074,178.917c-2.79,11.866,4.567,23.746,16.432,26.536c11.845,2.789,23.743-4.55,26.537-16.432
		l42.674-181.465h10.283l42.673,181.465c2.796,11.891,14.701,19.219,26.537,16.432c11.866-2.79,19.222-14.671,16.432-26.536
		L269.922,254.019z"/>
	<path id="XMLID_986_" d="M133.451,127.342c-0.035-0.055-0.068-0.11-0.104-0.164l0-0.001l8.62-26.89l0.849,1.918
		c5.788,13.08,14.364,24.838,25.448,34.891l22.096,20.041c2.101,1.905,7.017-0.869,5.907-3.376L132.339,9.299
		c-1.099-2.483-6.469-0.763-6.471,2.102l-0.026,29.83c-0.012,13.468,2.373,26.359,7.068,38.338
		c-9.412-4.307-20.176,0.707-23.232,10.238l-22.861,71.31c-4.633,14.46,10.949,27.749,24.618,19.888
		c0.145-0.083,0.292-0.162,0.435-0.249c0.026-0.016,0.054-0.03,0.08-0.046l44.014-27.397
		C147.597,145.726,140.369,137.981,133.451,127.342z"/>
	<path id="XMLID_988_" d="M368.157,0.769l-93.439,127.379c-1.624,2.213,2.598,5.965,5.046,4.565l25.881-14.833
		c8.385-4.806,15.886-10.543,22.437-17.102c-7.438,47.778-3.135,20.14-5.722,36.761l-4.776-3.161
		c-0.617,0.367-1.231,0.736-1.856,1.094c-28.261,16.196-27.644,16.206-31.994,17.208l41.958,27.774
		c0.066,0.044,0.135,0.08,0.202,0.123c10.262,6.594,24.045,0.495,25.938-11.666l10.699-68.732
		c1.421-9.127-4.817-17.929-14.161-19.382c-1.383-0.215-2.749-0.237-4.085-0.12l5.781-7.882
		c8.46-11.533,14.386-24.826,17.584-39.444l6.375-29.141C374.647,1.371,369.734-1.382,368.157,0.769z"/>
</g>
<g>
</g>
<g>
</g>
<g>
</g>
<g>
</g>
<g>
</g>
<g>
</g>
<g>
</g>
<g>
</g>
<g>
</g>
<g>
</g>
<g>
</g>
<g>
</g>
<g>
</g>
<g>
</g>
<g>
</g>
</svg>
