<?xml version="1.0" encoding="iso-8859-1"?>
<!-- Generator: Adobe Illustrator 18.0.0, SVG Export Plug-In . SVG Version: 6.00 Build 0)  -->
<!DOCTYPE svg PUBLIC "-//W3C//DTD SVG 1.1//EN" "http://www.w3.org/Graphics/SVG/1.1/DTD/svg11.dtd">
<svg version="1.1" id="Capa_1" xmlns="http://www.w3.org/2000/svg" xmlns:xlink="http://www.w3.org/1999/xlink" x="0px" y="0px"
	 viewBox="0 0 460 460" style="enable-background:new 0 0 460 460;" xml:space="preserve">
<g id="XMLID_864_">
	<path id="XMLID_867_" d="M184.807,439.055c-0.014,11.554,9.341,20.931,20.895,20.945c0.009,0,0.017,0,0.026,0
		c11.542,0,20.906-9.35,20.918-20.895l0.147-124.702h-41.839L184.807,439.055z"/>
	<path id="XMLID_1050_" d="M235.855,439.08c0,11.554,9.366,20.92,20.919,20.92c11.554,0,20.919-9.366,20.919-20.92V314.403h-41.839
		V439.08z"/>
	<path id="XMLID_1051_" d="M231.335,111.413c19.773,0,36.131-16.025,36.131-36.131c0-19.954-16.176-36.131-36.131-36.131
		c-19.954,0-36.131,16.176-36.131,36.131C195.204,95.243,211.388,111.413,231.335,111.413z"/>
	<path id="XMLID_1069_" d="M345.407,262.801L345.407,262.801c-7.345,0-148.564,0-155.905,0c4.348-1.17,8.245-4.012,10.641-8.239
		c4.746-8.377,1.802-19.016-6.574-23.762L154.6,208.723c24.268-41.449,27.04-46.405,30.375-49.608c0,10.216,0,37.267,0,47.581
		l16.845,9.543c11.098,6.289,17.322,17.896,17.309,29.826h58.187c0-10.438,0-77.351,0-88.27h51.167c4.898,0,9.569-2.06,12.873-5.677
		c3.303-3.617,4.932-8.456,4.489-13.334l-6.973-76.729c-0.871-9.588-9.356-16.647-18.939-15.784
		c-5.716,0.519-10.518,3.753-13.294,8.302C300.439,23.616,269.363,0,232.05,0c-41.76,0-75.734,29.572-75.734,65.919v16.198
		c0,5.597,4.537,10.134,10.134,10.134c5.596,0,10.134-4.537,10.134-10.134V65.919c0-25.173,24.882-45.652,55.467-45.652
		s55.467,20.479,55.467,45.652v16.198c0,5.597,4.537,10.134,10.134,10.134c3.585,0,6.728-1.867,8.53-4.677l3.213,35.356
		c-17.985,0-110.702,0-122.157,0c-22.581,0-33.597,18.67-40.886,31.024c-14.521,24.568-29.52,50.299-30.775,52.437
		c-4.897,8.394-1.983,19.17,6.462,23.957l54.344,30.788c1.308,0.741,2.672,1.29,4.059,1.664c-10.079,0-58.331,0-65.847,0h0
		c-9.621,0-17.433,7.799-17.433,17.433c0,9.6,7.864,17.433,17.433,17.433h230.815c9.636,0,17.433-7.814,17.433-17.433
		C362.84,270.666,355.098,262.801,345.407,262.801z"/>
</g>
<g>
</g>
<g>
</g>
<g>
</g>
<g>
</g>
<g>
</g>
<g>
</g>
<g>
</g>
<g>
</g>
<g>
</g>
<g>
</g>
<g>
</g>
<g>
</g>
<g>
</g>
<g>
</g>
<g>
</g>
</svg>
