<?xml version="1.0" encoding="iso-8859-1"?>
<!-- Generator: Adobe Illustrator 18.0.0, SVG Export Plug-In . SVG Version: 6.00 Build 0)  -->
<!DOCTYPE svg PUBLIC "-//W3C//DTD SVG 1.1//EN" "http://www.w3.org/Graphics/SVG/1.1/DTD/svg11.dtd">
<svg version="1.1" id="Capa_1" xmlns="http://www.w3.org/2000/svg" xmlns:xlink="http://www.w3.org/1999/xlink" x="0px" y="0px"
	 viewBox="0 0 460.067 460.067" style="enable-background:new 0 0 460.067 460.067;" xml:space="preserve">
<g id="XMLID_461_">
	<circle id="XMLID_470_" cx="104.658" cy="37.866" r="37.866"/>
	<path id="XMLID_1077_" d="M109.144,401.324v36.817c0,12.108,9.816,21.925,21.925,21.925s21.925-9.816,21.925-21.925V403.97H121.24
		C116.925,403.97,112.83,403.018,109.144,401.324z"/>
	<path id="XMLID_1080_" d="M246.216,298.515c0-5.015-4.065-9.08-9.079-9.08h-19.99c0-8.863,0-14.683,0-23.349
		c0-4.409-2.68-8.191-6.5-9.806c-2.54-1.074-3.611-0.836-13.236-0.836l-0.107-21.285l-0.519-103.336
		c-0.12-23.722-19.516-43.019-43.237-43.019c-9.664,0-88.661,0-98.086,0c-23.722,0-43.117,19.298-43.237,43.019L11.55,265.05
		c-0.051,10.091,8.088,18.311,18.179,18.362c0.031,0,0.063,0,0.094,0c10.048,0,18.218-8.12,18.269-18.179l0.675-134.228
		c0.01-1.945,1.592-3.515,3.537-3.51c1.945,0.005,3.518,1.583,3.518,3.528l0.008,307.118c0,12.108,9.816,21.925,21.925,21.925
		s21.925-9.816,21.925-21.925V394.38c-4.67-5.161-7.518-11.999-7.518-19.49v-76.375c0-7.492,2.849-14.329,7.518-19.49v-11.397
		c0-2.614,2.119-4.733,4.733-4.733s4.733,2.119,4.733,4.733v4.453c3.315-1.523,6.96-2.443,10.8-2.612v-3.382
		c0-16.735,13.198-31.928,32.653-31.928V130.956c0-2.112,1.712-3.824,3.824-3.824c2.112,0,3.824,1.712,3.824,3.824
		c0,0.016,0,0.033,0,0.049c0.024,4.823,0.592,117.914,0.625,124.438c-9.66,0-10.639-0.221-13.139,0.836
		c-3.82,1.616-6.5,5.398-6.5,9.806c0,8.663,0,14.485,0,23.349h-19.99c-5.014,0-9.079,4.065-9.079,9.08v76.375
		c0,5.014,4.065,9.08,9.079,9.08h115.897c5.014,0,9.079-4.065,9.079-9.08V298.515z M200.505,301.948c5.522,0,10,4.478,10,10
		c0,5.522-4.478,10-10,10h-42.633c-5.522,0-10-4.478-10-10c0-5.522,4.478-10,10-10C196.102,301.948,184.362,301.948,200.505,301.948
		z M179.186,283.412c0.03,0,0.063,0,0.094,0c5.658-0.029,10.701-2.627,14.032-6.683h2.55h0.001v12.706h-33.348V276.73h0.001h2.552
		C168.419,280.81,173.501,283.412,179.186,283.412z M142.748,364.339c-9.74,0-17.64-7.899-17.64-17.636
		c0-9.745,7.899-17.636,17.64-17.636c9.741,0,17.636,7.891,17.636,17.636C160.384,356.439,152.489,364.339,142.748,364.339z
		 M215.628,364.339c-9.74,0-17.636-7.899-17.636-17.636c0-9.745,7.896-17.636,17.636-17.636c9.74,0,17.64,7.891,17.64,17.636
		C233.268,356.439,225.368,364.339,215.628,364.339z"/>
	<path id="XMLID_1087_" d="M394.707,144.934c-2.615-1.881-5.974-2.384-9.023-1.36l-71.965,24.176
		c-4.072,1.368-6.816,5.184-6.816,9.48v68.185c-2.581-0.587-5.333-0.903-8.202-0.903c-15.421,0-27.5,9.094-27.5,20.703
		c0,11.609,12.079,20.703,27.5,20.703c13.373,0,24.226-6.84,26.875-16.228c1.864-3.249,1.393-16.769,1.327-85.271l51.965-17.457
		v54.277c-2.581-0.587-5.333-0.903-8.202-0.903c-15.421,0-27.501,9.094-27.501,20.703c0,11.609,12.08,20.704,27.501,20.704
		c13.372,0,24.225-6.84,26.875-16.227c1.874-3.266,1.4-19.471,1.328-92.463C398.869,149.834,397.32,146.813,394.707,144.934z"/>
	<path id="XMLID_1091_" d="M438.422,5.146c-5.522,0-10,4.477-10,10v68.185c-2.581-0.587-5.333-0.903-8.202-0.903
		c-15.421,0-27.5,9.094-27.5,20.703s12.079,20.703,27.5,20.703c13.372,0,24.226-6.84,26.875-16.228
		c1.873-3.266,1.376-12.936,1.327-92.461C448.422,9.623,443.944,5.146,438.422,5.146z"/>
</g>
<g>
</g>
<g>
</g>
<g>
</g>
<g>
</g>
<g>
</g>
<g>
</g>
<g>
</g>
<g>
</g>
<g>
</g>
<g>
</g>
<g>
</g>
<g>
</g>
<g>
</g>
<g>
</g>
<g>
</g>
</svg>
