<?xml version="1.0" encoding="iso-8859-1"?>
<!-- Generator: Adobe Illustrator 18.0.0, SVG Export Plug-In . SVG Version: 6.00 Build 0)  -->
<!DOCTYPE svg PUBLIC "-//W3C//DTD SVG 1.1//EN" "http://www.w3.org/Graphics/SVG/1.1/DTD/svg11.dtd">
<svg version="1.1" id="Capa_1" xmlns="http://www.w3.org/2000/svg" xmlns:xlink="http://www.w3.org/1999/xlink" x="0px" y="0px"
	 viewBox="0 0 460.074 460.074" style="enable-background:new 0 0 460.074 460.074;" xml:space="preserve">
<g id="XMLID_527_">
	<path id="XMLID_816_" d="M375.915,247.171c0-0.001,0-0.001,0-0.001l-23.181-63.837l-0.064,0.023
		c-0.143-0.476-0.274-0.954-0.445-1.424c-5.74-15.808-25.444-24.395-50.553-24.395c0,0-0.001,0-0.002,0
		c-2.288,0-4.624,0.08-6.995,0.223l26.323-42.085c2.929-4.682,1.507-10.852-3.176-13.781c-4.681-2.93-10.852-1.508-13.781,3.175
		l-14.056,22.473c-0.064-0.518-0.138-1.036-0.247-1.556c-0.548-2.595-1.629-4.937-3.091-6.955l45.942-73.452
		c2.929-4.682,1.507-10.852-3.176-13.781c-4.682-2.93-10.853-1.508-13.781,3.175l-48.133,76.954l-74.572,15.746l-0.239-15.304
		c-0.222-14.187-11.902-25.507-26.089-25.285l-45.808,0.716c-14.187,0.222-25.507,11.902-25.285,26.089
		c0.113,7.246,1.962,125.45,2.075,132.679l0.037-0.032c0.302,5.528,2.663,10.949,7.056,14.996
		c8.667,7.983,62.354,57.438,69.328,63.862l2.562,113.157c0.271,11.988,10.074,21.522,22.004,21.521
		c0.169,0,0.339-0.002,0.508-0.006c12.158-0.275,21.791-10.354,21.516-22.512l-2.773-122.513
		c-0.136-5.979-2.696-11.645-7.095-15.697l-63.305-58.313c7.629,4.725,43.71,27.071,47.705,29.545l-0.368-15.441l7.128,19.628
		l20.046,12.415c13.228,8.193,12.293,21.527,12.425,27.489l0.251,11.082c7.364,2.869,16.153,4.495,25.837,4.805
		c-21.158-58.265-2.545-7.009-23.691-65.239c7.062,0.226,13.987-0.247,20.832-1.227c2.362,6.504,21.32,58.712,23.691,65.239
		c9.594-1.373,19.625-3.857,29.717-7.522c10.094-3.665,19.378-8.2,27.618-13.304c-2.675-7.365-20.919-57.607-23.69-65.239
		c6.229-3.857,11.848-8.042,16.764-12.43c11.958,32.931,11.403,31.403,23.69,65.239
		C372.886,280.442,381.391,262.252,375.915,247.171z M201.863,158.885l14.382,1.374l59.33-12.528
		c0.745-0.157,1.462-0.371,2.165-0.611l-21.667,34.641l-62.577-5.98l-32.92-61.535L201.863,158.885z M324.904,209.351
		c-9.926,11.41-26.12,21.768-44.43,28.417c-13.706,4.977-27.643,7.608-40.305,7.608c-19.019,0-29.793-5.817-31.756-11.222
		c-0.268-0.737-0.399-1.561-0.427-2.444c-18.658-1.79-12.228-1.173-30.91-2.966c-17.258-1.65-27.895-15.018-29.853-22.895
		l-6.471-26.021c-1.289-5.182-10.308-41.454-11.372-45.732l34.937,67.501v0c2.906,5.426,8.322,9.026,14.434,9.611l74.437,7.143
		c9.551,0.914,18.152-5.688,19.811-15.043c0.572-3.225,0.273-6.468-0.852-9.531l8.937-14.288c6.228-0.942,15.556-1.952,20.587-1.952
		h0.001c19.018,0,29.792,5.817,31.754,11.221C335.132,193.457,331.867,201.348,324.904,209.351z"/>
	<path id="XMLID_1042_" d="M148.557,315.33l-61.562,81.06c-7.355,9.685-5.466,23.498,4.218,30.853
		c9.69,7.359,23.503,5.46,30.853-4.218l36.512-48.076l-1.076-47.517L148.557,315.33z"/>
	<circle id="XMLID_1044_" cx="143.122" cy="38.03" r="38.03"/>
</g>
<g>
</g>
<g>
</g>
<g>
</g>
<g>
</g>
<g>
</g>
<g>
</g>
<g>
</g>
<g>
</g>
<g>
</g>
<g>
</g>
<g>
</g>
<g>
</g>
<g>
</g>
<g>
</g>
<g>
</g>
</svg>
