<?xml version="1.0" encoding="iso-8859-1"?>
<!-- Generator: Adobe Illustrator 18.0.0, SVG Export Plug-In . SVG Version: 6.00 Build 0)  -->
<!DOCTYPE svg PUBLIC "-//W3C//DTD SVG 1.1//EN" "http://www.w3.org/Graphics/SVG/1.1/DTD/svg11.dtd">
<svg version="1.1" id="Capa_1" xmlns="http://www.w3.org/2000/svg" xmlns:xlink="http://www.w3.org/1999/xlink" x="0px" y="0px"
	 viewBox="0 0 463.084 463.084" style="enable-background:new 0 0 463.084 463.084;" xml:space="preserve">
<g id="XMLID_942_">
	<path id="XMLID_946_" d="M421.079,7.627c-3.091-1.34-6.648-1.034-9.465,0.814c-2.816,1.849-4.513,4.991-4.513,8.36v68.185
		c-2.581-0.587-5.333-0.903-8.202-0.903c-15.421,0-27.5,9.094-27.5,20.703s12.079,20.703,27.5,20.703
		c13.373,0,24.226-6.84,26.875-16.228c1.096-7.282,1.396-22.747,1.327-74.721c7.81,6.009,15.982,14.912,15.982,25.859
		c0,5.522,4.478,10,10,10c5.522,0,10-4.478,10-10C463.084,26.23,422.794,8.37,421.079,7.627z"/>
	<path id="XMLID_971_" d="M366.894,144.093c-3.856-12.882-15.941-21.88-29.389-21.88c-4.863,0-47.093,0-57.068,0
		c-13.661,0-25.473,8.793-29.39,21.88l-39.687,132.563c-2.598,8.675,2.33,17.813,11.005,20.409
		c8.673,2.598,17.813-2.33,20.409-11.005l22.594-75.469c0,1.619,1.383-7.833-17.963,117.005c-0.926,5.975,3.701,11.379,9.752,11.379
		h8.22v97.632c0,10.866,8.809,19.675,19.675,19.675c10.866,0,19.675-8.809,19.675-19.675v-97.632h8.495v97.632
		c0,10.866,8.809,19.675,19.675,19.675c10.866,0,19.675-8.809,19.675-19.675v-97.632h7.855c6.047,0,10.678-5.4,9.752-11.379
		c-19.641-126.746-17.963-114.939-17.963-118.197l22.952,76.661c2.598,8.677,11.737,13.602,20.409,11.005
		c8.675-2.597,13.603-11.734,11.005-20.409L366.894,144.093z"/>
	<circle id="XMLID_976_" cx="308.971" cy="77.401" r="33.981"/>
	<path id="XMLID_978_" d="M156.227,144.093c-3.856-12.882-15.941-21.88-29.389-21.88c-1.304,0-2.076,0-57.068,0
		c-13.659,0-25.47,8.792-29.39,21.88L0.693,276.656c-2.598,8.675,2.33,17.813,11.005,20.409c8.673,2.598,17.813-2.33,20.409-11.005
		l22.594-75.469c0,1.619,1.383-7.833-17.963,117.005c-0.926,5.976,3.701,11.379,9.752,11.379h8.22v97.632
		c0,10.866,8.808,19.675,19.675,19.675c10.866,0,19.675-8.809,19.675-19.675v-97.632h8.496v97.632
		c0,10.866,8.809,19.675,19.675,19.675c10.866,0,19.675-8.809,19.675-19.675v-97.632h7.854c6.047,0,10.678-5.4,9.752-11.379
		c-19.641-126.746-17.963-114.938-17.963-118.197L164.5,286.06c2.598,8.677,11.737,13.602,20.409,11.005
		c8.675-2.597,13.603-11.734,11.005-20.409L156.227,144.093z"/>
	<circle id="XMLID_981_" cx="98.303" cy="77.401" r="33.981"/>
</g>
<g>
</g>
<g>
</g>
<g>
</g>
<g>
</g>
<g>
</g>
<g>
</g>
<g>
</g>
<g>
</g>
<g>
</g>
<g>
</g>
<g>
</g>
<g>
</g>
<g>
</g>
<g>
</g>
<g>
</g>
</svg>
