<?xml version="1.0" encoding="iso-8859-1"?>
<!-- Generator: Adobe Illustrator 18.0.0, SVG Export Plug-In . SVG Version: 6.00 Build 0)  -->
<!DOCTYPE svg PUBLIC "-//W3C//DTD SVG 1.1//EN" "http://www.w3.org/Graphics/SVG/1.1/DTD/svg11.dtd">
<svg version="1.1" id="Capa_1" xmlns="http://www.w3.org/2000/svg" xmlns:xlink="http://www.w3.org/1999/xlink" x="0px" y="0px"
	 viewBox="0 0 459.08 459.08" style="enable-background:new 0 0 459.08 459.08;" xml:space="preserve">
<g id="XMLID_512_">
	<path id="XMLID_808_" d="M455.227,10c0-3.219-1.549-6.24-4.162-8.119c-2.614-1.881-5.974-2.384-9.022-1.36l-71.965,24.176
		c-4.072,1.368-6.816,5.184-6.816,9.479v68.185c-2.581-0.587-5.333-0.903-8.202-0.903c-15.421,0-27.5,9.094-27.5,20.703
		c0,11.609,12.079,20.703,27.5,20.703c13.372,0,24.226-6.84,26.875-16.228c0.277-3.574,1.327-85.271,1.327-85.271l51.965-17.457
		v54.277c-2.581-0.587-5.333-0.903-8.202-0.903c-15.421,0-27.501,9.094-27.501,20.703s12.08,20.703,27.501,20.703
		c13.372,0,24.225-6.839,26.875-16.226C454.198,98.077,455.227,10,455.227,10z"/>
	<circle id="XMLID_935_" cx="88.515" cy="74.946" r="34.452"/>
	<path id="XMLID_936_" d="M314.41,142.562c-3.973-13.268-15.946-22.183-29.797-22.183h-57.859c-13.85,0-25.824,8.914-29.796,22.183
		l-18.783,62.739c-2.266-17.739-4.392-35.095-5.703-47.451c-2.304-21.712-18.809-37.471-39.247-37.471H43.805
		c-21.583,0-39.23,17.559-39.339,39.142L3.853,281.646c-0.046,9.181,7.359,16.66,16.54,16.706c0.029,0,0.057,0,0.085,0
		c9.142,0,16.576-7.388,16.622-16.54l0.613-122.124v-0.002c0.01-1.818,1.489-3.286,3.307-3.28c1.818,0.005,3.289,1.481,3.289,3.299
		l0.007,279.427c0,11.017,8.931,19.948,19.948,19.948s19.948-8.932,19.948-19.948v-155.14c0-2.378,1.928-4.306,4.306-4.306
		c2.378,0,4.306,1.928,4.306,4.306v155.14c0,11.017,8.931,19.948,19.948,19.948s19.948-8.932,19.948-19.948
		c0-262.698-0.351-114.016-0.362-277.365c0-1.873,1.461-3.422,3.331-3.531c1.87-0.109,3.504,1.259,3.719,3.12l0,0.002
		c4.376,37.911,15.202,119.199,15.676,122.639c1.044,7.582,7.15,14.36,17.565,14.36c7.153-0.001,13.762-4.655,15.918-11.86
		l22.908-76.515l-18.212,118.627c-0.448,2.887,0.389,5.825,2.29,8.043c1.901,2.218,4.676,3.495,7.597,3.495h8.333v98.986
		c0,11.017,8.931,19.948,19.948,19.948c11.017,0,19.948-8.932,19.948-19.948v-98.986h8.612v98.986
		c0,11.017,8.932,19.948,19.948,19.948s19.948-8.932,19.948-19.948v-98.986h7.963c2.921,0,5.696-1.276,7.597-3.495
		c1.901-2.218,2.737-5.156,2.29-8.043l-18.212-119.835l23.27,77.724c2.157,7.205,8.765,11.86,15.918,11.86
		c1.579,0,3.185-0.227,4.774-0.703c8.795-2.633,13.79-11.897,11.157-20.692L314.41,142.562z"/>
	<circle id="XMLID_937_" cx="255.683" cy="74.946" r="34.452"/>
</g>
<g>
</g>
<g>
</g>
<g>
</g>
<g>
</g>
<g>
</g>
<g>
</g>
<g>
</g>
<g>
</g>
<g>
</g>
<g>
</g>
<g>
</g>
<g>
</g>
<g>
</g>
<g>
</g>
<g>
</g>
</svg>
