<?xml version="1.0" encoding="iso-8859-1"?>
<!-- Generator: Adobe Illustrator 18.0.0, SVG Export Plug-In . SVG Version: 6.00 Build 0)  -->
<!DOCTYPE svg PUBLIC "-//W3C//DTD SVG 1.1//EN" "http://www.w3.org/Graphics/SVG/1.1/DTD/svg11.dtd">
<svg version="1.1" id="Capa_1" xmlns="http://www.w3.org/2000/svg" xmlns:xlink="http://www.w3.org/1999/xlink" x="0px" y="0px"
	 viewBox="0 0 459.517 459.517" style="enable-background:new 0 0 459.517 459.517;" xml:space="preserve">
<g id="XMLID_509_">
	<path id="XMLID_799_" d="M235.75,307.871v-80.555c0,0-24.71-7.651-60.008-19.091l57.935,5.292c4.366,0.4,8.815-1.221,11.92-4.622
		l54.046-59.214c5.35-5.862,4.935-14.951-0.926-20.301c-5.861-5.35-14.95-4.936-20.3,0.926l-49.234,53.942l-57.179-5.15
		c-4.592-0.059-9.548,1.817-13.515,5.293c-4.692,4.166-7.651,10.24-7.651,17.008v104.218l-14.332,65.739l-43.398,57.453
		c-6.378,8.443-4.703,20.458,3.74,26.836c8.444,6.378,20.459,4.702,26.836-3.74l45.934-60.81c1.67-2.211,2.841-4.759,3.432-7.467
		l11.629-53.34h18.272l12.807,37.105l-1.532,72.56c-0.223,10.579,8.172,19.336,18.751,19.56c0.138,0.003,0.275,0.004,0.412,0.004
		c10.393,0,18.927-8.313,19.148-18.755l1.604-75.98c0.048-2.263-0.306-4.516-1.044-6.655L235.75,307.871z"/>
	<path id="XMLID_885_" d="M266.976,204.949l15.254-0.78c2.701-0.138,5.309-1.036,7.522-2.59l27.578-19.36l-18.601-12.06
		L266.976,204.949z"/>
	<path id="XMLID_892_" d="M160.07,132.847c0,18.349,14.875,33.224,33.224,33.224c17.023,0,31.048-12.806,32.987-29.308
		l-65.29-11.675C160.394,127.578,160.07,130.174,160.07,132.847z"/>
	<path id="XMLID_896_" d="M138.123,100.682c119.958,21.45,112.861,20.233,114.18,20.336l10.564,6.846
		c3.336-3.655,2.591-2.838,5.851-6.41c4.416-4.839,10.264-7.817,16.46-8.69l-18.895-12.247c-0.886-1.835,1.767,2.308-65.662-96.435
		c-5.346-7.836-17.358-3.533-16.981,5.63c1.41,34.27,1.488,33.03,1.111,36.273c-1.02,8.78-5.748,16.688-12.908,21.749
		c-3.936,2.782-3.749,2.413-35.543,15.15C127.508,86.408,129.155,99.079,138.123,100.682z M213.359,49.23
		c4.138,2.672,5.322,8.198,2.642,12.325c-2.671,4.143-8.197,5.328-12.33,2.649c-4.138-2.672-5.322-8.198-2.644-12.337
		C203.699,47.73,209.225,46.545,213.359,49.23z M193.51,30.914c1.892-2.917,5.792-3.753,8.716-1.862
		c2.916,1.887,3.752,5.787,1.867,8.71c-1.892,2.923-5.792,3.759-8.715,1.868C192.454,37.738,191.618,33.838,193.51,30.914z"/>
	<path id="XMLID_932_" d="M364.621,164.254l-49.162-31.864c2.174,7.586,1.013,15.866-3.38,22.6c-0.722,1.106-1.534,2.172-2.433,3.19
		l41.499,26.895c5.706,3.691,13.398,2.129,17.152-3.676C372.01,175.659,370.36,167.968,364.621,164.254z"/>
</g>
<g>
</g>
<g>
</g>
<g>
</g>
<g>
</g>
<g>
</g>
<g>
</g>
<g>
</g>
<g>
</g>
<g>
</g>
<g>
</g>
<g>
</g>
<g>
</g>
<g>
</g>
<g>
</g>
<g>
</g>
</svg>
