<?xml version="1.0" encoding="iso-8859-1"?>
<!-- Generator: Adobe Illustrator 18.0.0, SVG Export Plug-In . SVG Version: 6.00 Build 0)  -->
<!DOCTYPE svg PUBLIC "-//W3C//DTD SVG 1.1//EN" "http://www.w3.org/Graphics/SVG/1.1/DTD/svg11.dtd">
<svg version="1.1" id="Capa_1" xmlns="http://www.w3.org/2000/svg" xmlns:xlink="http://www.w3.org/1999/xlink" x="0px" y="0px"
	 viewBox="0 0 460.067 460.067" style="enable-background:new 0 0 460.067 460.067;" xml:space="preserve">
<g id="XMLID_893_">
	<path id="XMLID_900_" d="M353.068,101.707l-65.139-19.069c10.618,16.524,5.326,38.409-11.395,48.334l-39.097,23.205l0.174,34.612
		c0.041,8.183,5.519,15.341,13.406,17.52c7.89,2.178,16.264-1.156,20.497-8.155l42.377-70.059c3.174-5.248,3.382-11.45,1.13-16.685
		l32.427,9.493c5.293,1.55,10.854-1.482,12.407-6.788C361.407,108.814,358.368,103.259,353.068,101.707z"/>
	<path id="XMLID_929_" d="M181.735,75.733c2.845,0,5.613-0.324,8.278-0.919l30.771,9.008c22.394-13.291,21.502-12.84,23.767-13.882
		l-32.422-9.491c4.692-6.305,7.471-14.119,7.471-22.583C219.602,16.953,202.648,0,181.735,0c-20.913,0-37.866,16.953-37.866,37.866
		S160.822,75.733,181.735,75.733z"/>
	<path id="XMLID_938_" d="M229.674,158.785c-13.63,8.09-22.41,13.301-36.498,21.663c-10.177,6.04-22.91,4.005-30.765-4.184
		l-29.513-30.752l0.009,292.631c0,12.109,9.816,21.925,21.925,21.925c12.109,0,21.925-9.816,21.925-21.925
		c0-20.639,0-138.68,0-170.473c0-2.637,2.137-4.775,4.774-4.775c2.592,0,4.692,2.1,4.692,4.692c0,31.625,0,149.83,0,170.556
		c0,12.109,9.816,21.925,21.925,21.925s21.925-9.816,21.925-21.925L229.674,158.785z"/>
	<path id="XMLID_949_" d="M190.611,163.096l77.639-46.081c8.677-5.15,11.537-16.359,6.386-25.037
		c-5.15-8.678-16.36-11.537-25.037-6.386l-67.848,40.269l-41.859-27.359l36.906,11.426c9.406-5.583,18.09-10.737,37.281-22.127
		l-96.248-0.034v0.044c-7.979,0.108-14.98,5.379-17.263,13.046c-2.307,7.746,0.749,16.087,7.515,20.509
		c13.044,8.526,50.15,32.778,63.207,41.312C177.135,166.5,184.631,166.646,190.611,163.096z"/>
</g>
<g>
</g>
<g>
</g>
<g>
</g>
<g>
</g>
<g>
</g>
<g>
</g>
<g>
</g>
<g>
</g>
<g>
</g>
<g>
</g>
<g>
</g>
<g>
</g>
<g>
</g>
<g>
</g>
<g>
</g>
</svg>
