<?xml version="1.0" encoding="iso-8859-1"?>
<!-- Generator: Adobe Illustrator 18.0.0, SVG Export Plug-In . SVG Version: 6.00 Build 0)  -->
<!DOCTYPE svg PUBLIC "-//W3C//DTD SVG 1.1//EN" "http://www.w3.org/Graphics/SVG/1.1/DTD/svg11.dtd">
<svg version="1.1" id="Capa_1" xmlns="http://www.w3.org/2000/svg" xmlns:xlink="http://www.w3.org/1999/xlink" x="0px" y="0px"
	 viewBox="0 0 435.148 435.148" style="enable-background:new 0 0 435.148 435.148;" xml:space="preserve">
<g id="XMLID_871_">
	<path id="XMLID_872_" d="M225.181,296.159v109.107c0,11.277,9.142,20.419,20.419,20.419c11.277,0,20.419-9.142,20.419-20.419
		v-97.392C251.584,308.255,237.45,303.778,225.181,296.159z"/>
	<path id="XMLID_914_" d="M346.81,300.758l-25.578-46.532c-1.427,17.184-9.157,32.768-23.01,42.917l10.52,19.138l4.232,89.943
		c0.515,10.938,9.544,19.46,20.38,19.46c11.715,0,20.959-9.778,20.413-21.379l-4.455-94.672
		C349.166,306.524,348.31,303.488,346.81,300.758z"/>
	<circle id="XMLID_933_" cx="270.423" cy="44.728" r="35.266"/>
	<path id="XMLID_956_" d="M397.001,156.883l-32.23,25.25c0.147,0.544,0.283,1.087,0.415,1.631l49.113-24.97
		C408.208,160.28,402.104,159.417,397.001,156.883z"/>
	<path id="XMLID_961_" d="M432.498,115.203l-0.094-0.12l-3.247-4.144l1.66-1.301c5.243-4.107,5.867-11.924,1.097-16.8
		c-3.932-4.02-10.407-4.576-14.995-1.013c-0.012,0.009-0.025,0.017-0.037,0.026l-1.66,1.3c-2.064-2.635-1.293-1.651-3.34-4.263
		c-2.996-3.825-8.683-4.677-12.689-1.541c-3.877,3.038-4.652,8.717-1.541,12.689l3.34,4.264l-2.845,2.229l-3.34-4.264
		c-0.009-0.012-0.02-0.021-0.029-0.033c-3.038-3.84-8.706-4.605-12.66-1.507c-3.973,3.112-4.562,8.832-1.541,12.689l3.341,4.264
		c-6.394,5.01-46.975,36.802-52.586,41.199c-0.01-0.008-0.02-0.016-0.03-0.024c-7.908-6.725-17.921-11.301-28.206-11.513
		c-9.713-0.203-17.866,3.586-23.333,9.956c-5.892,6.866-5.027,13.357-14.73,19.252l13.734,9.699
		c15.017,10.604,18.658,31.4,8.006,46.481c-5.16,7.308-13.023,12.171-21.71,13.639l3.447,4.4c3.078,3.929,2.388,9.61-1.541,12.688
		c-1.654,1.296-3.618,1.924-5.568,1.924c-2.683,0-5.338-1.189-7.121-3.465l-19.819-25.297l-34.563-24.407
		c-3.617,18.44,3.105,37.988,14.547,52.593c32.226,41.135,87.088,33.094,90.545-12.286c1.633-21.437,22.715-22.826,25.687-23.826
		c10.084-3.393,17.603-12.049,19.494-24.26c1.462-9.447-0.703-19.364-4.905-27.768l52.586-41.198l3.34,4.264
		c3.03,3.866,8.704,4.662,12.689,1.541c3.946-3.09,4.578-8.812,1.541-12.689l-3.34-4.264l2.845-2.229l3.341,4.264
		c3.007,3.838,8.677,4.684,12.689,1.541C434.775,124.899,435.641,119.215,432.498,115.203z"/>
	<path id="XMLID_974_" d="M249.715,227.39c7.67,5.416,18.299,3.587,23.715-4.085c5.421-7.676,3.592-18.294-4.085-23.715
		l-29.674-20.954l-20.286-14.325l10.851-5.517c-6.092,1.486-12.196,0.622-17.298-1.911l-29.645,23.225
		C189.577,185.215,202.172,193.817,249.715,227.39z"/>
	<path id="XMLID_980_" d="M265.719,91.236c2.464,6.735,2.195,14.153-0.638,20.629c1.619,4.324,1.989,8.962,1.192,13.403
		c-1.062,5.921-4.207,11.489-9.303,15.482c-2.956,2.316-6.403,3.94-10.039,4.768c-1.627,3.259-3.983,6.217-7.036,8.609
		c-1.08,0.846-2.227,1.596-3.423,2.252l9.525,6.726c7.036,4.56,12.626-1.294,13.953-4.428c3.069-7.248,7.689-13.324,13.733-18.059
		c8.045-6.303,17.962-9.633,28.679-9.633c4.317,0,8.657,0.541,12.942,1.583c0-1.546,1.055-2.892,2.556-3.263
		c1.501-0.37,3.061,0.331,3.78,1.7c0.589,1.122,1.02,2.425,1.159,3.925c2.678,1.039,5.316,2.27,7.89,3.699l23.28-18.238
		c-6.386-17.939-20.605-29.155-37.778-29.155C304.816,91.236,276.057,91.236,265.719,91.236z"/>
	<path id="XMLID_996_" d="M41.119,296.159v109.107c0,11.277,9.142,20.419,20.419,20.419c11.277,0,20.419-9.142,20.419-20.419
		v-97.392c-0.557,0.015-1.113,0.033-1.674,0.033C66.852,307.906,53.299,303.723,41.119,296.159z"/>
	<path id="XMLID_1001_" d="M162.748,300.758l-25.578-46.532c-1.428,17.199-9.081,32.053-21.599,41.86
		c-0.464,0.363-0.937,0.71-1.411,1.057l10.52,19.138l4.232,89.943c0.515,10.938,9.544,19.46,20.38,19.46
		c0.324,0,0.65-0.007,0.976-0.023c11.265-0.53,19.967-10.092,19.437-21.357l-4.455-94.672
		C165.105,306.524,164.248,303.488,162.748,300.758z"/>
	<circle id="XMLID_1002_" cx="86.362" cy="44.728" r="35.266"/>
	<path id="XMLID_1004_" d="M120.928,252.516c0.872-11.44,9.474-20.812,20.803-22.627c10.334-1.656,18.617-8.283,22.474-18.266
		c4.298-11.133,2.409-24.142-3.001-34.961l52.586-41.198l3.34,4.264c3.24,4.136,9.454,4.716,13.387,0.934
		c0.026-0.025,0.048-0.053,0.074-0.078c3.312-3.262,3.54-8.465,0.768-12.004l-3.34-4.264l2.845-2.229l3.34,4.264
		c3.05,3.894,8.727,4.645,12.689,1.541c3.846-3.014,4.669-8.696,1.541-12.689l-3.34-4.264l1.66-1.301
		c5.245-4.109,5.864-11.927,1.097-16.799c-3.93-4.021-10.409-4.578-14.996-1.013c-0.012,0.009-0.025,0.017-0.037,0.026l-1.66,1.3
		c-1.693-2.162-1.644-2.099-3.34-4.263c-3.066-3.914-8.769-4.613-12.689-1.541c-3.929,3.078-4.619,8.76-1.541,12.689l3.34,4.264
		l-2.845,2.229l-3.34-4.264c-0.009-0.012-0.02-0.021-0.029-0.033c-2.87-3.628-8.051-4.505-11.951-2.007
		c-4.541,2.909-5.508,9.029-2.25,13.188l3.34,4.264c-6.394,5.01-46.975,36.802-52.586,41.199c-0.01-0.008-0.02-0.016-0.029-0.024
		c-10.688-9.088-25.683-14.444-39.131-9.896c-7.615,2.574-13.811,8.132-17.18,16.089c-1.932,4.562-5.333,8.692-9.959,11.502
		l13.734,9.699c2.092,1.477,3.975,3.169,5.643,5.03c0.098-0.081,0.186-0.17,0.287-0.249c6.412-5.024,15.683-3.898,20.707,2.514
		c5.024,6.413,3.898,15.683-2.514,20.707c-3.021,2.367-6.674,3.352-10.22,3.079c-0.628,5.488-2.621,10.762-5.896,15.4
		c-5.16,7.308-13.023,12.171-21.71,13.639l3.447,4.4c3.078,3.929,2.388,9.61-1.541,12.688c-3.927,3.077-9.609,2.39-12.688-1.541
		L50.4,236.616l-34.563-24.407c-3.543,18.065,2.842,37.652,14.547,52.593c19.909,25.413,56.295,37.419,78.421,15.509
		C116.293,272.896,120.134,262.943,120.928,252.516z"/>
	<path id="XMLID_1005_" d="M89.368,223.305c5.421-7.676,3.592-18.294-4.085-23.715l-29.674-20.954l-21.507-15.187
		c0.213-26.459,0.125-15.523,0.257-31.976v-0.001c0.01-1.861,1.524-3.363,3.385-3.358c1.861,0.005,3.366,1.515,3.366,3.377v16.91
		l21.015,14.764h0c8.155,4.625,12.434-1.354,13.761-4.488c3.069-7.248,7.689-13.324,13.733-18.059
		c11.887-9.313,27.069-11.588,41.621-8.049c0-1.676,1.201-3.112,2.851-3.408c1.65-0.296,3.275,0.633,3.857,2.205
		c0.376,1.014,0.654,2.194,0.786,3.565c2.678,1.039,5.316,2.27,7.89,3.699l23.28-18.238c-6.386-17.939-20.605-29.155-37.778-29.155
		c-9.843,0-81.949,0-91.532,0c-22.093,0-40.157,17.974-40.267,40.015c-0.11,13.655-0.186,23.163-0.328,40.827
		c-0.045,5.636,2.729,10.88,7.2,14.037c13.163,9.295,45.279,31.973,58.452,41.275C73.305,232.793,83.941,230.992,89.368,223.305z"/>
</g>
<g>
</g>
<g>
</g>
<g>
</g>
<g>
</g>
<g>
</g>
<g>
</g>
<g>
</g>
<g>
</g>
<g>
</g>
<g>
</g>
<g>
</g>
<g>
</g>
<g>
</g>
<g>
</g>
<g>
</g>
</svg>
