<?xml version="1.0" encoding="iso-8859-1"?>
<!-- Generator: Adobe Illustrator 18.0.0, SVG Export Plug-In . SVG Version: 6.00 Build 0)  -->
<!DOCTYPE svg PUBLIC "-//W3C//DTD SVG 1.1//EN" "http://www.w3.org/Graphics/SVG/1.1/DTD/svg11.dtd">
<svg version="1.1" id="Capa_1" xmlns="http://www.w3.org/2000/svg" xmlns:xlink="http://www.w3.org/1999/xlink" x="0px" y="0px"
	 viewBox="0 0 452.117 452.117" style="enable-background:new 0 0 452.117 452.117;" xml:space="preserve">
<g id="XMLID_508_">
	<path id="XMLID_533_" d="M150.392,413.685l-3.468,25.688c-0.831,6.151,3.483,11.811,9.635,12.643
		c6.213,0.831,11.819-3.535,12.643-9.635l4.094-30.323c-4.572,1.638-9.402,2.504-14.321,2.505
		C156.054,414.563,153.185,414.255,150.392,413.685z"/>
	<path id="XMLID_1344_" d="M150.849,318.157c-10.293-6.122-19.75-14.41-27.647-24.491c-11.776-15.031-18.944-32.575-20.622-50.145
		l-17.096,6.107c-6.512,2.326-11.601,7.508-13.81,14.062c-2.218,6.581-1.278,13.782,2.482,19.551l65.868,101.063
		c6.813,10.454,20.807,13.405,31.264,6.592c10.454-6.813,13.405-20.811,6.592-31.264L150.849,318.157z"/>
	<circle id="XMLID_1345_" cx="199.367" cy="39.02" r="39.02"/>
	<path id="XMLID_1346_" d="M339.418,163.113l-35.66,27.938c0.163,0.602,0.313,1.203,0.459,1.805l54.343-27.628
		C351.863,166.862,345.103,165.936,339.418,163.113z"/>
	<path id="XMLID_1347_" d="M378.693,116.996l-3.696-4.718l1.837-1.439c5.434-4.257,6.388-12.114,2.131-17.549
		c-0.001-0.001-0.001-0.002-0.002-0.002c-4.172-5.326-12.024-6.422-17.512-2.154c-0.011,0.009-0.024,0.016-0.035,0.025l-1.837,1.439
		l-3.696-4.717c-0.014-0.018-0.031-0.033-0.045-0.051c-3.082-3.882-8.973-5.305-13.994-1.654c0,0,0,0,0,0
		c-4.369,3.433-5.078,9.733-1.705,14.04l3.696,4.718l-3.148,2.466l-3.696-4.718c-0.015-0.019-0.032-0.034-0.046-0.053
		c-3.423-4.306-9.668-5.018-13.974-1.666c-0.006,0.005-0.013,0.009-0.019,0.014c-4.35,3.408-5.109,9.694-1.705,14.04l3.696,4.718
		c-5.768,4.519-51.276,40.172-58.184,45.583c-0.014-0.012-0.03-0.023-0.044-0.036c-21.782-18.511-50.121-16.706-61.115,4.394
		c-1.78,3.417-3.807,10.092-12.197,15.196l15.196,10.731c2.314,1.634,4.398,3.506,6.243,5.565c0.109-0.09,0.206-0.189,0.317-0.275
		c7.095-5.559,17.353-4.313,22.911,2.782c5.559,7.095,4.313,17.353-2.782,22.912c-3.342,2.618-7.384,3.708-11.308,3.407
		c-0.695,6.072-2.9,11.908-6.523,17.039c-5.71,8.086-14.409,13.466-24.022,15.091l3.814,4.869
		c3.406,4.348,2.642,10.633-1.705,14.039c-4.343,3.403-10.631,2.645-14.039-1.705l-21.929-27.991l-38.242-27.005
		c-3.999,20.395,3.426,42.02,16.095,58.191c0.001,0.001,0.002,0.002,0.003,0.004c20.721,26.441,58.243,39.866,83.105,20.382
		c10.547-8.263,16.057-20.621,17.075-33.981c0.962-12.618,10.451-23.022,23.017-25.036c25.393-4.071,34.645-32.691,21.546-58.893
		c12.943-10.14,45.172-35.389,58.184-45.583l3.696,4.717c3.312,4.231,9.599,5.184,14.039,1.705
		c4.321-3.384,5.103-9.702,1.705-14.039l-3.696-4.718l3.148-2.466l3.696,4.718c3.705,4.733,10.841,5.164,15.041,0.799
		C381.554,126.418,381.694,120.827,378.693,116.996z"/>
	<path id="XMLID_1348_" d="M111.78,195.456l64.674,45.67c8.494,5.999,20.242,3.972,26.239-4.52c6.082-8.613,3.832-20.342-4.52-26.24
		l-56.627-39.988c0.235-29.273,0.138-17.177,0.284-35.38v-0.002c0.011-2.059,1.686-3.721,3.745-3.715
		c2.059,0.006,3.725,1.677,3.725,3.736v18.711l23.04,16.27c2.163,1.637,5.226,2.137,5.746,2.137c3.762,0,7.583-1.417,9.692-7.037
		c3.06-8.154,8.508-14.742,15.195-19.981c8.901-6.974,19.874-10.659,31.732-10.658c4.777,0.001,9.579,0.599,14.32,1.751v-0.169
		c0-1.843,1.321-3.42,3.135-3.744c1.814-0.324,3.6,0.699,4.238,2.428c0.426,1.154,0.75,2.509,0.919,4.1
		c2.963,1.149,5.882,2.512,8.729,4.092l25.758-20.18c-7.066-19.849-22.798-32.258-41.8-32.258c-10.965,0-89.423,0-101.274,0
		c-24.444,0-44.432,19.887-44.554,44.274c-0.002,0.198-0.361,44.976-0.362,45.174C103.764,186.091,106.779,191.927,111.78,195.456z"
		/>
	<path id="XMLID_1351_" d="M324.474,248.742l-29.237-5.79c-7.389,9.646-18.341,16.637-31.748,18.785
		c-4.293,0.688-7.523,4.208-7.855,8.562c-0.276,3.62-0.801,7.147-1.564,10.562c-2.432,10.88-7.3,20.599-14.238,28.526l8.726,64.624
		h-47.088c-0.395,8.005-3.035,15.829-7.706,22.479h57.829l6.197,45.892c0.831,6.152,6.493,10.459,12.643,9.635
		c6.152-0.831,10.465-6.491,9.635-12.643l-6.802-50.378c2.272,1.984,4.978,3.546,8.037,4.514
		c11.903,3.763,24.593-2.836,28.354-14.728l31.969-101.064c1.938-6.128,1.175-12.791-2.099-18.321
		C336.253,253.865,330.779,249.991,324.474,248.742z M269.008,357.465l-10.217-75.669l32.139,6.365L269.008,357.465z"/>
</g>
<g>
</g>
<g>
</g>
<g>
</g>
<g>
</g>
<g>
</g>
<g>
</g>
<g>
</g>
<g>
</g>
<g>
</g>
<g>
</g>
<g>
</g>
<g>
</g>
<g>
</g>
<g>
</g>
<g>
</g>
</svg>
