<?xml version="1.0" encoding="iso-8859-1"?>
<!-- Generator: Adobe Illustrator 18.0.0, SVG Export Plug-In . SVG Version: 6.00 Build 0)  -->
<!DOCTYPE svg PUBLIC "-//W3C//DTD SVG 1.1//EN" "http://www.w3.org/Graphics/SVG/1.1/DTD/svg11.dtd">
<svg version="1.1" id="Capa_1" xmlns="http://www.w3.org/2000/svg" xmlns:xlink="http://www.w3.org/1999/xlink" x="0px" y="0px"
	 viewBox="0 0 460.647 460.647" style="enable-background:new 0 0 460.647 460.647;" xml:space="preserve">
<g id="XMLID_108_">
	<path id="XMLID_224_" d="M385.796,405.818V14.611c0-7.892-6.284-14.348-14.173-14.562c-62.723-1.69-100.582,40.703-128.236,71.66
		c-13.147,14.713-22.1,27.998-63.629,39.721c-0.931,12.334-5.591,23.749-12.927,33.013c6.809-1.408,16.23-3.58,23.981-5.874v42.715
		c0.182,1.655,0.013-0.572,2.108,30.995l21.199-1.321v-80.742c6.823-2.939,13.537-6.347,19.811-10.287v89.811
		c8.826-0.381,17.031,2.664,23.307,7.977V99.87c2.576-2.824,5.178-5.73,7.876-8.751c3.515-3.934,7.094-7.938,10.769-11.92v267.131
		l-18.646-34.698V269.39c-5.368,4.548-12.193,7.468-19.754,7.939c-5.092,0.318-16.466,1.026-30.723,1.915l6.339,11.797
		c-3.38-0.911-2.003-0.704-38.359-0.704l-0.601-9.061c-4.653,0.29-2.461,0.153-11.213,0.699
		c-9.767,0.609-18.465-5.205-22.003-13.772l-25.153-61.18l38.637,50.955c3.459,4.561,8.947,7.018,14.538,6.665l67.484-4.206
		c9.328-0.581,16.42-8.615,15.838-17.943c-0.581-9.328-8.622-16.429-17.943-15.838l-58.429,3.641L142.74,186.57l26.489,20.7
		l-1.483-22.346c-0.919-13.895-12.958-24.431-26.848-23.508l-41.403,2.747l0,0c-3.963,0.263-13.9,0.045-21.587,9.718
		c-3.905,4.914-5.836,11.062-5.418,17.363c0.871,13.12,6.988,105.332,7.807,117.664c-0.719,8.366,3.815,16.937,12.865,20.665
		c-16.83,0-28.385,0-45.649,0c-7.105,0-12.864,5.76-12.864,12.864c0,7.105,5.76,12.864,12.864,12.864h47.495v75.186
		c1.477-5.281,4.164-10.31,8.1-14.647l17.629-19.427v-41.112c31.801,0,15.062,0,34.896,0l17.62,7.257l-58.191,64.128
		c-7.537,8.306-6.915,21.15,1.392,28.687c8.32,7.548,21.162,6.902,28.686-1.392l77.623-85.542
		c4.446-4.899,6.227-11.657,4.773-18.111c-1.454-6.454-5.961-11.795-12.078-14.314l-79.32-32.668
		c10.05,2.087,71.624,14.87,85.467,17.744c7.856,1.631,14.498,5.985,19.114,12.014c4.633,6.051,7.121,13.694,6.626,21.665
		l29.906,55.653c-10.698,3.857-18.407,8.701-21.857,14.099l-12.833-54.689c-1.981,3.202-3.337,4.495-7.844,9.454l-25.153,27.719
		l8.91,37.969c2.563,10.919,13.489,17.693,24.411,15.132c9.112-2.139,15.316-10.108,15.637-19.031
		c12.044,11.416,43.831,19.572,81.156,19.572c47.674,0,86.321-13.304,86.321-29.715C425.998,420.361,409.95,411.086,385.796,405.818
		z M316.899,402.27c-3.529,0.332-6.971,0.735-10.304,1.212l-7.405-13.78V56.468c5.573-4.689,11.452-9.017,17.709-12.79V402.27z
		 M356.663,401.795c-5.326-0.366-10.827-0.562-16.457-0.574V33.204c5.228-1.581,10.697-2.759,16.457-3.424V401.795z"/>
	<path id="XMLID_783_" d="M119.243,144.183c21.696,0,38.736-18.321,37.309-39.828c-1.31-19.744-17.731-34.884-37.235-34.882
		c-21.706,0-38.735,18.329-37.309,39.828C83.318,129.045,99.739,144.183,119.243,144.183z"/>
</g>
<g>
</g>
<g>
</g>
<g>
</g>
<g>
</g>
<g>
</g>
<g>
</g>
<g>
</g>
<g>
</g>
<g>
</g>
<g>
</g>
<g>
</g>
<g>
</g>
<g>
</g>
<g>
</g>
<g>
</g>
</svg>
