<?xml version="1.0" encoding="iso-8859-1"?>
<!-- Generator: Adobe Illustrator 18.0.0, SVG Export Plug-In . SVG Version: 6.00 Build 0)  -->
<!DOCTYPE svg PUBLIC "-//W3C//DTD SVG 1.1//EN" "http://www.w3.org/Graphics/SVG/1.1/DTD/svg11.dtd">
<svg version="1.1" id="Capa_1" xmlns="http://www.w3.org/2000/svg" xmlns:xlink="http://www.w3.org/1999/xlink" x="0px" y="0px"
	 viewBox="0 0 460.53 460.53" style="enable-background:new 0 0 460.53 460.53;" xml:space="preserve">
<g id="XMLID_236_">
	<path id="XMLID_237_" d="M115.141,306.605v131.331c0,12.478,10.115,22.593,22.593,22.593c12.478,0,22.593-10.115,22.593-22.593
		v-96.447c-6.893-0.242-13.34-3.034-18.242-7.937L115.141,306.605z"/>
	<path id="XMLID_1075_" d="M252.486,332.125c-0.162-3.442-1.109-6.802-2.77-9.821l-20.553-37.39l-33.274,33.27l11.707,21.296
		l4.682,99.517c0.589,12.511,11.233,22.108,23.63,21.506c12.463-0.586,22.092-11.165,21.506-23.629L252.486,332.125z"/>
	<circle id="XMLID_1076_" cx="165.199" cy="39.02" r="39.02"/>
	<path id="XMLID_1092_" d="M390.749,147.001c-0.914-7.606-6.248-13.592-13.121-15.727c-1.857,5.172-4.847,10.025-8.983,14.161
		l-26.352,26.352l32.009-3.847C384.626,166.699,391.989,157.324,390.749,147.001z"/>
	<path id="XMLID_1093_" d="M354.503,131.293c0.043-0.043,0.079-0.091,0.122-0.135c7.15-7.291,7.001-18.91-0.122-26.034
		c-7.225-7.225-18.942-7.227-26.169-0.001c-20.174,20.173-13.095,13.095-36.638,36.636l-80.896-0.008
		c-1.948,0-3.78,0.806-5.076,2.102l-43.282,43.282l11.989,8.466c0.352,0.249,0.692,0.509,1.034,0.769l27.93-27.93
		c2.803-2.803,7.348-2.803,10.151,0c34.392,34.392,22.168,22.168,35.694,35.693c2.801,2.802,2.803,7.348,0,10.151l-3.704,3.703
		l-26.273-26.273c-3.211-3.211-8.416-3.211-11.627,0c-3.211,3.211-3.211,8.416,0,11.627l26.273,26.273
		c-6.165,6.164-3.805,3.805-9.496,9.495l-26.272-26.272c-2.924-2.924-7.499-3.176-10.718-0.774
		c1.958,4.935,2.885,10.298,2.564,15.874l22.798,22.798l-9.496,9.495l-17.425-17.425c-0.76,1.451-1.613,2.864-2.574,4.224
		c-2.279,3.228-5.041,6.015-8.141,8.316l16.512,16.512l-9.496,9.495l-19.872-19.872c-2.964,0.761-6.038,1.167-9.163,1.167
		c-3.868,0-7.658-0.601-11.27-1.763c-0.003,2.108,0.799,4.216,2.408,5.824l26.27,26.27l-3.704,3.704
		c-2.802,2.801-7.348,2.802-10.151-0.001l-35.688-35.693c-2.803-2.803-2.803-7.347,0-10.15l1.538-1.537l-13.045-9.212
		l-11.211,11.211c-2.803,2.803-2.803,7.347,0,10.15l57.951,57.958c2.843,2.844,7.391,2.76,10.151,0L354.503,131.293L354.503,131.293
		z"/>
	<path id="XMLID_1094_" d="M142.286,241.125c8.425,5.95,20.207,4.023,26.24-4.52l0.001-0.001c2.88-4.079,4.023-9.135,3.175-14.056
		c-0.848-4.921-3.617-9.302-7.696-12.182c-10.979-7.753-28.836-20.362-56.628-39.987c0,0,56.628,39.987,0,0
		c0.158-19.659,0.213-26.515,0.284-35.381l0-0.002c0.011-2.059,1.686-3.721,3.745-3.715c2.059,0.006,3.725,1.677,3.725,3.736v18.711
		l30.732,21.702l45.718-45.718c4.951-4.95,11.73-7.96,19.22-7.96l51.65,0.005c-24.705-25.932-36.523-31.279-46.616-31.279H114.562
		c-24.445,0-44.432,19.887-44.554,44.274c-0.122,15.205-0.242,30.127-0.363,45.173c-0.051,6.276,3.054,12.061,7.967,15.531
		C92.337,205.853,127.782,230.882,142.286,241.125z"/>
</g>
<g>
</g>
<g>
</g>
<g>
</g>
<g>
</g>
<g>
</g>
<g>
</g>
<g>
</g>
<g>
</g>
<g>
</g>
<g>
</g>
<g>
</g>
<g>
</g>
<g>
</g>
<g>
</g>
<g>
</g>
</svg>
