<?xml version="1.0" encoding="iso-8859-1"?>
<!-- Generator: Adobe Illustrator 18.0.0, SVG Export Plug-In . SVG Version: 6.00 Build 0)  -->
<!DOCTYPE svg PUBLIC "-//W3C//DTD SVG 1.1//EN" "http://www.w3.org/Graphics/SVG/1.1/DTD/svg11.dtd">
<svg version="1.1" id="Capa_1" xmlns="http://www.w3.org/2000/svg" xmlns:xlink="http://www.w3.org/1999/xlink" x="0px" y="0px"
	 viewBox="0 0 458.593 458.593" style="enable-background:new 0 0 458.593 458.593;" xml:space="preserve">
<g id="XMLID_879_">
	<path id="XMLID_880_" d="M355.394,124.597c5.293-6.111,4.629-15.358-1.482-20.651c-4.916-4.256-11.854-4.653-17.136-1.471
		l-15.648-22.69c2.47-7.333,0.875-17.042-4.932-25.46c-8.518-12.354-22.851-17.24-32.014-10.92
		c-9.165,6.321-9.686,21.453-1.168,33.805c5.807,8.42,14.316,13.368,22.048,13.663l18.089,26.229l-22.83,26.36l-36.231-16.418
		c-5.02-2.275-10.408-3.627-15.907-3.991l-74.704-4.95L132.783,91.24l2.478-41.982l27.994-10.571
		c6.524,4.161,16.337,4.943,25.905,1.329c14.039-5.299,22.227-18.038,18.293-28.452c-3.933-10.415-18.497-14.558-32.534-9.257
		c-9.569,3.613-16.417,10.684-18.561,18.12l-20.388,7.698c-1.335-6.288-6.716-11.173-13.445-11.57
		c-8.062-0.478-15.001,5.681-15.477,13.752l-0.528,8.939c-6.189,2.337-8.019,8.14-6.26,12.796c0.961,2.546,2.875,4.45,5.182,5.471
		l-2.387,40.432c-0.308,5.216,2.187,10.202,6.549,13.081l60.678,40.052l-6.397,121.345l-0.464,166.594
		c-0.03,10.781,8.685,19.544,19.466,19.574c0.019,0,0.036,0,0.055,0c10.754,0,19.489-8.704,19.519-19.466l0.458-164.398l7.776,0.459
		l31.482,80.417l-9.638,81.166c-1.271,10.706,6.376,20.414,17.082,21.685c10.671,1.274,20.412-6.352,21.686-17.082l10.216-86.026
		c0.379-3.191-0.035-6.426-1.207-9.418l-30.242-77.249l6.696-113.424l41.082,19.428c5.955,2.813,13.032,1.307,17.326-3.65
		l27.407-31.644c2.385,0.273,4.719-0.329,6.648-1.66c3.476-2.398,4.902-6.646,3.89-10.509L355.394,124.597z"/>
	<circle id="XMLID_992_" cx="218.202" cy="73.952" r="33.878"/>
</g>
<g>
</g>
<g>
</g>
<g>
</g>
<g>
</g>
<g>
</g>
<g>
</g>
<g>
</g>
<g>
</g>
<g>
</g>
<g>
</g>
<g>
</g>
<g>
</g>
<g>
</g>
<g>
</g>
<g>
</g>
</svg>
