<?xml version="1.0" encoding="iso-8859-1"?>
<!-- Generator: Adobe Illustrator 18.0.0, SVG Export Plug-In . SVG Version: 6.00 Build 0)  -->
<!DOCTYPE svg PUBLIC "-//W3C//DTD SVG 1.1//EN" "http://www.w3.org/Graphics/SVG/1.1/DTD/svg11.dtd">
<svg version="1.1" id="Capa_1" xmlns="http://www.w3.org/2000/svg" xmlns:xlink="http://www.w3.org/1999/xlink" x="0px" y="0px"
	 viewBox="0 0 452.808 452.808" style="enable-background:new 0 0 452.808 452.808;" xml:space="preserve">
<g id="XMLID_861_">
	<circle id="XMLID_941_" cx="226.287" cy="46.507" r="46.507"/>
	<g id="XMLID_240_">
		<path id="XMLID_944_" d="M195.035,389.666c11.588,23.371,11.197,22.445,12.327,25.31h37.299c1.155-2.954,0.88-2.245,12.653-25.988
			l-31.01-43.127L195.035,389.666z"/>
	</g>
	<path id="XMLID_1022_" d="M284.17,302.375l2.208-0.045h0c5.2,0,9.415-4.215,9.415-9.415c0-5.203-4.218-9.415-9.415-9.415h-8.182
		c-4.051-8.101-14.569-15.64-26.565-15.645c-0.004,0-0.009,0-0.013,0h0h-50.61c-0.005,0-0.009,0-0.013,0
		c-10.409,0.004-19.823,4.858-26.565,15.645h-8.188c-5.131,0-9.415,4.177-9.415,9.415c0,5.2,4.215,9.415,9.415,9.415h0l2.214,0.045
		c2.19,19.161,1.919,16.79,3.316,29.008l20.822,24.985l25.035-35.049c2.001-2.801,5.233-4.465,8.676-4.465
		c3.443,0,6.675,1.663,8.676,4.465l25.035,35.049l20.843-25.01C282.089,320.583,282.916,313.349,284.17,302.375z"/>
	<path id="XMLID_1023_" d="M143.717,301.59c-3.244-9.294-2.466-19.52,2.148-28.216l-31.475,7.52
		c-13.979,3.314-22.949,17.183-20.173,31.34c0.411,2.096-2.331-7.018,37.402,121.587c4.398,14.235,19.497,22.164,33.676,17.779
		c14.211-4.391,22.169-19.468,17.78-33.676C173.441,387.135,153.195,328.742,143.717,301.59z"/>
	<path id="XMLID_1025_" d="M338.417,280.894l-32.756-7.826c5.171,8.948,6.132,19.721,2.624,29.442
		c-7.093,19.658-20.584,58.294-38.551,115.415c-4.39,14.209,3.57,29.286,17.779,33.676c14.202,4.39,29.286-3.567,33.676-17.779
		c39.156-126.744,36.647-118.587,36.923-119.588C362.158,299.577,353.266,284.469,338.417,280.894z"/>
	<path id="XMLID_1029_" d="M399.549,168.208c4.868-6.032,6.277-14.148,3.729-21.469c-2.548-7.32-8.693-12.807-16.254-14.513
		l-90.241-20.358c-7.231-1.631-14.625-2.431-22.038-2.383l-97.32,0.629c-6.993,0.045-13.96,0.844-20.781,2.383l-90.861,20.497
		c-7.561,1.706-13.706,7.192-16.254,14.513c-2.548,7.319-1.138,15.437,3.729,21.469l49.925,61.871
		c7.739,9.591,21.866,11.189,31.555,3.371c3.456-2.789,5.848-6.399,7.162-10.319l87.1-19.16c2.468-0.552,4.194-2.895,3.898-5.463
		c-0.316-2.747-2.8-4.717-5.547-4.4l-87.628,10.096c-1.178-1.902,0.981,0.906-28.905-36.13l56.038-12.642v33.586l59.258-2.308
		c6.954-0.271,12.811,5.147,13.082,12.101c0.228,5.86-3.594,10.941-8.96,12.557l-63.38,19.073v31.599
		c9.049-8.711,21.242-13.784,34.15-13.784h50.61c12.884,0,25.054,5.056,34.099,13.737v-47.078l-46.172-51.498
		c-4.646-5.182-4.211-13.148,0.97-17.794c4.367-3.915,10.718-4.214,15.386-1.113l29.815,19.812v-9.711l56.272,12.695
		c-19.073,23.637-14.383,17.825-26.662,33.041l-64.333-50.164c-2-1.548-4.905-1.382-6.693,0.484
		c-1.913,1.996-1.846,5.165,0.151,7.079l66.064,63.307c1.188,4.425,3.715,8.532,7.553,11.63c9.672,7.806,23.801,6.239,31.555-3.371
		L399.549,168.208z"/>
</g>
<g>
</g>
<g>
</g>
<g>
</g>
<g>
</g>
<g>
</g>
<g>
</g>
<g>
</g>
<g>
</g>
<g>
</g>
<g>
</g>
<g>
</g>
<g>
</g>
<g>
</g>
<g>
</g>
<g>
</g>
</svg>
