<?xml version="1.0" encoding="iso-8859-1"?>
<!-- Generator: Adobe Illustrator 18.0.0, SVG Export Plug-In . SVG Version: 6.00 Build 0)  -->
<!DOCTYPE svg PUBLIC "-//W3C//DTD SVG 1.1//EN" "http://www.w3.org/Graphics/SVG/1.1/DTD/svg11.dtd">
<svg version="1.1" id="Capa_1" xmlns="http://www.w3.org/2000/svg" xmlns:xlink="http://www.w3.org/1999/xlink" x="0px" y="0px"
	 viewBox="0 0 455.1 455.1" style="enable-background:new 0 0 455.1 455.1;" xml:space="preserve">
<g id="XMLID_311_">
	<path id="XMLID_483_" d="M359.359,71.503c0.318-3.347-1.835-6.283-4.931-7.09L293.35,48.48c-2.117-0.552-4.422-0.145-6.099,1.261
		c-2.558,2.145-3.098,5.722-1.488,8.469l9.733,16.598c2.059,3.512,2.6,7.694,1.557,11.629c-2.096,7.91-2.294,17.13,0.042,26.347
		c9.439,3.417,17.37,10.487,21.691,19.895c3.827,8.331,4.425,17.527,2.106,25.973c0.513-0.35,1.029-0.698,1.533-1.055
		c0.723-0.556,1.422-1.141,2.12-1.722c1.423-1.137,2.673-2.437,3.922-3.725c4.936-5.216,8.355-11.487,10.311-17.949
		c2.173-7.164,2.301-13.254,1.515-20.046c-1.776-10.056-3.864-14.64-3.244-19.419c0.613-4.726,3.293-8.935,7.405-11.345
		l11.487-6.735C357.816,75.559,359.154,73.665,359.359,71.503z"/>
	<path id="XMLID_943_" d="M307.906,299.835c-0.699-4.788-2.872-9.241-6.217-12.738l-52.501-54.889l-7.266-22.373l-0.203,0.094
		l-13.542,6.214c-15.273,7.014-32.397,2.215-39.48-5.097c-12.901-13.315-42.117-43.471-54.436-56.186l67.822,43.217h0
		c0.004,0.003,0.008,0.005,0.012,0.007c5.663,3.496,12.576,3.75,18.302,1.121l71.913-32.997c9.706-4.454,14.031-15.969,9.539-25.747
		c-4.497-9.792-16.077-13.979-25.747-9.54c-2.53,1.162-42.527,19.534-61.03,28.032l-62.81-38.83l61.494,18.924l4.504-2.069
		l-9.12-28.083c-4.632-14.262-19.937-22.079-34.207-17.471l-46.129,14.896c-14.295,4.616-22.142,19.971-17.5,34.263l66.917,192.973
		l-46.731,87.24c-6.076,11.342-1.806,25.462,9.536,31.538c11.347,6.078,25.466,1.801,31.539-9.536l51.863-96.821
		c3.253-6.074,3.652-13.275,1.088-19.67l-20.428-50.962l15.952-5.152l41.832,43.735l17.699,121.234
		c1.859,12.733,13.689,21.548,26.42,19.688c12.732-1.859,21.547-13.688,19.688-26.42L307.906,299.835z"/>
	<path id="XMLID_945_" d="M148.325,87.354c17.401-5.619,28.332-21.971,27.859-39.369c7.141-9.404,16.836-21.478,21.555-23.283
		c17.524-5.32,31.467,40.179,37.877,59.482c2.876,8.754,5.798,17.647,8.72,26.539c1.36,4.14,2.72,8.278,4.076,12.405l19.912-9.146
		c4.396-2.019,9.033-3.167,13.812-3.423c-1.684-4.014-3.374-8.039-5.064-12.068c-3.625-8.63-7.25-17.26-10.819-25.756
		c-16.811-40.377-18.648-53.759-31.238-64.395c-13.319-11.403-34.012-11.511-46.287,2.133c-5.796,6.24-6.217,8.37-16.682,20.786
		c-8.674-17.637-29.195-26.708-48.451-20.49c-21.148,6.829-32.756,29.509-25.926,50.657
		C104.497,82.576,127.177,94.183,148.325,87.354z"/>
</g>
<g>
</g>
<g>
</g>
<g>
</g>
<g>
</g>
<g>
</g>
<g>
</g>
<g>
</g>
<g>
</g>
<g>
</g>
<g>
</g>
<g>
</g>
<g>
</g>
<g>
</g>
<g>
</g>
<g>
</g>
</svg>
