<?xml version="1.0" encoding="iso-8859-1"?>
<!-- Generator: Adobe Illustrator 18.0.0, SVG Export Plug-In . SVG Version: 6.00 Build 0)  -->
<!DOCTYPE svg PUBLIC "-//W3C//DTD SVG 1.1//EN" "http://www.w3.org/Graphics/SVG/1.1/DTD/svg11.dtd">
<svg version="1.1" id="Capa_1" xmlns="http://www.w3.org/2000/svg" xmlns:xlink="http://www.w3.org/1999/xlink" x="0px" y="0px"
	 viewBox="0 0 460.165 460.165" style="enable-background:new 0 0 460.165 460.165;" xml:space="preserve">
<g id="XMLID_307_">
	<path id="XMLID_309_" d="M396.57,227.453L366.824,167.5c-1.261-2.542-3.93-4.074-6.76-3.881c-2.831,0.193-5.267,2.072-6.172,4.761
		l-8.811,26.176c-1.465,0.483-3.141,1.083-6.306,2.654c-3.559,1.825-7.256,4.167-10.782,7.198
		c-3.512,2.973-6.833,6.632-9.772,10.866c3.767,9.717,3.797,20.877-0.824,31.101c-3.972,8.789-10.904,15.661-19.291,19.687
		c10.515,2.765,21.633,1.944,31.943-2.682c6.523-2.923,12.202-7.212,16.619-12.233c5.826-6.385,5.265-10.065,13.257-16.179
		c-0.036-0.257,6.619-4.114,7.515-4.686l20.609,6.939c2.689,0.906,5.659,0.102,7.524-2.036
		C397.437,233.045,397.831,229.994,396.57,227.453z"/>
	<path id="XMLID_1063_" d="M126.227,301.091l-2.053,24.296l-57.862,97.58c-6.937,11.699-3.077,26.807,8.623,33.745
		c11.699,6.937,26.807,3.077,33.744-8.623l57.461-96.902l-5.32-16.236L126.227,301.091z"/>
	<path id="XMLID_1064_" d="M235.315,78.964c16.724,10.087,37.606,7.304,51.147-5.478c0,0,26.088-3.248,33.565,4.229
		c7.65,7.651,10.394,15.865-7.07,44.068c-18.639,30.101-9.986,16.924-36.756,61.829l21.106,9.539
		c4.754,2.149,8.878,5.12,12.303,8.66c24.549-49.83,13.487-27.48,31.871-64.539c2.784-5.604,6.288-12.983,7.993-17.72
		c9.941-27.615,5.929-63.903-43.029-61.065c-4.267,0.247-7.619,0.453-9.933,0.489c8.052-19.152,1.054-41.813-17.263-52.86
		c-20.116-12.132-46.258-5.66-58.39,14.456C208.727,40.69,215.199,66.832,235.315,78.964z"/>
	<path id="XMLID_1065_" d="M299.441,238.26c4.67-10.332,0.074-22.488-10.249-27.154L224.5,181.868l-12.593-77.032l27.558,62.175
		l4.683,2.117l16.1-26.696c8.196-13.589,3.823-31.249-9.766-39.444l-43.878-26.463c-13.589-8.196-31.249-3.824-39.444,9.765
		c0,0-70.977,117.686-76.649,127.09l0.061-0.009c-5.292,9.587-3.637,21.693,4.321,29.484c9.743,9.536,73.017,71.469,83.077,81.316
		l37.425,117.181c5.242,16.415,19.792,21.371,31.486,17.637c12.956-4.138,20.106-17.996,15.968-30.953l-0.249-0.781
		c0,0-33.052-103.961-39.626-124.073c-1.161-3.543-3.259-7.074-6.175-9.931l-87.447-85.595l66.545,41.481l6.426-10.655l-0.002-0.001
		l-14.349-6.492c-16.867-7.623-24.182-24.942-23.318-35.027c0.715-8.34,6.396-74.648,7.06-82.394l12.57,84.077
		c1.11,6.784,5.539,12.56,11.802,15.391c81.921,37.063,76.594,34.693,77.825,35.129C284.076,252.762,295.134,247.791,299.441,238.26
		z"/>
</g>
<g>
</g>
<g>
</g>
<g>
</g>
<g>
</g>
<g>
</g>
<g>
</g>
<g>
</g>
<g>
</g>
<g>
</g>
<g>
</g>
<g>
</g>
<g>
</g>
<g>
</g>
<g>
</g>
<g>
</g>
</svg>
