<?xml version="1.0" encoding="iso-8859-1"?>
<!-- Generator: Adobe Illustrator 18.0.0, SVG Export Plug-In . SVG Version: 6.00 Build 0)  -->
<!DOCTYPE svg PUBLIC "-//W3C//DTD SVG 1.1//EN" "http://www.w3.org/Graphics/SVG/1.1/DTD/svg11.dtd">
<svg version="1.1" id="Capa_1" xmlns="http://www.w3.org/2000/svg" xmlns:xlink="http://www.w3.org/1999/xlink" x="0px" y="0px"
	 viewBox="0 0 460.884 460.884" style="enable-background:new 0 0 460.884 460.884;" xml:space="preserve">
<g id="XMLID_88_">
	<path id="XMLID_491_" d="M391.781,43.851c-0.319-5.514-5.046-9.708-10.562-9.405l-19.173,1.111
		c-1.906-4.36-5.369-8.055-10.066-10.127c-9.942-4.387-21.56,0.118-25.947,10.062l-0.974,2.208
		c-26.382,1.529-24.675,1.401-25.502,1.524c-3.728-5.509-10.162-8.985-17.285-8.572c-10.758,0.623-18.974,9.85-18.35,20.608
		c0.623,10.758,9.85,18.974,20.608,18.351c7.125-0.413,13.116-4.611,16.182-10.516c0.961,0.03-0.775,0.096,15.277-0.834
		l-15.193,34.441l-55.847,5.801c-4.402-2.98-9.711-4.722-15.427-4.722h-49.131c-8.2,0-15.558,3.586-20.605,9.27l21.834-1.978
		l-78.425,26.072c-6.254,2.08-11.051,7.15-12.781,13.509L69.78,216.518c-2.851,10.474,3.327,21.298,13.824,24.153
		c10.543,2.868,21.327-3.438,24.153-13.824l17.865-65.683l0,0l71.02-23.61L152.84,166.01c0,10.884,0,85.86,0,97.626l0.028-0.023
		c0.402,10.337,7.608,19.559,18.165,22.054l108.57,25.648l63.008,54.314c9.899,8.531,24.806,7.39,33.304-2.467
		c8.515-9.879,7.41-24.789-2.467-33.304l-67.38-58.082c-2.872-2.477-6.299-4.223-9.988-5.096l-39.007-9.215v-19.411V136.811
		l59.151-6.144c7.025-0.73,13.12-5.169,15.971-11.631l27.94-63.335l22.242-1.289C387.89,54.094,392.101,49.365,391.781,43.851z"/>
	<path id="XMLID_955_" d="M228.579,318.672l3.984,10.863l-21.778,102.838c-2.702,12.758,5.451,25.292,18.209,27.994
		c12.767,2.702,25.293-5.458,27.994-18.21l22.456-106.039l-8.677-7.48L228.579,318.672z"/>
	<circle id="XMLID_977_" cx="205.17" cy="40.784" r="40.784"/>
</g>
<g>
</g>
<g>
</g>
<g>
</g>
<g>
</g>
<g>
</g>
<g>
</g>
<g>
</g>
<g>
</g>
<g>
</g>
<g>
</g>
<g>
</g>
<g>
</g>
<g>
</g>
<g>
</g>
<g>
</g>
</svg>
