<?xml version="1.0" encoding="iso-8859-1"?>
<!-- Generator: Adobe Illustrator 18.0.0, SVG Export Plug-In . SVG Version: 6.00 Build 0)  -->
<!DOCTYPE svg PUBLIC "-//W3C//DTD SVG 1.1//EN" "http://www.w3.org/Graphics/SVG/1.1/DTD/svg11.dtd">
<svg version="1.1" id="Capa_1" xmlns="http://www.w3.org/2000/svg" xmlns:xlink="http://www.w3.org/1999/xlink" x="0px" y="0px"
	 viewBox="0 0 460.528 460.528" style="enable-background:new 0 0 460.528 460.528;" xml:space="preserve">
<g id="XMLID_241_">
	<path id="XMLID_242_" d="M239.867,225.074l-25.846,9.398c-1.084,4.451-3,8.704-5.721,12.558
		c-11.724,16.603-34.748,20.639-51.429,8.859l-16.728-11.813l0.009,193.859c0,12.478,10.115,22.593,22.593,22.593
		c12.478,0,22.593-10.115,22.593-22.593V275.774c0-2.689,2.18-4.869,4.869-4.869c2.689,0,4.869,2.18,4.869,4.869v162.162
		c0,12.478,10.115,22.593,22.593,22.593c12.478,0,22.593-10.115,22.593-22.593C240.261,237.01,239.867,225.074,239.867,225.074z"/>
	<circle id="XMLID_1009_" cx="190.21" cy="39.02" r="39.02"/>
	<path id="XMLID_1013_" d="M363.824,136.773c-4.713-9.269-16.047-12.962-25.315-8.25l-48.808,24.815
		c-1.617-7.787-3.346-16.038-4.724-22.412c-5.31-24.571-22.632-40.448-44.129-40.448c-11.011,0-89.72,0-101.275,0
		c-24.445,0-44.432,19.887-44.554,44.274c-0.122,15.205-0.242,30.127-0.363,45.173c-0.048,5.882,2.755,11.848,8.151,15.66
		c0.013,0.009,0.026,0.019,0.04,0.028l64.451,45.512c8.491,5.997,20.24,3.976,26.239-4.52c5.998-8.493,3.974-20.241-4.52-26.239
		l-56.627-39.988c0.158-19.659,0.213-26.517,0.284-35.381c0.018-3.508,2.679-6.406,6.082-6.812v-4.456
		c0-5.025,2.456-9.769,6.593-12.667c4.038-2.829,9.32-3.626,14.157-1.867l0.299,0.109c12.15,4.418-5.271-1.917,45.449,16.527
		l45.748-16.636c4.699-1.709,9.989-1.053,14.157,1.867c4.132,2.894,6.593,7.622,6.593,12.667v75.857
		c4.47,1.095,9.059,0.514,13.014-1.497l70.81-36.001C364.843,157.376,368.536,146.042,363.824,136.773z"/>
	<path id="XMLID_1014_" d="M154.219,123.73v39.938l45.222,31.934c7.624,5.384,12.825,13.275,14.778,22.344l42.067-15.297V123.73
		l-51.033,18.558L154.219,123.73z"/>
</g>
<g>
</g>
<g>
</g>
<g>
</g>
<g>
</g>
<g>
</g>
<g>
</g>
<g>
</g>
<g>
</g>
<g>
</g>
<g>
</g>
<g>
</g>
<g>
</g>
<g>
</g>
<g>
</g>
<g>
</g>
</svg>
