<?xml version="1.0" encoding="iso-8859-1"?>
<!-- Generator: Adobe Illustrator 18.0.0, SVG Export Plug-In . SVG Version: 6.00 Build 0)  -->
<!DOCTYPE svg PUBLIC "-//W3C//DTD SVG 1.1//EN" "http://www.w3.org/Graphics/SVG/1.1/DTD/svg11.dtd">
<svg version="1.1" id="Capa_1" xmlns="http://www.w3.org/2000/svg" xmlns:xlink="http://www.w3.org/1999/xlink" x="0px" y="0px"
	 viewBox="0 0 460.067 460.067" style="enable-background:new 0 0 460.067 460.067;" xml:space="preserve">
<g id="XMLID_1081_">
	<path id="XMLID_1082_" d="M236.068,51.258l0.256,0.001c10.83,0.066,20.688,4.256,28.091,11.069
		c5.592-6.599,8.971-15.134,8.971-24.461C273.387,16.953,256.433,0,235.52,0c-20.913,0-37.866,16.953-37.866,37.866
		c0,9.61,3.587,18.379,9.486,25.056C214.675,55.708,224.872,51.258,236.068,51.258z"/>
	<path id="XMLID_1269_" d="M327.647,130.824c-0.118-23.722-19.514-43.021-43.236-43.021h-6.796
		c1.685,13.148-2.856,25.848-11.72,34.797c-0.016,2.571-0.062,10.252-0.078,12.926c3.482,9.157,3.199,18.94-0.167,27.531
		l-0.174,28.837c-0.099,16.442-13.556,29.819-29.998,29.819h-0.062h-0.061l-0.061,0c-13.01-0.079-24.057-8.474-28.134-20.102
		l-20.476,9.343l0.009,227.189c0,12.109,9.816,21.925,21.925,21.925s21.925-9.816,21.925-21.925V267.628
		c0-2.614,2.119-4.733,4.733-4.733c2.614,0,4.733,2.119,4.733,4.733v170.514c0,12.109,9.816,21.925,21.925,21.925
		c12.108,0,21.925-9.816,21.925-21.925l-0.389-306.832c-0.003-2.055,1.619-3.744,3.672-3.826s3.807,1.472,3.966,3.521
		c0,0.001,0,0.002,0,0.002l0.675,134.228c0.051,10.06,8.221,18.179,18.269,18.179c0.03,0,0.063,0,0.094,0
		c10.091-0.051,18.23-8.272,18.179-18.362L327.647,130.824z"/>
	<path id="XMLID_1270_" d="M235.415,201.713c0.021,0,0.041,0,0.062,0c5.494,0,9.966-4.438,9.999-9.939l0.046-7.668l-19.924,9.091
		C226.312,197.989,230.419,201.682,235.415,201.713z"/>
	<path id="XMLID_1274_" d="M236.068,71.258c-12.031,0-21.819,9.716-21.892,21.763c-0.046,7.623,3.818,14.346,9.704,18.302
		c7.33-1.194,15.01-0.248,22.063,2.984l0.01-1.617c7.083-3.591,11.961-10.916,12.012-19.404
		c0.073-12.092-9.671-21.954-21.763-22.027C236.158,71.258,236.113,71.258,236.068,71.258z"/>
	<path id="XMLID_1281_" d="M244.958,138.563c-5.058-7.177-14.56-9.718-22.498-6.084l-44.464,20.288l6.874-25.049
		c9.118-4.25,5.009-2.357,18.403-8.468c-6.824-8.557-10.243-19.782-8.742-31.448l-22.914-0.034v0.045
		c-8.125,0.11-15.216,5.57-17.372,13.425l-12.669,46.165c-0.15,0.548-9.028,32.89-9.174,33.437
		c-4.01,14.805,11.109,27.831,25.219,21.39c38.188-17.425,23.172-10.573,80.007-36.506
		C247.925,161.026,251.647,148.046,244.958,138.563z"/>
</g>
<g>
</g>
<g>
</g>
<g>
</g>
<g>
</g>
<g>
</g>
<g>
</g>
<g>
</g>
<g>
</g>
<g>
</g>
<g>
</g>
<g>
</g>
<g>
</g>
<g>
</g>
<g>
</g>
<g>
</g>
</svg>
