<?xml version="1.0" encoding="iso-8859-1"?>
<!-- Generator: Adobe Illustrator 18.0.0, SVG Export Plug-In . SVG Version: 6.00 Build 0)  -->
<!DOCTYPE svg PUBLIC "-//W3C//DTD SVG 1.1//EN" "http://www.w3.org/Graphics/SVG/1.1/DTD/svg11.dtd">
<svg version="1.1" id="Capa_1" xmlns="http://www.w3.org/2000/svg" xmlns:xlink="http://www.w3.org/1999/xlink" x="0px" y="0px"
	 viewBox="0 0 459.476 459.476" style="enable-background:new 0 0 459.476 459.476;" xml:space="preserve">
<g id="XMLID_11_">
	<circle id="XMLID_12_" cx="234.904" cy="46.105" r="46.105"/>
	<path id="XMLID_1208_" d="M391.684,306.864h-10.766c-6.186-9.058-16.544-14.819-28.039-14.819h-56.502
		c-11.288,0-21.756,5.616-28.039,14.819h-10.766c-7.256,0-13.16,5.879-13.16,13.171v0c0,7.361,6.033,13.161,13.16,13.161h2.719
		l6.566,57.521h-74.244c0.827-7.239,5.886-51.509,6.573-57.521h2.707c7.177,0,13.171-5.849,13.171-13.162
		c0-7.441-6.098-13.171-13.171-13.171h-10.766c-6.478-9.483-17.085-14.819-28.039-14.819h-56.502
		c-11.3,0-21.739,5.593-28.039,14.819H67.781c-7.298,0-13.161,5.922-13.161,13.171c0,7.337,6.021,13.161,13.161,13.161l0,0h2.707
		l5.095,44.587l6.62,57.933c-3.517,2.593-5.37,6.612-5.37,10.597v0c0,7.263,5.887,13.161,13.171,13.161h89.675
		c7.264,0,13.161-5.898,13.161-13.161v0c0-4.822-2.869-9.057-5.37-10.596l2.876-25.173h78.773l2.874,25.174
		c-3.525,2.601-5.37,6.624-5.37,10.594v0c0,7.035,5.724,13.161,13.172,13.161h89.675c7.263,0,13.162-5.898,13.162-13.161v0
		c0-3.913-1.798-7.96-5.369-10.595l-0.001-0.001l7.146-62.549l4.567-39.973h2.708l0,0c7.263,0,13.171-5.898,13.171-13.161v0
		C404.856,312.742,398.94,306.864,391.684,306.864z"/>
	<g>
		<path d="M305.217,114.827c-6.55-6.875-15.749-7.857-24.707-8.126c-27.386-0.825-63.819-0.825-93.061,0
			c-7.255,0.205-14.779,2.154-20.769,7.151c-12.402,10.348-46.729,39.051-74.189,62.012c-12.826,10.725-14.758,29.717-4.36,42.809
			c21.436,26.989,42.716,53.785,42.779,53.864c8.852,11.206,26.087,11.422,35.07-0.235h0c5.631-7.309,6.238-17.524,1.164-25.487
			c-0.876-1.375,1.459,1.661-35.811-45.524c10.72-8.945,42.946-35.834,44.654-37.259v61.806l5.397,6.832
			c10.607,13.429,11.535,30.921,4.717,44.735c5.14,2.436,9.891,5.673,14.05,9.632c13.81,0,23.611,5.936,29.586,15.306
			c5.508-8.64,14.925-14.555,25.738-15.237c1.322-0.083,2.003-0.068,3.839-0.068c3.644-3.469,8.025-6.618,12.896-9.07
			c-8.45-16.466-5.259-37.219,9.05-50.287l12.561-11.471v-48.837c1.402,1.472,15.72,16.502,38.558,40.478
			c-24.591,22.457-26.804,24.478-37.748,34.472c-9.112,8.321-9.674,22.393-1.426,31.428c8.309,9.09,22.371,9.696,31.428,1.426
			c0.713-0.651,27.53-25.129,48.07-43.876c12.762-11.648,13.45-31.505,1.533-44.016L305.217,114.827z"/>
	</g>
</g>
<g>
</g>
<g>
</g>
<g>
</g>
<g>
</g>
<g>
</g>
<g>
</g>
<g>
</g>
<g>
</g>
<g>
</g>
<g>
</g>
<g>
</g>
<g>
</g>
<g>
</g>
<g>
</g>
<g>
</g>
</svg>
