<?xml version="1.0" encoding="iso-8859-1"?>
<!-- Generator: Adobe Illustrator 18.0.0, SVG Export Plug-In . SVG Version: 6.00 Build 0)  -->
<!DOCTYPE svg PUBLIC "-//W3C//DTD SVG 1.1//EN" "http://www.w3.org/Graphics/SVG/1.1/DTD/svg11.dtd">
<svg version="1.1" id="Capa_1" xmlns="http://www.w3.org/2000/svg" xmlns:xlink="http://www.w3.org/1999/xlink" x="0px" y="0px"
	 viewBox="0 0 460.528 460.528" style="enable-background:new 0 0 460.528 460.528;" xml:space="preserve">
<g id="XMLID_89_">
	<path id="XMLID_90_" d="M269.518,313.756c-2.645-2.645-4.71-5.74-6.154-9.087v133.266c0,12.477,10.115,22.593,22.593,22.593
		c12.478,0,22.593-10.115,22.593-22.593v-122.1C297.179,325.042,280.303,324.539,269.518,313.756z"/>
	<path id="XMLID_841_" d="M208.835,257.16l-0.393-0.328v181.104c0,12.477,10.115,22.593,22.593,22.593
		c12.478,0,22.593-10.115,22.593-22.593V294.586C218.142,264.937,227.015,272.351,208.835,257.16z"/>
	<circle id="XMLID_843_" cx="258.492" cy="39.02" r="39.02"/>
	<path id="XMLID_844_" d="M333.101,239.473l-5.449-6.521l-34.709,24.51c-17.544,12.391-41.774,8.157-54.113-9.318
		c-12.381-17.529-8.212-41.734,9.32-54.114l29.547-20.865l-5.173-6.191l1.318-1.318c3.605-3.605,3.61-9.464,0.005-13.069
		c-3.612-3.612-9.465-3.609-13.074,0l-5.344,5.344c-1.463-0.275-2.947-0.413-4.431-0.413c-6.096,0-12.19,2.324-16.841,6.975
		l-28.043,28.043c-5.783,5.783-7.968,13.798-6.561,21.271l-5.343,5.343c-3.605,3.605-3.611,9.454,0.005,13.07
		c3.605,3.605,9.459,3.605,13.065-0.001l1.318-1.318l72.499,60.577c-0.502,2.867,0.35,5.923,2.564,8.138
		c3.591,3.591,9.439,3.625,13.07-0.005l44.508-44.508c3.605-3.605,3.605-9.46,0-13.065
		C339.081,239.879,336.048,238.958,333.101,239.473z"/>
	<path id="XMLID_845_" d="M353.773,145.996L353.773,145.996l-0.09-11.186v-0.001l-0.001-0.057c0-0.015-0.002-0.03-0.003-0.045
		c-0.178-24.398-20.141-44.229-44.551-44.229c-9.988,0-75.076,0-95.293,0c-3.955,0-8.005,0.441-11.865,1.305
		c-10.916,2.443-37.261,8.426-81.024,18.87c-6.958,1.657-12.376,7.114-13.983,14.084c-1.607,6.97,0.873,14.248,6.403,18.785
		l52,42.667c8.182,6.715,20.048,5.247,26.497-2.612c6.479-7.897,5.513-19.831-2.612-26.497l-22.659-18.593l42.242-10.062v33.104
		l11.181-11.181c7.432-7.433,17.066-11.866,27.432-12.692c11.447-10.611,29.354-10.401,40.542,0.786
		c5.524,5.524,8.564,12.871,8.56,20.688c0,0.249-0.025,0.495-0.031,0.743l12.042-8.503v-16.296c0-2.059,1.666-3.73,3.725-3.735
		c2.059-0.006,3.735,1.656,3.746,3.716l0,0c0.161,20.032,0.123,15.372,0.284,35.324l-56.627,39.988
		c-8.494,5.998-10.518,17.746-4.52,26.239c6,8.497,17.749,10.516,26.239,4.52l64.444-45.507c0.02-0.013,0.038-0.027,0.058-0.041
		c5.406-3.811,8.187-9.793,8.139-15.651L353.773,145.996z"/>
</g>
<g>
</g>
<g>
</g>
<g>
</g>
<g>
</g>
<g>
</g>
<g>
</g>
<g>
</g>
<g>
</g>
<g>
</g>
<g>
</g>
<g>
</g>
<g>
</g>
<g>
</g>
<g>
</g>
<g>
</g>
</svg>
