<?xml version="1.0" encoding="iso-8859-1"?>
<!-- Generator: Adobe Illustrator 18.0.0, SVG Export Plug-In . SVG Version: 6.00 Build 0)  -->
<!DOCTYPE svg PUBLIC "-//W3C//DTD SVG 1.1//EN" "http://www.w3.org/Graphics/SVG/1.1/DTD/svg11.dtd">
<svg version="1.1" id="Capa_1" xmlns="http://www.w3.org/2000/svg" xmlns:xlink="http://www.w3.org/1999/xlink" x="0px" y="0px"
	 viewBox="0 0 458.015 458.015" style="enable-background:new 0 0 458.015 458.015;" xml:space="preserve">
<g id="XMLID_506_">
	<path id="XMLID_524_" d="M369.281,49.941L356.159,5.527c-0.803-2.719-3.026-4.773-5.801-5.36C349.834,0.056,349.298,0,348.763,0
		c-2.268,0-4.411,0.992-5.879,2.721l-11.505,13.554c-7.792,9.179-18.014,15.835-29.561,19.246l-88.525,26.154
		c-4.246-16.048-18.862-27.88-36.245-27.88c-20.708,0-37.495,16.787-37.495,37.494s16.787,37.495,37.495,37.495
		c16.914,0,31.207-11.201,35.878-26.589l15.984-4.722l0.582,1.97c2.905,9.831,11.232,16.601,20.757,18.037l10.816-16.118
		l-3.99,1.179c-5.71,1.686-11.716-1.586-13.4-7.288l-0.582-1.97l29.369-8.677c0.96-1.209,1.992-2.345,3.087-3.408
		c6.547-6.35,15.35-10.004,24.683-10.004h0.001c2.926,0,5.808,0.379,8.604,1.08c1.003,0.251,1.992,0.549,2.969,0.888
		c4.281-0.926,8.651-1.396,13.043-1.396c6.03,0,12.015,0.881,17.789,2.62l17.024,5.125c0.722,0.217,1.469,0.327,2.222,0.327
		c2.053,0,3.984-0.797,5.439-2.245C369.335,55.593,370.085,52.661,369.281,49.941z"/>
	<path id="XMLID_969_" d="M313.584,74.461c-0.639-0.699-1.34-1.355-2.101-1.96c-0.381-0.302-0.777-0.592-1.187-0.867
		c-0.467-0.313-0.946-0.594-1.43-0.859c-0.143-0.078-0.287-0.149-0.431-0.223c-0.364-0.186-0.732-0.359-1.103-0.519
		c-0.143-0.062-0.286-0.126-0.43-0.183c-0.501-0.2-1.005-0.383-1.516-0.535c-0.025-0.007-0.051-0.012-0.076-0.02
		c-0.488-0.143-0.98-0.26-1.473-0.361c-0.154-0.031-0.308-0.057-0.462-0.085c-0.388-0.069-0.778-0.124-1.168-0.167
		c-0.148-0.016-0.296-0.036-0.444-0.048c-0.51-0.043-1.02-0.072-1.53-0.072c-0.011,0-0.023,0.001-0.035,0.001
		c-0.033,0-0.067,0.003-0.1,0.003c-0.49,0.004-0.979,0.032-1.466,0.075c-0.108,0.01-0.217,0.018-0.325,0.029
		c-0.5,0.053-0.997,0.126-1.49,0.22c-0.093,0.018-0.185,0.04-0.278,0.059c-0.451,0.094-0.899,0.204-1.342,0.331
		c-0.075,0.022-0.15,0.04-0.225,0.062c-0.483,0.146-0.959,0.316-1.429,0.502c-0.106,0.042-0.211,0.086-0.317,0.13
		c-0.475,0.199-0.945,0.411-1.404,0.651c-0.018,0.009-0.034,0.02-0.052,0.029c-0.445,0.234-0.878,0.493-1.305,0.766
		c-0.095,0.061-0.19,0.12-0.284,0.183c-0.425,0.283-0.841,0.584-1.244,0.905c-0.071,0.057-0.139,0.118-0.21,0.175
		c-0.365,0.3-0.72,0.616-1.064,0.948c-0.062,0.06-0.126,0.117-0.188,0.178c-0.371,0.369-0.727,0.76-1.07,1.166
		c-0.076,0.09-0.149,0.182-0.224,0.273c-0.345,0.425-0.679,0.863-0.99,1.326l-34.87,51.964l-68.805-0.31l29.76-7.634l-57.012-0.079
		c-13.988,0-25.329,11.34-25.329,25.329v129.712l-2.706,64.678L90.06,428.03c-4.567,11.086,0.717,23.775,11.802,28.343
		c11.092,4.569,23.778-0.722,28.343-11.803l37.63-91.333c0.965-2.341,1.513-4.833,1.618-7.362
		c3.107-74.257,2.909-69.198,2.909-70.076h7.328l22.542,61.46l-20.021,94.544c-2.484,11.729,5.011,23.252,16.74,25.736
		c11.728,2.485,23.252-5.01,25.736-16.741l21.315-100.654c0.846-3.992,0.549-8.142-0.856-11.973l-20.381-55.57v-98.383
		l-40.884-9.794c0.064,0,75.995,0.343,76.059,0.343c5.919,0,11.627-2.949,15.025-8.011l40.274-60.019
		c0.29-0.431,0.558-0.871,0.806-1.317c0.247-0.446,0.474-0.899,0.68-1.357c0.412-0.917,0.743-1.855,0.993-2.807
		c1.31-4.981,0.417-10.303-2.404-14.577C314.8,75.902,314.223,75.16,313.584,74.461z"/>
</g>
<g>
</g>
<g>
</g>
<g>
</g>
<g>
</g>
<g>
</g>
<g>
</g>
<g>
</g>
<g>
</g>
<g>
</g>
<g>
</g>
<g>
</g>
<g>
</g>
<g>
</g>
<g>
</g>
<g>
</g>
</svg>
