<?xml version="1.0" encoding="iso-8859-1"?>
<!-- Generator: Adobe Illustrator 18.0.0, SVG Export Plug-In . SVG Version: 6.00 Build 0)  -->
<!DOCTYPE svg PUBLIC "-//W3C//DTD SVG 1.1//EN" "http://www.w3.org/Graphics/SVG/1.1/DTD/svg11.dtd">
<svg version="1.1" id="Capa_1" xmlns="http://www.w3.org/2000/svg" xmlns:xlink="http://www.w3.org/1999/xlink" x="0px" y="0px"
	 viewBox="0 0 460 460" style="enable-background:new 0 0 460 460;" xml:space="preserve">
<g id="XMLID_999_">
	<path id="XMLID_1000_" d="M369.278,25.629c-1.38,0-2.714,0.495-3.978,1.417c-6.296,4.59-13.627,7.333-21.387,8.038l-27.715,2.52
		v-5.469c0-5.988-4.855-10.843-10.843-10.843c-5.988,0-10.844,4.855-10.844,10.843v7.441l-11.928,1.084v-4.188
		c0-5.988-4.855-10.843-10.843-10.843c-5.988,0-10.843,4.855-10.843,10.843v6.16l-5.898,0.536
		c-9.576,0.864-17.169,8.044-18.845,17.209l-11.492-0.839c-12.192-12.019-11.749-11.642-12.549-12.275
		c0.352-2.151,0.542-4.356,0.542-6.606C212.656,18.203,194.454,0,171.999,0c-22.454,0-40.657,18.203-40.657,40.657
		c0,22.454,18.202,40.657,40.657,40.657c11.993,0,22.77-5.195,30.212-13.455l10.068,9.926c1.835,1.809,4.254,2.906,6.824,3.093
		l23.248,1.696c23.226-21.188,19.072-17.398,29.789-27.174c7.1-6.476,16.3-10.043,25.906-10.043h0.002
		c10.787,0,21.142,4.569,28.41,12.537c8.669,9.503,11.835,22.518,9.017,34.637l8.444,0.768c7.714,0.702,15.125,3.475,21.384,8.038
		c1.265,0.922,2.598,1.417,3.976,1.414c8.191,0,14.83-17.259,14.829-38.557C384.111,42.899,377.469,25.629,369.278,25.629z"/>
	<path id="XMLID_1056_" d="M284.832,69.314c-5.648,5.153-45.092,41.134-50.133,45.732c-71.217-17.868-79.609-21.546-91.463-20.71
		c-13.243,1.963-23.405,13.375-23.405,27.164v140.645l-2.935,70.14l-39.223,95.199c-4.953,12.021,0.777,25.781,12.797,30.733
		c12.016,4.952,25.78-0.774,30.733-12.797l40.804-99.036c1.046-2.539,1.64-5.241,1.755-7.983c3.37-80.525,3.154-75.037,3.155-75.987
		h7.947l24.444,66.643l-21.711,102.518c-2.694,12.719,5.433,25.213,18.152,27.907c12.72,2.693,25.215-5.435,27.907-18.152
		l23.114-109.144c0.917-4.329,0.595-8.829-0.929-12.984l-22.101-60.257v-88.104l-68.277-35.146l79.932,19.964h0
		c6.441,1.61,13.191-0.177,17.973-4.538c0.001-0.001,0.002-0.001,0.002-0.001l28.952-26.411l28.951-26.41
		c7.994-7.289,8.558-19.727,1.272-27.714C305.131,62.459,292.658,62.179,284.832,69.314z"/>
</g>
<g>
</g>
<g>
</g>
<g>
</g>
<g>
</g>
<g>
</g>
<g>
</g>
<g>
</g>
<g>
</g>
<g>
</g>
<g>
</g>
<g>
</g>
<g>
</g>
<g>
</g>
<g>
</g>
<g>
</g>
</svg>
