<?xml version="1.0" encoding="iso-8859-1"?>
<!-- Generator: Adobe Illustrator 18.0.0, SVG Export Plug-In . SVG Version: 6.00 Build 0)  -->
<!DOCTYPE svg PUBLIC "-//W3C//DTD SVG 1.1//EN" "http://www.w3.org/Graphics/SVG/1.1/DTD/svg11.dtd">
<svg version="1.1" id="Capa_1" xmlns="http://www.w3.org/2000/svg" xmlns:xlink="http://www.w3.org/1999/xlink" x="0px" y="0px"
	 viewBox="0 0 462.014 462.014" style="enable-background:new 0 0 462.014 462.014;" xml:space="preserve">
<g id="XMLID_862_">
	<circle id="XMLID_866_" cx="262.602" cy="52.4" r="36.011"/>
	<g>
		<path d="M350.215,148.899c-0.114-22.559-18.561-40.912-41.119-40.912h-73.483c-8.737,0-17.285,2.538-24.606,7.306l-40.974,26.686
			l-25.505-37.994l12.004-24.428c0.129,0.002,0.257,0.011,0.386,0.011c8.485,0,16.931-4.659,21.098-13.141l19.714-40.118
			c2.437-4.957,0.393-10.949-4.564-13.385c-4.96-2.437-10.95-0.392-13.385,4.565l-19.715,40.119
			c-0.856,1.742-2.954,2.433-4.666,1.59c-1.727-0.848-2.44-2.942-1.593-4.668l19.713-40.118c2.437-4.957,0.393-10.95-4.564-13.385
			c-4.961-2.437-10.95-0.392-13.385,4.565L135.856,45.71c-4.135,8.414-2.753,18.125,2.732,25.014l-12.055,24.532
			c-5.99,0.944-11.728,4.96-14.635,13.124c-1.375,3.861-0.805,8.154,1.48,11.556l37.316,55.587c3.35,4.989,8.842,7.693,14.442,7.693
			c3.231,0,6.5-0.901,9.413-2.783l41.606-26.878l0.009,287.609c0,15.95,17.908,27.716,34.715,16.29
			c4.431-3.013,6.987-8.111,6.987-13.469V274.502h9.002l0,169.483c0,5.358,2.556,10.456,6.987,13.469
			c16.807,11.426,34.715-0.34,34.715-16.29L308.2,149.1c-0.002-2.003,1.617-3.63,3.619-3.637c2.003-0.007,3.634,1.608,3.646,3.612
			l0.641,127.651c0.048,9.566,7.817,17.288,17.373,17.288c0.029,0,0.06,0,0.089,0c9.597-0.048,17.337-7.867,17.288-17.463
			L350.215,148.899z"/>
	</g>
</g>
<g>
</g>
<g>
</g>
<g>
</g>
<g>
</g>
<g>
</g>
<g>
</g>
<g>
</g>
<g>
</g>
<g>
</g>
<g>
</g>
<g>
</g>
<g>
</g>
<g>
</g>
<g>
</g>
<g>
</g>
</svg>
