<?xml version="1.0" encoding="iso-8859-1"?>
<!-- Generator: Adobe Illustrator 18.0.0, SVG Export Plug-In . SVG Version: 6.00 Build 0)  -->
<!DOCTYPE svg PUBLIC "-//W3C//DTD SVG 1.1//EN" "http://www.w3.org/Graphics/SVG/1.1/DTD/svg11.dtd">
<svg version="1.1" id="Capa_1" xmlns="http://www.w3.org/2000/svg" xmlns:xlink="http://www.w3.org/1999/xlink" x="0px" y="0px"
	 viewBox="0 0 460.528 460.528" style="enable-background:new 0 0 460.528 460.528;" xml:space="preserve">
<g id="XMLID_447_">
	<path id="XMLID_448_" d="M197.005,255.213c-12.669,9.527-30.185,10.06-43.473,0.676l-16.728-11.813l0.009,193.859
		c0,12.478,10.115,22.593,22.593,22.593c12.478,0,22.593-10.115,22.593-22.593V275.773c0-2.689,2.18-4.869,4.869-4.869
		c2.689,0,4.869,2.18,4.869,4.869v162.162c0,12.478,10.115,22.593,22.593,22.593c12.478,0,22.593-10.115,22.593-22.593V259.934
		C222.959,262.226,209.188,260.351,197.005,255.213z"/>
	<circle id="XMLID_1329_" cx="186.87" cy="39.02" r="39.02"/>
	<path id="XMLID_1330_" d="M331.813,147.422l-36.271,27.398c1.011,5.059,1.471,10.222,1.386,15.388l55.306-28.119
		c9.084-4.619,12.792-15.591,8.503-24.752C354.001,145.834,342.882,149.991,331.813,147.422z"/>
	<path id="XMLID_1333_" d="M366.951,81.791c-3.702-4.9-10.751-5.906-15.675-2.185l-3.381,2.554l-1.023-1.354
		c-0.026-0.034-0.055-0.062-0.082-0.096c-2.932-3.763-8.282-4.377-11.976-1.584c-3.806,2.875-4.534,8.279-1.68,12.058l1.023,1.354
		l-3.473,2.623l-1.022-1.354c-0.014-0.018-0.03-0.033-0.044-0.051c-2.883-3.76-8.272-4.454-12.014-1.63
		c-3.794,2.866-4.546,8.263-1.682,12.058l1.023,1.355l-58.192,43.957c-0.002-0.002-0.004-0.003-0.006-0.005
		c-18.163-15.531-45.231-16.841-64.961-1.961c-0.012,0.009-0.024,0.017-0.035,0.025c-10.591,7.999-17.553,19.533-19.821,32.39
		l22.172,15.656c14.003,9.891,18.98,27.676,13.352,42.891c14.87,4.668,30.379,2.374,42.827-5.314
		c22.775-14.074,30.67-42.514,19.963-65.823l58.191-43.956l1.02,1.351c2.786,3.685,8.162,4.613,12.049,1.687
		c0.003-0.002,0.006-0.003,0.008-0.005c3.693-2.791,4.605-8.188,1.682-12.057l-1.021-1.352l3.475-2.625l1.019,1.349
		c2.859,3.782,8.254,4.551,12.058,1.68c3.886-2.937,4.459-8.378,1.68-12.058l-1.018-1.349l3.38-2.553
		C369.698,93.741,370.675,86.723,366.951,81.791z M239.871,201.653c3.329,4.406,2.455,10.678-1.952,14.007
		c-4.409,3.33-10.678,2.454-14.007-1.952c-8.131-10.763-14.764-19.544-22.96-30.394c-3.329-4.406-2.455-10.678,1.952-14.007
		c4.407-3.328,10.678-2.455,14.007,1.952C222.336,178.441,234.325,194.311,239.871,201.653z"/>
	<path id="XMLID_1334_" d="M190.197,236.605c5.998-8.493,3.974-20.241-4.52-26.239l-56.628-39.988
		c0.134-16.554,0.15-18.546,0.285-35.324c0-0.003,0-0.006,0-0.009l0-0.048c0-0.001,0-0.001,0-0.002
		c0.011-2.059,1.686-3.721,3.745-3.716c2.059,0.006,3.725,1.677,3.725,3.736v18.712l19.59,13.834
		c9.191-29.676,36.827-50.496,68.598-50.496c11.55,0.001,22.848,2.771,32.962,7.971l16.582-12.525
		c-8.223-13.792-21.541-22.033-37.028-22.033c-55.411,0-52.253,0-101.274,0c-24.445,0-44.433,19.887-44.554,44.273l-0.363,45.174
		c-0.052,6.524,3.428,12.513,8.192,15.689l64.449,45.511C172.447,247.121,184.197,245.102,190.197,236.605z"/>
</g>
<g>
</g>
<g>
</g>
<g>
</g>
<g>
</g>
<g>
</g>
<g>
</g>
<g>
</g>
<g>
</g>
<g>
</g>
<g>
</g>
<g>
</g>
<g>
</g>
<g>
</g>
<g>
</g>
<g>
</g>
</svg>
