<?xml version="1.0" encoding="iso-8859-1"?>
<!-- Generator: Adobe Illustrator 18.0.0, SVG Export Plug-In . SVG Version: 6.00 Build 0)  -->
<!DOCTYPE svg PUBLIC "-//W3C//DTD SVG 1.1//EN" "http://www.w3.org/Graphics/SVG/1.1/DTD/svg11.dtd">
<svg version="1.1" id="Capa_1" xmlns="http://www.w3.org/2000/svg" xmlns:xlink="http://www.w3.org/1999/xlink" x="0px" y="0px"
	 viewBox="0 0 459.105 459.105" style="enable-background:new 0 0 459.105 459.105;" xml:space="preserve">
<g id="XMLID_824_">
	<path id="XMLID_848_" d="M336.892,95.91c-4.483,0-8.827-1.1-12.679-3.095l-21.831,11.309c-0.02,15.351-6.13,29.282-16.975,38.202
		c0.026,6.89-2.006,13.49-5.632,19.063c2.384,0.881,4.727,1.908,8.452,1.908c5.048,0,9.985-2.078,13.538-5.928l50.059-54.255
		c3.985-4.32,5.496-10.032,4.631-15.417C351.241,93.011,344.156,95.91,336.892,95.91z"/>
	<path id="XMLID_868_" d="M193.106,190.891c-30.975,6.911-22.522,5.025-30.25,6.75c-11.642,2.598-23.201-3.342-28.16-13.647
		l-17.524-36.395l0.009,289.409c0,12.204,9.893,22.098,22.098,22.098s22.098-9.893,22.098-22.098c0-21.523,0-145.685,0-171.865
		c0-1.263,0.502-2.475,1.395-3.368c0.893-0.893,2.105-1.395,3.368-1.395c2.639,0,4.777,2.139,4.777,4.778v171.851
		c0,12.204,9.893,22.098,22.098,22.098s22.098-9.893,22.098-22.098l-0.77-245.507C207.852,192.38,200.11,192.534,193.106,190.891z"
		/>
	<path id="XMLID_869_" d="M361.67,39.147c-3.3-4.781-7.984-4.812-13.177-2.122l-2.008-3.877c-1.86-3.589-6.297-4.945-9.819-3.118
		c-3.574,1.852-4.967,6.249-3.118,9.82l2.008,3.877c-1.495,0.774-0.887,0.46-2.587,1.34c-1.898-3.665-2.404-5.14-4.25-6.454
		c-2.016,4.431-15.163,33.324-17.363,38.161l17.053-8.834l1.025,1.979c0.822,1.586,2.452,5.833,7.457,5.833
		c1.094,0,2.255-0.254,3.345-0.818c3.574-1.851,4.967-6.249,3.118-9.82l-2.008-3.876l2.587-1.34l2.008,3.877
		c1.823,3.516,6.2,4.992,9.82,3.118l0,0h0c3.572-1.851,4.968-6.247,3.118-9.819l-2.008-3.877l1.509-0.782
		C363.181,49.927,364.847,43.745,361.67,39.147z"/>
	<path id="XMLID_987_" d="M159.876,99.845c-1.733,4.589-2.749,9.67-2.836,15.47l12.222,9.642l59.803-13.344
		c0.001-0.001,22.08-48.528,22.081-48.53c-17.959-3.568-23.965,10.254-27.663,13.621c-10.53,15.253-28.123,25.273-48.019,25.273
		C170.065,101.978,164.842,101.225,159.876,99.845z"/>
	<circle id="XMLID_994_" cx="175.465" cy="43.655" r="38.165"/>
	<path id="XMLID_995_" d="M312.656,0.908C311.302,0.292,309.884,0,308.488,0c-3.829,0-7.49,2.194-9.18,5.907l-46.331,101.827
		c6.951,0.466,13.51,3.015,18.889,7.157l45.789-100.636C319.96,9.189,317.722,3.213,312.656,0.908z"/>
	<path id="XMLID_997_" d="M246.627,124.455l-77.612,17.318l-31.059-38.742c1.032-3.876,2.698-9.462,3.703-11.896
		c-3.004-2.145-5.795-4.566-8.339-7.229c0,0-13.241,0.088-20.061,0.583c-5.574,0.293-10.861,3.103-14.178,7.893
		c-4.637,6.697-4.323,15.645,0.773,22.001l47.605,59.379c3.538,4.413,8.851,6.897,14.367,6.897c2.894,0-3.54,1.242,92.823-20.26
		c9.926-2.215,16.177-12.057,13.962-21.983C266.395,128.491,256.551,122.237,246.627,124.455z"/>
</g>
<g>
</g>
<g>
</g>
<g>
</g>
<g>
</g>
<g>
</g>
<g>
</g>
<g>
</g>
<g>
</g>
<g>
</g>
<g>
</g>
<g>
</g>
<g>
</g>
<g>
</g>
<g>
</g>
<g>
</g>
</svg>
