<?xml version="1.0" encoding="iso-8859-1"?>
<!-- Generator: Adobe Illustrator 19.0.0, SVG Export Plug-In . SVG Version: 6.00 Build 0)  -->
<svg version="1.1" id="Capa_1" xmlns="http://www.w3.org/2000/svg" xmlns:xlink="http://www.w3.org/1999/xlink" x="0px" y="0px"
	 viewBox="0 0 512 512" style="enable-background:new 0 0 512 512;" xml:space="preserve">
<g>
	<g>
		<path d="M279.708,32.399c-6.899-1.5-14.399-2.399-21.899-2.399c-52.8,0-96.599,39.3-103.801,90h103.801
			c23.699,0,46.199-11.4,60.3-30.601c6.599-8.699,10.8-18.9,12.9-29.399C317.208,46.199,299.509,36.599,279.708,32.399z"/>
	</g>
</g>
<g>
	<g>
		<path d="M360.408,113.099c-1.5-8.099-4.199-15.599-7.8-22.798c-2.699,5.999-6.299,11.4-10.199,16.8
			c-19.801,26.999-51.301,42.9-84.6,42.9h-105v47c0,17.1,3.9,32.999,11.4,47.1c0,0.298,0,0.298,0,0.298
			c4.799,9.6,11.1,18.301,18.6,25.801c0.601,0.599,1.199,1.199,1.8,1.8c18.9,18.6,44.7,30,73.2,30s54.6-11.4,73.5-30.3
			c0.3-0.3,0.599-0.601,0.899-0.901c5.7-5.7,10.801-11.999,14.7-18.9h0.3c9.901-15.899,15.401-34.8,15.401-54.899v-62
			C362.609,127.5,361.908,120,360.408,113.099z"/>
	</g>
</g>
<g>
	<g>
		<path d="M257.808,332c-25.799,0-50.099-7.2-70.499-20.101c2.098,6.901,5.4,13.2,9.598,19.2C211.009,350.3,233.809,362,257.809,362
			c22.8,0,44.099-10.201,58.5-27.9c5.4-6.901,9.6-14.401,12.299-22.5C308.208,324.8,283.908,332,257.808,332z"/>
	</g>
</g>
<g>
	<g>
		<path d="M348.11,2.1c-1.8-0.601-3.9-0.901-5.7-0.901c-3.3-0.3-6.301-1.199-9.6-1.199c-10.499,0-20.7,2.699-29.399,8.099
			c9,3.001,17.699,7.202,25.499,12.301v0.3h-0.001c12.9,7.8,24.3,17.699,33.6,29.399c9.6,11.7,17.1,24.901,22.2,39.3
			c5.4-8.699,8.101-18.9,8.101-29.399C392.81,32.399,373.91,9,348.11,2.1z"/>
	</g>
</g>
<g>
	<g>
		<path d="M384.1,318.5l-25.8-6.301c-3.6,14.7-10.501,28.5-20.101,40.501C318.1,377.599,288.4,392,256.3,392
			c-33.6,0-65.4-16.201-84.901-43.5c-8.099-11.1-13.799-23.401-16.8-36.601l-26.4,6.601c-39,9.901-63.3,48.3-55.499,87.599
			l18.9,93.9c1.5,6.9,7.5,12.001,14.7,12.001h299.399c7.2,0,13.5-5.101,14.7-12.001l18.9-93.9
			C447.1,366.799,422.801,328.4,384.1,318.5z M361.3,452h-30c-8.291,0-15-6.709-15-15c0-8.291,6.709-15,15-15h30
			c8.291,0,15,6.709,15,15C376.3,445.291,369.591,452,361.3,452z"/>
	</g>
</g>
<g>
</g>
<g>
</g>
<g>
</g>
<g>
</g>
<g>
</g>
<g>
</g>
<g>
</g>
<g>
</g>
<g>
</g>
<g>
</g>
<g>
</g>
<g>
</g>
<g>
</g>
<g>
</g>
<g>
</g>
</svg>
