<?xml version="1.0" encoding="iso-8859-1"?>
<!-- Generator: Adobe Illustrator 19.0.0, SVG Export Plug-In . SVG Version: 6.00 Build 0)  -->
<svg version="1.1" id="Capa_1" xmlns="http://www.w3.org/2000/svg" xmlns:xlink="http://www.w3.org/1999/xlink" x="0px" y="0px"
	 viewBox="0 0 512 512" style="enable-background:new 0 0 512 512;" xml:space="preserve">
<g>
	<g>
		<path d="M105,165.853H15c-8.291,0-15,6.709-15,15v270c0,8.291,6.709,15,15,15h90c24.814,0,45-20.186,45-45v-210
			C150,186.038,129.814,165.853,105,165.853z M75,405.853c-8.284,0-15-6.716-15-15c0-8.286,6.716-15,15-15s15,6.714,15,15
			C90,399.136,83.284,405.853,75,405.853z"/>
	</g>
</g>
<g>
	<g>
		<path d="M512,240.853c0-24.814-20.186-45-45-45H353.621c26.572-47.241,33.018-89.868,17.402-119.414
			c-10.02-18.97-28.652-30.293-49.746-30.293c-0.117,0-0.234,0-0.381,0c-32.344,0-37.793,25.093-42.188,45.278
			c-6.006,27.524-14.15,64.995-71.309,104.429H180v240.575l9.932,2.78c46.641,13.096,96.863,26.646,146.873,26.646H407
			c24.814,0,45-20.186,45-45c0-5.845-1.113-11.44-3.164-16.582c19.102-5.2,33.164-22.705,33.164-43.418
			c0-5.845-1.113-11.44-3.164-16.582c19.102-5.2,33.164-22.705,33.164-43.418c0-11.514-4.336-22.031-11.484-30
			C507.664,262.884,512,252.366,512,240.853z"/>
	</g>
</g>
<g>
</g>
<g>
</g>
<g>
</g>
<g>
</g>
<g>
</g>
<g>
</g>
<g>
</g>
<g>
</g>
<g>
</g>
<g>
</g>
<g>
</g>
<g>
</g>
<g>
</g>
<g>
</g>
<g>
</g>
</svg>
