<?xml version="1.0" encoding="iso-8859-1"?>
<!-- Generator: Adobe Illustrator 19.0.0, SVG Export Plug-In . SVG Version: 6.00 Build 0)  -->
<svg version="1.1" id="Capa_1" xmlns="http://www.w3.org/2000/svg" xmlns:xlink="http://www.w3.org/1999/xlink" x="0px" y="0px"
	 viewBox="0 0 512 512" style="enable-background:new 0 0 512 512;" xml:space="preserve">
<g>
	<g>
		<path d="M346.353,264.899c-10.201,9.6-21.601,17.1-34.201,22.8L275.253,343.2l23.399,23.399l60-90L346.353,264.899z"/>
	</g>
</g>
<g>
	<g>
		<path d="M351.051,60.3c-16.755,35.035-52.764,59.7-94.799,59.7h-105v45c0.001,46.695,30.675,84.933,68.7,98.399h0.3
			c21.685,8.561,50.316,8.561,72.001,0h0.3c30.085-9.018,68.699-47.681,68.699-98.399v-60
			C361.252,89.099,357.652,73.799,351.051,60.3z"/>
	</g>
</g>
<g>
	<g>
		<path d="M256.054,0c-52.8,0-96.599,39.3-103.801,90h103.801c35.224,0,66.104-24.575,73.5-59.7C310.654,11.4,284.554,0,256.054,0z"
			/>
	</g>
</g>
<g>
	<g>
		<path d="M221.53,400.499c-6.09,6.773-17.041,5.978-23.098-2.1l-71.1-106.5l-40.201,11.7c-24.3,8.101-38.699,33.9-32.401,57.9
			l26.4,138.5c1.5,6.899,7.8,12.001,14.7,12.001c0.601,0,1.201,0,1.8-0.3c0.3,0.3,0.3,0.3,0.601,0.3h142.8V381.299L221.53,400.499z"
			/>
	</g>
</g>
<g>
	<g>
		<path d="M424.552,303.3l-39.6-11.4l-71.1,106.5c-6.36,8.483-17.444,8.388-23.099,2.1l-19.501-19.2V512h144.901
			c7.202,0,13.2-5.101,14.702-12.001l26.396-137.601C463.55,337.5,449.451,311.7,424.552,303.3z M376.253,450h-30
			c-19.872,0-19.872-30,0-30h30C396.125,420,396.125,450,376.253,450z"/>
	</g>
</g>
<g>
	<g>
		<path d="M200.354,287.699c-12.6-5.7-24-13.2-34.201-22.5l-11.999,11.7l59.7,89.7l23.399-23.399L200.354,287.699z"/>
	</g>
</g>
<g>
	<g>
		<path d="M267.954,299.399c-3.9,0.301-8.1,0.601-12.001,0.601c-3.9,0-8.101-0.3-12.001-0.601h-0.298l12.299,18.6l12.299-18.6
			H267.954z"/>
	</g>
</g>
<g>
</g>
<g>
</g>
<g>
</g>
<g>
</g>
<g>
</g>
<g>
</g>
<g>
</g>
<g>
</g>
<g>
</g>
<g>
</g>
<g>
</g>
<g>
</g>
<g>
</g>
<g>
</g>
<g>
</g>
</svg>
