<?xml version="1.0" encoding="iso-8859-1"?>
<!-- Generator: Adobe Illustrator 19.0.0, SVG Export Plug-In . SVG Version: 6.00 Build 0)  -->
<svg version="1.1" id="Capa_1" xmlns="http://www.w3.org/2000/svg" xmlns:xlink="http://www.w3.org/1999/xlink" x="0px" y="0px"
	 viewBox="0 0 512 512" style="enable-background:new 0 0 512 512;" xml:space="preserve">
<g>
	<g>
		<path d="M295.699,104.09c-24.3,17.999-55.699,29.1-85.699,31.799v211.499c38.889,3.276,57.411,14.961,86,32.1l36,27.001v-329.4
			L295.699,104.09z"/>
	</g>
</g>
<g>
	<g>
		<path d="M75,136.49c-41.4,0-75,33.6-75,75v60c0,41.4,33.6,75,75,75h105v-210H75z M135,286.49H75c-8.291,0-15-6.709-15-15
			c0-8.291,6.709-15,15-15h60c8.291,0,15,6.709,15,15C150,279.781,143.291,286.49,135,286.49z M135,226.49H75
			c-8.291,0-15-6.709-15-15s6.709-15,15-15h60c8.291,0,15,6.709,15,15S143.291,226.49,135,226.49z"/>
	</g>
</g>
<g>
	<g>
		<path d="M393.5,18.889c-8.351,1.393-20.943,11.535-22.5,16.201c-6.084,7.302-8.8,17.21-8.8,26.4
			c0,4.928-0.409,213.394,0.023,314.407L362,375.49v53.96c0,0.269,0.112,0.526,0.308,0.709c0.197,0.184,0.461,0.277,0.729,0.259
			c0.416,2.12,1.367,4.213,2.162,6.072v0.899C384.038,484.428,452,470.92,452,421.49v-360C452,26.382,412.78,7.33,393.5,18.889z"/>
	</g>
</g>
<g>
	<g>
		<path d="M90,376.49v75c0,24.899,20.1,45,45,45s45-20.101,45-45v-75H90z"/>
	</g>
</g>
<g>
	<g>
		<path d="M482,181.79v119.4c18.3-13.2,30-35.1,30-59.7S500.3,194.991,482,181.79z"/>
	</g>
</g>
<g>
</g>
<g>
</g>
<g>
</g>
<g>
</g>
<g>
</g>
<g>
</g>
<g>
</g>
<g>
</g>
<g>
</g>
<g>
</g>
<g>
</g>
<g>
</g>
<g>
</g>
<g>
</g>
<g>
</g>
</svg>
