<?xml version="1.0" encoding="iso-8859-1"?>
<!-- Generator: Adobe Illustrator 19.0.0, SVG Export Plug-In . SVG Version: 6.00 Build 0)  -->
<svg version="1.1" id="Capa_1" xmlns="http://www.w3.org/2000/svg" xmlns:xlink="http://www.w3.org/1999/xlink" x="0px" y="0px"
	 viewBox="0 0 512 512" style="enable-background:new 0 0 512 512;" xml:space="preserve">
<g>
	<g>
		<g>
			<path d="M375.999,45c0-24.901-20.099-45-45-45h-270c-24.901,0-45,20.099-45,45v15h360V45z"/>
			<path d="M135.999,317V165c0-41.189,33.293-75,75-75h-195v302h195C169.619,392,135.999,358.972,135.999,317z"/>
			<path d="M165.999,165v152c0,6.899,1.5,13.5,4.501,19.2l94.199-96.2l-94.199-94.2C167.499,151.5,165.999,158.099,165.999,165z"/>
			<path d="M191.799,124.499L320.501,253.2c5.7,5.7,15.298,5.7,20.998,0l128.701-128.701c-5.701-2.999-12.301-4.499-19.2-4.499h-240
				C204.1,120,197.499,121.5,191.799,124.499z"/>
			<path d="M491.499,145.8L397.301,240l94.199,96.2c2.999-5.7,4.501-12.301,4.501-19.2V165
				C495.999,158.099,494.499,151.5,491.499,145.8z"/>
			<path d="M15.999,467c0,24.899,20.099,45,45,45h270c24.901,0,45-20.101,45-45v-45h-360V467z"/>
			<path d="M362.799,274.499c-17.203,17.207-46.397,17.207-63.6,0l-13.2-13.2l-94.2,96.2c5.7,3.001,12.301,4.501,19.2,4.501h240
				c6.899,0,13.499-1.5,19.2-4.501l-94.2-96.2L362.799,274.499z"/>
		</g>
	</g>
</g>
<g>
</g>
<g>
</g>
<g>
</g>
<g>
</g>
<g>
</g>
<g>
</g>
<g>
</g>
<g>
</g>
<g>
</g>
<g>
</g>
<g>
</g>
<g>
</g>
<g>
</g>
<g>
</g>
<g>
</g>
</svg>
