<?xml version="1.0" encoding="iso-8859-1"?>
<!-- Generator: Adobe Illustrator 19.0.0, SVG Export Plug-In . SVG Version: 6.00 Build 0)  -->
<svg version="1.1" id="Capa_1" xmlns="http://www.w3.org/2000/svg" xmlns:xlink="http://www.w3.org/1999/xlink" x="0px" y="0px"
	 viewBox="0 0 512 512" style="enable-background:new 0 0 512 512;" xml:space="preserve">
<g>
	<g>
		<path d="M46.48,340.669c-21.637-53.366-22.834-113.016,0-169.336c7.507-18.382-20.417-29.635-27.773-11.28
			c-24.935,61.483-24.95,130.376,0,191.895C26.121,370.39,54.026,359.145,46.48,340.669z"/>
	</g>
</g>
<g>
	<g>
		<path d="M493.293,160.053c-7.329-18.322-35.296-7.139-27.773,11.279c21.637,53.366,22.834,113.016,0,169.336
			c-7.515,18.401,20.39,29.646,27.773,11.279C518.228,290.465,518.243,221.571,493.293,160.053z"/>
	</g>
</g>
<g>
	<g>
		<path d="M437.659,182.611c-7.523-18.453-35.215-6.998-27.832,11.25c16.118,39.881,16.628,83.133,0,124.277
			c-7.445,18.401,20.349,29.635,27.832,11.25C456.305,283.177,457.006,230.558,437.659,182.611z"/>
	</g>
</g>
<g>
	<g>
		<path d="M102.173,318.138c-16.118-39.881-16.628-83.133,0-124.277c7.398-18.285-20.325-29.666-27.832-11.25
			c-18.646,46.211-19.347,98.83,0,146.777C81.84,347.811,109.664,336.652,102.173,318.138z"/>
	</g>
</g>
<g>
	<g>
		<path d="M120.015,391v15c0,24.814,20.186,45,45,45h181.969c24.814,0,45-20.186,45-45v-15H120.015z"/>
	</g>
</g>
<g>
	<g>
		<rect x="120.02" y="151" width="271.97" height="210"/>
	</g>
</g>
<g>
	<g>
		<path d="M346.985,61h-181.97c-24.814,0-45,20.186-45,45v15h271.969v-15C391.985,81.186,371.799,61,346.985,61z"/>
	</g>
</g>
<g>
</g>
<g>
</g>
<g>
</g>
<g>
</g>
<g>
</g>
<g>
</g>
<g>
</g>
<g>
</g>
<g>
</g>
<g>
</g>
<g>
</g>
<g>
</g>
<g>
</g>
<g>
</g>
<g>
</g>
</svg>
