<?xml version="1.0" encoding="iso-8859-1"?>
<!-- Generator: Adobe Illustrator 19.0.0, SVG Export Plug-In . SVG Version: 6.00 Build 0)  -->
<svg version="1.1" id="Capa_1" xmlns="http://www.w3.org/2000/svg" xmlns:xlink="http://www.w3.org/1999/xlink" x="0px" y="0px"
	 viewBox="0 0 512 512" style="enable-background:new 0 0 512 512;" xml:space="preserve">
<g>
	<g>
		<path d="M257,90c-90.967,0-167,74.019-167,165s76.033,167,167,167s165-76.019,165-167S347.967,90,257,90z M225,300
			c8.291,0,15,6.709,15,15c0,8.291-6.709,15-15,15h-60c-8.291,0-15-6.709-15-15c0-38.159,22.031-50.186,38.145-58.96
			C202.236,248.35,210,244.116,210,225c0-8.276-6.738-15-15-15c-8.262,0-15,6.724-15,15c0,8.291-6.709,15-15,15s-15-6.709-15-15
			c0-24.814,20.186-45,45-45c24.814,0,45,20.186,45,45c0,36.914-21.68,48.735-37.5,57.363c-9.961,5.449-16.876,9.214-20.186,17.637
			H225z M377,270h-15v45c0,8.291-6.709,15-15,15c-8.291,0-15-6.709-15-15v-45h-45c-8.291,0-15-6.709-15-15v-60
			c0-8.291,6.709-15,15-15c8.291,0,15,6.709,15,15v45h30v-45c0-8.291,6.709-15,15-15c8.291,0,15,6.709,15,15v45h15
			c8.291,0,15,6.709,15,15S385.291,270,377,270z"/>
	</g>
</g>
<g>
	<g>
		<path d="M467,60c-8.291,0-15,6.709-15,15v16.465C403.973,34.418,332.782,0,257,0C116.404,0,0,114.39,0,255c0,8.291,6.709,15,15,15
			s15-6.709,15-15C30,130.928,132.928,30,257,30c70.968,0,137.578,33.975,179.799,90H407c-8.291,0-15,6.709-15,15s6.709,15,15,15h60
			c8.291,0,15-6.709,15-15V75C482,66.709,475.291,60,467,60z"/>
	</g>
</g>
<g>
	<g>
		<path d="M497,240c-8.291,0-14.8,6.709-14.8,15c0,124.072-101.128,227-225.2,227c-70.968,0-139.578-33.975-181.799-90H105
			c8.291,0,15-6.709,15-15c0-8.291-6.709-15-15-15H45c-8.291,0-15,6.709-15,15v60c0,8.291,6.709,15,15,15s15-6.709,15-15v-16.465
			C108.027,477.582,181.218,512,257,512c140.596,0,255-116.39,255-257C512,246.709,505.291,240,497,240z"/>
	</g>
</g>
<g>
</g>
<g>
</g>
<g>
</g>
<g>
</g>
<g>
</g>
<g>
</g>
<g>
</g>
<g>
</g>
<g>
</g>
<g>
</g>
<g>
</g>
<g>
</g>
<g>
</g>
<g>
</g>
<g>
</g>
</svg>
