<?xml version="1.0" encoding="iso-8859-1"?>
<!-- Generator: Adobe Illustrator 19.0.0, SVG Export Plug-In . SVG Version: 6.00 Build 0)  -->
<svg version="1.1" id="Capa_1" xmlns="http://www.w3.org/2000/svg" xmlns:xlink="http://www.w3.org/1999/xlink" x="0px" y="0px"
	 viewBox="0 0 512 512" style="enable-background:new 0 0 512 512;" xml:space="preserve">
<g>
	<g>
		<path d="M271.717,253.967c-0.56-7.769-6.895-13.967-14.791-13.967c-8.262,0-15,6.724-15,15s6.738,15,15,15
			c7.595,0,13.65-5.771,14.619-13.12C271.519,255.899,271.536,254.946,271.717,253.967z"/>
	</g>
</g>
<g>
	<g>
		<path d="M361.926,0h-272c-24.853,0-44.8,20.147-44.8,45v15h29.8c59.506,0,59.507,90,0,90h-29.8v60h29.8c24.901,0,45,20.099,45,45
			c0,24.899-20.099,45-45,45h-29.8v62h29.8c59.506,0,59.507,90,0,90h-29.8v15c0,24.853,19.947,45,44.8,45h272
			c33.137,0,60-26.863,60-60V60C421.926,26.863,395.063,0,361.926,0z M324.891,299.298c-14.708,2.586-28.203-2.169-37.976-10.993
			C278.937,295.496,268.487,300,256.926,300c-24.814,0-45-20.186-45-45c0-24.814,20.186-45,45-45c24.814,0,45,20.186,45,45
			c0,8.276,6.738,15,15,15c8.262,0,15-6.724,15-15c0-47.356-44.107-84.607-93.427-72.793c-24.737,5.926-45.516,25.219-53.017,49.524
			c-10.492,33.998,2.928,68.416,31.102,86.476c22.266,14.238,49.834,15.586,75.703,3.706c7.441-3.472,16.436-0.19,19.893,7.354
			c3.457,7.529,0.176,16.436-7.354,19.893c-15.762,7.251-32.08,10.854-48.047,10.854c-19.863,0-39.17-5.537-56.367-16.553
			c-41.188-26.398-59.878-77.856-41.282-127.579c10.884-29.104,35.752-52.073,65.505-61.033
			c69.071-20.801,132.682,28.135,137.052,93.027C363.291,271.7,348.408,295.163,324.891,299.298z"/>
	</g>
</g>
<g>
	<g>
		<path d="M74.926,392h-60c-19.765,0-19.846,30,0,30h60C94.691,422,94.772,392,74.926,392z"/>
	</g>
</g>
<g>
	<g>
		<path d="M74.926,240h-60c-19.765,0-19.846,30,0,30h60C94.691,270,94.772,240,74.926,240z"/>
	</g>
</g>
<g>
	<g>
		<path d="M74.926,90h-60c-19.765,0-19.846,30,0,30h60C94.691,120,94.772,90,74.926,90z"/>
	</g>
</g>
<g>
	<g>
		<path d="M466.926,60h-14.8v60h59.8v-15C511.926,80.099,491.827,60,466.926,60z"/>
	</g>
</g>
<g>
	<g>
		<rect x="452.129" y="150" width="59.8" height="60"/>
	</g>
</g>
<g>
	<g>
		<rect x="452.129" y="240" width="59.8" height="62"/>
	</g>
</g>
<g>
	<g>
		<path d="M452.126,332v60h14.8c24.9,0,45-20.101,45-45v-15H452.126z"/>
	</g>
</g>
<g>
</g>
<g>
</g>
<g>
</g>
<g>
</g>
<g>
</g>
<g>
</g>
<g>
</g>
<g>
</g>
<g>
</g>
<g>
</g>
<g>
</g>
<g>
</g>
<g>
</g>
<g>
</g>
<g>
</g>
</svg>
