<?xml version="1.0" encoding="iso-8859-1"?>
<!-- Generator: Adobe Illustrator 19.0.0, SVG Export Plug-In . SVG Version: 6.00 Build 0)  -->
<svg version="1.1" id="Capa_1" xmlns="http://www.w3.org/2000/svg" xmlns:xlink="http://www.w3.org/1999/xlink" x="0px" y="0px"
	 viewBox="0 0 512 512" style="enable-background:new 0 0 512 512;" xml:space="preserve">
<g>
	<g>
		<path d="M178.654,100.461c6.861,5.982,11.891,13.918,14.143,23.027c15.216-1.95,30.298-3.177,46.043-3.651V32.062
			C216.23,39.626,195.077,63.834,178.654,100.461z"/>
	</g>
</g>
<g>
	<g>
		<path d="M211.384,390.77c-14.899-1.293-29.271-3.208-43.055-5.733c16.395,50.041,41.533,85.684,70.511,95.037v-60.077
			C225.481,415.232,215.539,404.404,211.384,390.77z"/>
	</g>
</g>
<g>
	<g>
		<path d="M149.24,119.24c-8.262,0-15,6.724-15,15s6.738,15,15,15c8.262,0,15-6.724,15-15S157.502,119.24,149.24,119.24z"/>
	</g>
</g>
<g>
	<g>
		<path d="M189.417,154.096c-6.399,12.887-18.691,22.213-33.409,24.459c-3.395,19.556-5.385,43.364-6.05,64.205h88.882v-92.925
			C221.892,150.379,205.624,151.741,189.417,154.096z"/>
	</g>
</g>
<g>
	<g>
		<path d="M149.606,273.16c0.92,28.218,4.38,54.737,9.908,79.399c16.721,3.752,34.508,6.542,53.102,8.232
			c4.83-11.803,14.161-20.967,26.224-25.269V273.16H149.606z"/>
	</g>
</g>
<g>
	<g>
		<path d="M377.822,242.772c-0.022,0.003-0.04,0.015-0.062,0.017c-0.059,0.002-0.114,0.004-0.172,0.005
			c-8.179,0.099-14.828,6.749-14.828,14.965c0,8.245,6.691,14.93,14.91,14.982c0.033,0.002,0.057-0.013,0.09-0.011
			c0.022,0.002,0.04,0.015,0.062,0.016c8.232-0.037,14.938-6.733,14.938-14.987C392.76,249.505,386.055,242.808,377.822,242.772z"/>
	</g>
</g>
<g>
	<g>
		<path d="M269.24,0v0.872c45.897,9.149,88.01,59.798,108.258,133.734c73.226,20.198,124.466,62.11,133.685,108.154H512
			C504.462,114.136,397.853,7.538,269.24,0z"/>
	</g>
</g>
<g>
	<g>
		<path d="M385.033,168.331c2.521,13.781,4.431,28.154,5.722,43.05c13.641,4.152,24.476,18.014,29.242,31.379h60.075
			C470.717,213.787,435.076,184.728,385.033,168.331z"/>
	</g>
</g>
<g>
	<g>
		<path d="M419.997,273.16c-4.766,13.365-15.601,23.307-29.242,27.46c-1.289,14.888-3.199,29.255-5.718,43.03
			c50.169-16.517,85.676-41.796,95.048-70.49H419.997z"/>
	</g>
</g>
<g>
	<g>
		<path d="M134.608,377.498C60.672,357.239,10.023,318.65,0.872,272.76H0C7.538,401.384,110.627,504.462,239.24,512v-0.817
			C193.196,501.964,154.807,450.722,134.608,377.498z"/>
	</g>
</g>
<g>
	<g>
		<path d="M122.287,170.05c-48.543,16.928-81.281,45.713-90.28,72.71h87.953c0.685-22.767,2.854-48.476,6.588-69.885
			C125.07,172.003,123.653,171.081,122.287,170.05z"/>
	</g>
</g>
<g>
	<g>
		<path d="M119.629,273.16H31.915c9.373,28.696,44.885,53.979,95.058,70.493C122.871,321.364,120.363,298.009,119.629,273.16z"/>
	</g>
</g>
<g>
	<g>
		<path d="M0,242.76h1.016c7.762-38.632,45.388-76.282,104.462-98.429c-0.753-3.256-1.238-6.61-1.238-10.091
			c0-24.814,20.186-45,45-45c0.538,0,1.04,0.141,1.575,0.159c22.22-50.184,53.476-81.608,88.425-88.566V0
			C110.627,7.538,7.538,114.136,0,242.76z"/>
	</g>
</g>
<g>
	<g>
		<path d="M511.128,272.76c-9.148,45.873-59.76,84.454-133.652,104.718c-20.255,73.89-62.355,124.504-108.236,133.651V512
			C397.853,504.462,504.462,401.384,512,272.76H511.128z"/>
	</g>
</g>
<g>
	<g>
		<path d="M269.24,31.915v87.713c24.849,0.734,52.123,3.243,74.413,7.344C327.142,76.796,297.938,41.288,269.24,31.915z"/>
	</g>
</g>
<g>
	<g>
		<path d="M352.556,159.516c-24.662-5.528-55.099-8.989-83.315-9.908v93.152h66.283c4.298-12.058,13.457-25.309,25.255-30.14
			C359.091,194.024,356.306,176.237,352.556,159.516z"/>
	</g>
</g>
<g>
	<g>
		<path d="M297.096,390.77c-4.155,13.634-14.496,24.463-27.856,29.227v60.088c28.695-9.373,57.899-44.874,74.409-95.043
			C329.872,387.565,311.986,389.477,297.096,390.77z"/>
	</g>
</g>
<g>
	<g>
		<path d="M269.224,377.679c-0.048-8.236-6.751-14.919-14.984-14.919c-8.233,0-14.936,6.683-14.984,14.919
			c-0.002,0.033,0.015,0.062,0.013,0.095c-0.002,0.02-0.013,0.037-0.015,0.057c0.04,8.24,6.749,14.929,14.985,14.929
			s14.945-6.689,14.985-14.929c-0.002-0.02-0.013-0.037-0.015-0.057C269.209,377.742,269.225,377.712,269.224,377.679z"/>
	</g>
</g>
<g>
	<g>
		<path d="M335.523,273.16H269.24v62.363c12.063,4.301,21.793,13.466,26.624,25.269c18.615-1.692,39.941-4.486,56.677-8.245
			c3.757-16.74,6.548-34.547,8.238-53.167C348.982,294.55,339.823,285.218,335.523,273.16z"/>
	</g>
</g>
<g>
</g>
<g>
</g>
<g>
</g>
<g>
</g>
<g>
</g>
<g>
</g>
<g>
</g>
<g>
</g>
<g>
</g>
<g>
</g>
<g>
</g>
<g>
</g>
<g>
</g>
<g>
</g>
<g>
</g>
</svg>
