<?xml version="1.0" encoding="iso-8859-1"?>
<!-- Generator: Adobe Illustrator 19.0.0, SVG Export Plug-In . SVG Version: 6.00 Build 0)  -->
<svg version="1.1" id="Capa_1" xmlns="http://www.w3.org/2000/svg" xmlns:xlink="http://www.w3.org/1999/xlink" x="0px" y="0px"
	 viewBox="0 0 512 512" style="enable-background:new 0 0 512 512;" xml:space="preserve">
<g>
	<g>
		<path d="M76,422v45c0,24.814,20.186,45,45,45h270c24.814,0,45-20.186,45-45v-45H76z"/>
	</g>
</g>
<g>
	<g>
		<path d="M76,90v302h360V90H76z M166,270c-16.553,0-30-13.462-30-30c0-16.538,13.447-30,30-30s30,13.462,30,30
			C196,256.538,182.553,270,166,270z M256,270c-16.553,0-30-13.462-30-30c0-16.538,13.447-30,30-30s30,13.462,30,30
			C286,256.538,272.553,270,256,270z M346,270c-16.553,0-30-13.462-30-30c0-16.538,13.447-30,30-30c16.553,0,30,13.462,30,30
			C376,256.538,362.553,270,346,270z"/>
	</g>
</g>
<g>
	<g>
		<path d="M391,0H121C96.186,0,76,20.186,76,45v15h360V45C436,20.186,415.814,0,391,0z"/>
	</g>
</g>
<g>
</g>
<g>
</g>
<g>
</g>
<g>
</g>
<g>
</g>
<g>
</g>
<g>
</g>
<g>
</g>
<g>
</g>
<g>
</g>
<g>
</g>
<g>
</g>
<g>
</g>
<g>
</g>
<g>
</g>
</svg>
