<?xml version="1.0" encoding="iso-8859-1"?>
<!-- Generator: Adobe Illustrator 19.0.0, SVG Export Plug-In . SVG Version: 6.00 Build 0)  -->
<svg version="1.1" id="Capa_1" xmlns="http://www.w3.org/2000/svg" xmlns:xlink="http://www.w3.org/1999/xlink" x="0px" y="0px"
	 viewBox="0 0 512 512" style="enable-background:new 0 0 512 512;" xml:space="preserve">
<g>
	<g>
		<path d="M391,59.86h-15v-45c0-19.773-30-19.854-30,0v45H121c-24.814,0-45,20.186-45,45V467c0,24.814,20.186,45,45,45h270
			c24.814,0,45-20.186,45-45V104.86C436,80.046,415.814,59.86,391,59.86z M181,452h-30c-19.773,0-19.854-30,0-30h30
			C200.773,422,200.854,452,181,452z M181,392h-30c-19.773,0-19.854-30,0-30h30C200.773,362,200.854,392,181,392z M181,332h-30
			c-19.773,0-19.854-30,0-30h30C200.773,302,200.854,332,181,332z M271,452h-30c-19.773,0-19.854-30,0-30h30
			C290.773,422,290.854,452,271,452z M271,392h-30c-19.773,0-19.854-30,0-30h30C290.773,362,290.854,392,271,392z M271,332h-30
			c-19.773,0-19.854-30,0-30h30C290.773,302,290.854,332,271,332z M361,452h-30c-19.773,0-19.854-30,0-30h30
			C380.773,422,380.854,452,361,452z M361,392h-30c-19.773,0-19.854-30,0-30h30C380.773,362,380.854,392,361,392z M361,332h-30
			c-19.773,0-19.854-30,0-30h30C380.773,302,380.854,332,361,332z M376,257c0,8.291-6.709,15-15,15H151c-8.291,0-15-6.709-15-15
			V134.86c0-8.291,6.709-15,15-15h210c8.291,0,15,6.709,15,15V257z"/>
	</g>
</g>
<g>
	<g>
		<rect x="166" y="150.72" width="180" height="92.14"/>
	</g>
</g>
<g>
</g>
<g>
</g>
<g>
</g>
<g>
</g>
<g>
</g>
<g>
</g>
<g>
</g>
<g>
</g>
<g>
</g>
<g>
</g>
<g>
</g>
<g>
</g>
<g>
</g>
<g>
</g>
<g>
</g>
</svg>
