<?xml version="1.0" encoding="iso-8859-1"?>
<!-- Generator: Adobe Illustrator 19.0.0, SVG Export Plug-In . SVG Version: 6.00 Build 0)  -->
<svg version="1.1" id="Capa_1" xmlns="http://www.w3.org/2000/svg" xmlns:xlink="http://www.w3.org/1999/xlink" x="0px" y="0px"
	 viewBox="0 0 512 512" style="enable-background:new 0 0 512 512;" xml:space="preserve">
<g>
	<g>
		<path d="M9.434,92.079C3.721,94.364,0,99.872,0,106.01v360c0,10.676,10.829,17.842,20.566,13.931L150,428.168V35.853L9.434,92.079
			z M93.985,306.532l-4.746,14.224c-6.351,18.918-34.741,9.369-28.477-9.492l4.746-14.224
			C71.866,278.28,100.227,287.733,93.985,306.532z M125.537,232.718c-5.449,5.771-9.902,12.51-13.242,20.024
			c-8.228,18.178-35.499,5.91-27.422-12.245c4.746-10.576,11.074-20.112,18.809-28.345
			C117.363,197.7,139.07,218.349,125.537,232.718z"/>
	</g>
</g>
<g>
	<g>
		<path d="M308.797,275.668c7.267,3.239,15.088,5.235,23.203,5.947V85.2L180,35.205v145.398c5.733,0.092,11.501,0.52,17.197,1.564
			c19.385,3.556,14.161,33.179-5.449,29.502c-3.865-0.716-7.831-0.769-11.748-1.042v216.187l152,50.001V311.348
			c-6.146,0.501-21.453-2.059-35.391-8.258C278.487,295.012,290.663,267.617,308.797,275.668z M245.808,252.582
			c-2.988-6.533-6.68-12.378-11.104-17.549c-12.966-15.152,10.054-34.485,22.794-19.482c6.24,7.295,11.455,15.498,15.527,24.404
			C284.294,263.119,257.27,276.151,245.808,252.582z"/>
	</g>
</g>
<g>
	<g>
		<path d="M491.434,32.079L362,83.856v392.305l140.566-56.221c5.713-2.285,9.434-7.793,9.434-13.931v-360
			C512,35.188,500.939,28.149,491.434,32.079z M419.598,272.489c-6.973,9.111-15.41,16.89-25.049,23.115
			c-16.839,10.867-32.771-14.555-16.289-25.195c6.768-4.365,12.656-9.8,17.549-16.172
			C407.63,238.649,431.752,256.625,419.598,272.489z M451.033,201.283l-5.273,14.048c-6.98,18.628-35.118,8.141-28.066-10.547
			l5.273-14.048C429.893,172.198,458.049,182.692,451.033,201.283z"/>
	</g>
</g>
<g>
</g>
<g>
</g>
<g>
</g>
<g>
</g>
<g>
</g>
<g>
</g>
<g>
</g>
<g>
</g>
<g>
</g>
<g>
</g>
<g>
</g>
<g>
</g>
<g>
</g>
<g>
</g>
<g>
</g>
</svg>
