<?xml version="1.0" encoding="iso-8859-1"?>
<!-- Generator: Adobe Illustrator 19.0.0, SVG Export Plug-In . SVG Version: 6.00 Build 0)  -->
<svg version="1.1" id="Capa_1" xmlns="http://www.w3.org/2000/svg" xmlns:xlink="http://www.w3.org/1999/xlink" x="0px" y="0px"
	 viewBox="0 0 512 512" style="enable-background:new 0 0 512 512;" xml:space="preserve">
<g>
	<g>
		<path d="M47.065,465.07c-5.859-5.859-15.352-5.859-21.211,0L4.643,486.281c-14.211,14.211,7.47,34.952,21.211,21.211
			l21.211-21.211C52.924,480.422,52.924,470.929,47.065,465.07z"/>
	</g>
</g>
<g>
	<g>
		<path d="M89.487,401.423l-21.211,21.226c-14.211,14.211,7.47,34.952,21.211,21.211l21.211-21.226
			C124.643,408.688,103.547,387.363,89.487,401.423z"/>
	</g>
</g>
<g>
	<g>
		<path d="M28.144,126.449c-11.649,3.197-14.983,18.286-5.596,26.045l139.027,114.532L491.798,0L28.144,126.449z"/>
	</g>
</g>
<g>
	<g>
		<path d="M245.397,350.865l114.534,138.997c7.738,9.435,22.887,6.088,26.045-5.596L512,22.24
			C508.111,25.384,248.541,346.976,245.397,350.865z"/>
	</g>
</g>
<g>
	<g>
		<path d="M154.829,311.067l-13.775,41.32c-3.923,11.834,7.495,22.935,18.984,18.97l41.364-13.786l196.615-243.133L154.829,311.067z
			"/>
	</g>
</g>
<g>
</g>
<g>
</g>
<g>
</g>
<g>
</g>
<g>
</g>
<g>
</g>
<g>
</g>
<g>
</g>
<g>
</g>
<g>
</g>
<g>
</g>
<g>
</g>
<g>
</g>
<g>
</g>
<g>
</g>
</svg>
