<?xml version="1.0" encoding="iso-8859-1"?>
<!-- Generator: Adobe Illustrator 19.0.0, SVG Export Plug-In . SVG Version: 6.00 Build 0)  -->
<svg version="1.1" id="Capa_1" xmlns="http://www.w3.org/2000/svg" xmlns:xlink="http://www.w3.org/1999/xlink" x="0px" y="0px"
	 viewBox="0 0 512 512" style="enable-background:new 0 0 512 512;" xml:space="preserve">
<g>
	<g>
		<path d="M362,150v15c0,24.899,20.099,45,45,45h60c24.901,0,45-20.101,45-45v-15H362z"/>
	</g>
</g>
<g>
	<g>
		<path d="M0,150v15c0,24.899,20.099,45,45,45h60c24.901,0,45-20.101,45-45v-15H0z"/>
	</g>
</g>
<g>
	<g>
		<path d="M377,0H135C65.7,0,8.401,52.5,0.901,120h510.198C503.599,52.5,446.3,0,377,0z"/>
	</g>
</g>
<g>
	<g>
		<path d="M287,150h-62c-19.501,0-36.301,12.599-42.299,30h146.598C323.3,162.599,306.501,150,287,150z"/>
	</g>
</g>
<g>
	<g>
		<path d="M257,302c-32.999,0-60,26.999-60,60c0,32.999,27.001,60,60,60c32.999,0,60-27.001,60-60C317,328.999,289.999,302,257,302z
			 M257,392c-16.5,0-30-13.5-30-30s13.5-30,30-30s30,13.5,30,30S273.5,392,257,392z"/>
	</g>
</g>
<g>
	<g>
		<path d="M476.3,420.2l-76.8-186.501c-0.3-0.601-0.601-1.199-0.901-1.8C390.5,218.399,375.801,210,359.9,210H152.1
			c-17.528,0-29.902,8.995-39.3,23.099c0,0.3-0.3,0.3-0.3,0.601L35.7,420.2c-3.9,9-5.7,18.9-5.7,28.799V467
			c0,24.899,20.099,45,45,45h362c24.901,0,45-20.101,45-45v-18.001C482,439.1,480.2,429.2,476.3,420.2z M257,452
			c-49.501,0-90-40.501-90-90c0-49.501,40.499-90,90-90c49.501,0,90,40.499,90,90C347,411.499,306.501,452,257,452z"/>
	</g>
</g>
<g>
</g>
<g>
</g>
<g>
</g>
<g>
</g>
<g>
</g>
<g>
</g>
<g>
</g>
<g>
</g>
<g>
</g>
<g>
</g>
<g>
</g>
<g>
</g>
<g>
</g>
<g>
</g>
<g>
</g>
</svg>
