<?xml version="1.0" encoding="iso-8859-1"?>
<!-- Generator: Adobe Illustrator 19.0.0, SVG Export Plug-In . SVG Version: 6.00 Build 0)  -->
<svg version="1.1" id="Capa_1" xmlns="http://www.w3.org/2000/svg" xmlns:xlink="http://www.w3.org/1999/xlink" x="0px" y="0px"
	 viewBox="0 0 512 512" style="enable-background:new 0 0 512 512;" xml:space="preserve">
<g>
	<g>
		<path d="M74.938,240h-60c-19.837,0-19.837,30,0,30h60C94.703,270,94.784,240,74.938,240z"/>
	</g>
</g>
<g>
	<g>
		<path d="M74.938,392h-60c-19.837,0-19.837,30,0,30h60C94.703,422,94.784,392,74.938,392z"/>
	</g>
</g>
<g>
	<g>
		<path d="M317.138,180c8.262,0,14.8-6.724,14.8-15v-30c0-8.276-6.539-15-14.8-15c-41.367,0-75,33.647-75,75v122
			c0,41.353,33.633,75,75,75c8.262,0,14.8-6.724,14.8-15v-30c0-8.276-6.538-15-14.8-15c-24.814,0-45-20.186-45-45v-62
			C272.138,200.186,292.324,180,317.138,180z"/>
	</g>
</g>
<g>
	<g>
		<path d="M466.938,60h-14.8v60h59.8v-15C511.938,80.099,491.838,60,466.938,60z"/>
	</g>
</g>
<g>
	<g>
		<rect x="452.139" y="150" width="59.8" height="60"/>
	</g>
</g>
<g>
	<g>
		<path d="M452.138,332v60h14.8c24.901,0,45-20.101,45-45v-15H452.138z"/>
	</g>
</g>
<g>
	<g>
		<rect x="452.139" y="240" width="59.8" height="62"/>
	</g>
</g>
<g>
	<g>
		<path d="M74.938,90h-60c-19.837,0-19.837,30,0,30h60C94.703,120,94.784,90,74.938,90z"/>
	</g>
</g>
<g>
	<g>
		<path d="M361.938,0h-272c-24.853,0-44.8,20.147-44.8,45v15h29.8c59.506,0,59.507,90,0,90h-29.8v60h29.8c59.506,0,59.507,90,0,90
			h-29.8v62h29.8c59.506,0,59.507,90,0,90h-29.8v15c0,24.853,19.947,45,44.8,45h272c33.137,0,60-26.863,60-60V60
			C421.938,26.863,395.075,0,361.938,0z M362.338,375.79c0,26.073-22.09,46.85-48.154,46.176
			C257.552,420.499,211.938,373.979,211.938,317V195c0-56.979,45.614-103.499,102.246-104.964
			c26.064-0.674,47.954,20.103,47.954,46.176V165c0,24.688-19.961,44.659-44.568,44.995c-8.545,0.116-15.432,6.346-15.432,14.892
			v56.35c0,14.424,6.886,20.653,15.431,20.769c24.608,0.335,44.769,20.305,44.769,44.995V375.79z"/>
	</g>
</g>
<g>
</g>
<g>
</g>
<g>
</g>
<g>
</g>
<g>
</g>
<g>
</g>
<g>
</g>
<g>
</g>
<g>
</g>
<g>
</g>
<g>
</g>
<g>
</g>
<g>
</g>
<g>
</g>
<g>
</g>
</svg>
