<?xml version="1.0" encoding="iso-8859-1"?>
<!-- Generator: Adobe Illustrator 19.0.0, SVG Export Plug-In . SVG Version: 6.00 Build 0)  -->
<svg version="1.1" id="Capa_1" xmlns="http://www.w3.org/2000/svg" xmlns:xlink="http://www.w3.org/1999/xlink" x="0px" y="0px"
	 viewBox="0 0 512.001 512.001" style="enable-background:new 0 0 512.001 512.001;" xml:space="preserve">
<g>
	<g>
		<path d="M510.11,300.808c-3.945-31.539-25.205-62.083-58.801-78.301v-0.298c-0.3,0-0.3-0.3-0.601-0.3
			c-13.198-6.301-28.499-9.901-44.099-9.901c-67.662,0-134.243,77.055-88.5,162.001c32.507,55.942,16.766,28.782,75.601,130.499
			c5.991,9.99,19.809,9.99,25.8,0l79.801-137.999C513.06,341.043,513.777,308.119,510.11,300.808z M406.61,362.007
			c-24.901,0-45-20.099-45-45s20.099-45,45-45s45,20.099,45,45S431.51,362.007,406.61,362.007z"/>
	</g>
</g>
<g>
	<g>
		<path d="M406.61,302.007c-8.401,0-15,6.599-15,15s6.599,15,15,15s15-6.599,15-15S415.01,302.007,406.61,302.007z"/>
	</g>
</g>
<g>
	<g>
		<path d="M0,226.807h89.8C89.8,109.113,141.616,12.713,210,0.63V0C92.928,7.775,0,107.798,0,226.807z"/>
	</g>
</g>
<g>
	<g>
		<path d="M91.28,257.007H2.239C16.328,362.024,102.958,444.139,210,451.247v-0.63C147.554,439.583,99.223,360.309,91.28,257.007z"
			/>
	</g>
</g>
<g>
	<g>
		<path d="M120,226.807h90V31.569C159.893,45.584,120,130.559,120,226.807z"/>
	</g>
</g>
<g>
	<g>
		<path d="M285.982,257.007H240v162.671c17.479-4.889,35.22-18.294,48.93-37.516C268.423,339.97,267.535,294.464,285.982,257.007z"
			/>
	</g>
</g>
<g>
	<g>
		<path d="M240,31.569v195.238h66.286c7.244-8.045,15.352-14.954,24.236-21.005C325.14,118.977,286.348,44.533,240,31.569z"/>
	</g>
</g>
<g>
	<g>
		<path d="M121.436,257.007c7.255,82.921,43.766,150.141,88.564,162.671V257.007H121.436z"/>
	</g>
</g>
<g>
	<g>
		<path d="M240,0v0.63c61.159,10.807,110.398,89.843,119.802,190.016c14.821-5.497,30.602-8.639,46.807-8.639
			c14.203,0,28.217,2.847,41.624,7.269C431.014,88.017,344.403,6.932,240,0z"/>
	</g>
</g>
<g>
	<g>
		<path d="M406.61,302.007c-8.262,0-15,6.724-15,15s6.738,15,15,15c8.262,0,15-6.724,15-15S414.872,302.007,406.61,302.007z"/>
	</g>
</g>
<g>
	<g>
		<path d="M304.959,411.142C286.8,432.45,263.621,446.445,240,450.617v0.63c26.814-1.78,53.954-8.275,77.388-18.651L304.959,411.142
			z"/>
	</g>
</g>
<g>
</g>
<g>
</g>
<g>
</g>
<g>
</g>
<g>
</g>
<g>
</g>
<g>
</g>
<g>
</g>
<g>
</g>
<g>
</g>
<g>
</g>
<g>
</g>
<g>
</g>
<g>
</g>
<g>
</g>
</svg>
