<?xml version="1.0" encoding="iso-8859-1"?>
<!-- Generator: Adobe Illustrator 19.0.0, SVG Export Plug-In . SVG Version: 6.00 Build 0)  -->
<svg version="1.1" id="Capa_1" xmlns="http://www.w3.org/2000/svg" xmlns:xlink="http://www.w3.org/1999/xlink" x="0px" y="0px"
	 viewBox="0 0 512.001 512.001" style="enable-background:new 0 0 512.001 512.001;" xml:space="preserve">
<g>
	<g>
		<path d="M392,141.301l-13.2,13.2c-17.203,17.203-46.397,17.203-63.6,0l-13.2-13.2L207.8,235.5c5.7,3,12.301,4.5,19.2,4.5h240
			c6.94,0,13.523-1.658,18.6-4.2c0.3,0,0.3-0.3,0.601-0.3L392,141.301z"/>
	</g>
</g>
<g>
	<g>
		<path d="M186.5,25.8c-3,5.7-4.5,12.301-4.5,19.2v150c0,6.899,1.5,13.5,4.501,19.2l94.198-94.2L186.5,25.8z"/>
	</g>
</g>
<g>
	<g>
		<path d="M467,0H227c-6.899,0-13.5,1.5-19.2,4.501l128.701,128.699c5.7,5.7,15.298,5.7,20.998,0L486.2,4.501
			C480.5,1.5,473.899,0,467,0z"/>
	</g>
</g>
<g>
	<g>
		<path d="M497,392H332v15c0,8.401-6.599,15-15,15H195c-8.401,0-15-6.599-15-15v-15H15c-8.401,0-15,6.599-15,15v30
			c0,41.4,33.6,75,75,75h362c41.4,0,75-33.6,75-75v-30C512,398.599,505.401,392,497,392z"/>
	</g>
</g>
<g>
	<g>
		<path d="M467,270H227c-41.913,0-75-33.568-75-75v-75H75c-24.901,0-45,20.099-45,45v197h165c8.401,0,15,6.599,15,15v15h92v-15
			c0-8.401,6.599-15,15-15h165v-93.5C477.201,269.399,472.099,270,467,270z"/>
	</g>
</g>
<g>
	<g>
		<path d="M507.499,25.8L413.301,120l94.199,94.2c1.265-1.265,4.501-10.18,4.501-19.2V45C512,38.102,510.5,31.5,507.499,25.8z"/>
	</g>
</g>
<g>
</g>
<g>
</g>
<g>
</g>
<g>
</g>
<g>
</g>
<g>
</g>
<g>
</g>
<g>
</g>
<g>
</g>
<g>
</g>
<g>
</g>
<g>
</g>
<g>
</g>
<g>
</g>
<g>
</g>
</svg>
