<?xml version="1.0" encoding="iso-8859-1"?>
<!-- Generator: Adobe Illustrator 19.0.0, SVG Export Plug-In . SVG Version: 6.00 Build 0)  -->
<svg version="1.1" id="Capa_1" xmlns="http://www.w3.org/2000/svg" xmlns:xlink="http://www.w3.org/1999/xlink" x="0px" y="0px"
	 viewBox="0 0 512 512" style="enable-background:new 0 0 512 512;" xml:space="preserve">
<g>
	<g>
		<path d="M239.801,1.104C180.7,8.904,136,61.704,136,124.403v130.501c0,59.509-90,59.502-90,0v-240c0-19.872-30-19.872-30,0v240
			c0,99.049,150,99.184,150,0V124.403c0-47.699,33.3-87.9,77.701-93.6c15.298-2.1,30.298-0.3,44.099,5.102c13.801-3.9,28.2-6,43.2-6
			h3.9C309.401,7.405,275.2-3.695,239.801,1.104z"/>
	</g>
</g>
<g>
	<g>
		<path d="M346,149.904c-8.276,0-15,6.724-15,15v30c0,8.276,6.724,15,15,15s15-6.724,15-15v-30
			C361,156.628,354.276,149.904,346,149.904z"/>
	</g>
</g>
<g>
	<g>
		<path d="M361,59.904v62.763c17.422,6.213,30,22.707,30,42.237v30c0,19.53-12.578,36.024-30,42.237v31.91
			c74.432-4.122,129.423-37.961,134.095-83.084C490.391,115.79,432.34,59.904,361,59.904z"/>
	</g>
</g>
<g>
	<g>
		<path d="M196,248.029v126.875C196,449.303,256.601,512,331,512h30c74.399,0,135-62.697,135-137.096V248.03
			C426.842,317.308,265.215,317.367,196,248.029z"/>
	</g>
</g>
<g>
	<g>
		<path d="M331,122.667V59.904c-2.701,0-5.4,0-8.101,0.3c0.3,0.298,0.3,0.298,0.601,0.599c-30.901,1.8-59.099,13.801-81.301,32.701
			c0,0.3,0,0.3-0.298,0.3c-8.602,7.736-15.534,15.052-24.302,28.2c0,0,0,0,0,0.299c-12.382,17.042-19.148,40.795-20.709,63.571
			c4.605,45.172,59.625,79.052,134.11,83.177v-31.91c-17.422-6.213-30-22.707-30-42.237v-30C301,145.374,313.578,128.88,331,122.667
			z"/>
	</g>
</g>
<g>
</g>
<g>
</g>
<g>
</g>
<g>
</g>
<g>
</g>
<g>
</g>
<g>
</g>
<g>
</g>
<g>
</g>
<g>
</g>
<g>
</g>
<g>
</g>
<g>
</g>
<g>
</g>
<g>
</g>
</svg>
