<?xml version="1.0" encoding="iso-8859-1"?>
<!-- Generator: Adobe Illustrator 19.0.0, SVG Export Plug-In . SVG Version: 6.00 Build 0)  -->
<svg version="1.1" id="Capa_1" xmlns="http://www.w3.org/2000/svg" xmlns:xlink="http://www.w3.org/1999/xlink" x="0px" y="0px"
	 viewBox="0 0 512 512" style="enable-background:new 0 0 512 512;" xml:space="preserve">
<g>
	<g>
		<path d="M473.275,377.783l-63.633-63.647c-16.978-16.978-46.641-17.007-63.647,0l-10.613,10.613l127.28,127.28l10.613-10.613
			C490.893,423.798,490.835,395.314,473.275,377.783z"/>
	</g>
</g>
<g>
	<g>
		<path d="M197.503,102.012L133.87,38.365c-16.978-16.992-46.641-16.992-63.647,0L59.61,48.978l127.28,127.28l10.613-10.613
			C215.122,148.027,215.063,119.543,197.503,102.012z"/>
	</g>
</g>
<g>
	<g>
		<path d="M313.583,345.372c-13.391,10.38-32.492,9.943-44.727-2.305L168.572,242.784c-12.261-12.261-12.675-31.37-2.307-44.729
			L39.276,71.066c-54.63,63.68-52.493,159.631,7.802,219.926l173.569,173.569c57.849,57.848,152.629,65.537,219.926,7.802
			L313.583,345.372z"/>
	</g>
</g>
<g>
	<g>
		<path d="M467,0H287c-24.814,0-45,20.186-45,45v120c0,24.814,20.186,45,45,45h15v45c0,13.376,16.225,19.986,25.605,10.605
			L383.211,210H467c24.814,0,45-20.186,45-45V45C512,20.186,491.814,0,467,0z M377,150h-60c-19.774,0-19.854-30,0-30h60
			C396.774,120,396.854,150,377,150z M437,90H317c-19.774,0-19.854-30,0-30h120C456.774,60,456.854,90,437,90z"/>
	</g>
</g>
<g>
</g>
<g>
</g>
<g>
</g>
<g>
</g>
<g>
</g>
<g>
</g>
<g>
</g>
<g>
</g>
<g>
</g>
<g>
</g>
<g>
</g>
<g>
</g>
<g>
</g>
<g>
</g>
<g>
</g>
</svg>
