<?xml version="1.0" encoding="iso-8859-1"?>
<!-- Generator: Adobe Illustrator 19.0.0, SVG Export Plug-In . SVG Version: 6.00 Build 0)  -->
<svg version="1.1" id="Capa_1" xmlns="http://www.w3.org/2000/svg" xmlns:xlink="http://www.w3.org/1999/xlink" x="0px" y="0px"
	 viewBox="0 0 512 512" style="enable-background:new 0 0 512 512;" xml:space="preserve">
<g>
	<g>
		<path d="M467,180H45c-27.209,0-45,21.958-45,45v122c0,24.898,20.099,45,45,45h45v-60H75c-19.872,0-19.872-30,0-30h362
			c19.872,0,19.872,30,0,30h-15v60h45c24.901,0,45-20.102,45-45V225C512,198.926,490.714,180,467,180z M135,270H75
			c-8.291,0-15-6.709-15-15c0-8.291,6.709-15,15-15h60c8.291,0,15,6.709,15,15S143.291,270,135,270z"/>
	</g>
</g>
<g>
	<g>
		<path d="M120,332v165c0,8.284,6.716,15,15,15h242c8.284,0,15-6.716,15-15V332H120z M347,452H165c-19.872,0-19.872-30,0-30h182
			C366.872,422,366.872,452,347,452z M347,392H165c-19.872,0-19.872-30,0-30h182C366.872,362,366.872,392,347,392z"/>
	</g>
</g>
<g>
	<g>
		<path d="M378.816,55.606l-42.422-42.422C327.898,4.688,316.59,0,304.578,0H302v90h30h30h30v-2.578
			C392,75.41,387.312,64.102,378.816,55.606z"/>
	</g>
</g>
<g>
	<g>
		<path d="M362,120h-30h-45c-8.284,0-15-6.716-15-15V0H135c-8.284,0-15,6.716-15,15v135h272v-30H362z"/>
	</g>
</g>
<g>
	<g>
		<path d="M75,90c-24.814,0-45,20.186-45,45v15h15h45V90H75z"/>
	</g>
</g>
<g>
	<g>
		<path d="M437,90h-15v60h45h15v-15C482,110.186,461.814,90,437,90z"/>
	</g>
</g>
<g>
</g>
<g>
</g>
<g>
</g>
<g>
</g>
<g>
</g>
<g>
</g>
<g>
</g>
<g>
</g>
<g>
</g>
<g>
</g>
<g>
</g>
<g>
</g>
<g>
</g>
<g>
</g>
<g>
</g>
</svg>
