<?xml version="1.0" encoding="iso-8859-1"?>
<!-- Generator: Adobe Illustrator 19.0.0, SVG Export Plug-In . SVG Version: 6.00 Build 0)  -->
<svg version="1.1" id="Capa_1" xmlns="http://www.w3.org/2000/svg" xmlns:xlink="http://www.w3.org/1999/xlink" x="0px" y="0px"
	 viewBox="0 0 512 512" style="enable-background:new 0 0 512 512;" xml:space="preserve">
<g>
	<g>
		<path d="M240,14.991V107c0,19.827,30,19.908,30,0V14.991C270-5.21,240-4.784,240,14.991z"/>
	</g>
</g>
<g>
	<g>
		<path d="M90,14.991c0,57.684,0,34.325,0,92.009c0,20.201,30,19.775,30,0c0-57.684,0-34.325,0-92.009C120-5.21,90-4.784,90,14.991z
			"/>
	</g>
</g>
<g>
	<g>
		<path d="M392,14.991V107c0,19.827,30,19.908,30,0V14.991C422-5.21,392-4.784,392,14.991z"/>
	</g>
</g>
<g>
	<g>
		<rect x="180" y="362" width="60" height="60"/>
	</g>
</g>
<g>
	<g>
		<rect x="90" y="362" width="60" height="60"/>
	</g>
</g>
<g>
	<g>
		<rect x="270" y="362" width="62" height="60"/>
	</g>
</g>
<g>
	<g>
		<rect x="90" y="272" width="60" height="60"/>
	</g>
</g>
<g>
	<g>
		<rect x="180" y="272" width="60" height="60"/>
	</g>
</g>
<g>
	<g>
		<path d="M0,212v255c0,24.899,20.099,45,45,45h422c24.901,0,45-20.101,45-45V212H0z M452,437c0,8.291-6.709,15-15,15H75
			c-8.291,0-15-6.709-15-15V257c0-8.291,6.709-15,15-15h362c8.291,0,15,6.709,15,15V437z"/>
	</g>
</g>
<g>
	<g>
		<rect x="362" y="272" width="60" height="60"/>
	</g>
</g>
<g>
	<g>
		<rect x="270" y="272" width="62" height="60"/>
	</g>
</g>
<g>
	<g>
		<rect x="362" y="362" width="60" height="60"/>
	</g>
</g>
<g>
	<g>
		<path d="M467,62h-15v30v15c0,13.257-5.259,25.21-14.81,33.662c-8.203,7.251-18.911,11.235-30.176,11.235
			C381.775,151.897,362,132.181,362,107V92V62h-62v30v15c0,13.257-5.259,25.21-14.81,33.662
			c-8.203,7.251-18.911,11.235-30.176,11.235C229.775,151.897,210,132.181,210,107V92V62h-60v30v15
			c0,13.271-5.288,25.239-14.883,33.706c-8.232,7.28-18.97,11.279-30.234,11.279C79.717,151.985,60,132.225,60,107V92V62H45
			C20.099,62,0,82.1,0,107v75h30h75h150h152h45h60v-75C512,82.1,491.901,62,467,62z"/>
	</g>
</g>
<g>
</g>
<g>
</g>
<g>
</g>
<g>
</g>
<g>
</g>
<g>
</g>
<g>
</g>
<g>
</g>
<g>
</g>
<g>
</g>
<g>
</g>
<g>
</g>
<g>
</g>
<g>
</g>
<g>
</g>
</svg>
