<?xml version="1.0" encoding="iso-8859-1"?>
<!-- Generator: Adobe Illustrator 19.0.0, SVG Export Plug-In . SVG Version: 6.00 Build 0)  -->
<svg version="1.1" id="Capa_1" xmlns="http://www.w3.org/2000/svg" xmlns:xlink="http://www.w3.org/1999/xlink" x="0px" y="0px"
	 viewBox="0 0 512 512" style="enable-background:new 0 0 512 512;" xml:space="preserve">
<g>
	<g>
		<path d="M212,467v-45H0v45c0,24.814,20.186,45,45,45h182.383C217.865,499.426,212,483.948,212,467z"/>
	</g>
</g>
<g>
	<g>
		<path d="M347,0H45C20.186,0,0,20.186,0,45v15h392V45C392,20.186,371.814,0,347,0z"/>
	</g>
</g>
<g>
	<g>
		<path d="M90,150v60h122v-45c0-5.101,0.601-10.201,1.5-15H90z"/>
	</g>
</g>
<g>
	<g>
		<path d="M0,90v302h212V240H75c-8.401,0-15-6.601-15-15v-90c0-8.401,6.599-15,15-15h152c13.801-18.3,35.4-30,60-30H0z M75,270h60
			c19.872,0,19.872,30,0,30H75C55.128,300,55.128,270,75,270z"/>
	</g>
</g>
<g>
	<g>
		<path d="M242,210v212h270V210H242z M377,330h-60c-19.773,0-19.854-30,0-30h60C396.773,300,396.854,330,377,330z M437,270H317
			c-19.773,0-19.854-30,0-30h120C456.773,240,456.854,270,437,270z"/>
	</g>
</g>
<g>
	<g>
		<path d="M242,452v15c0,24.814,20.186,45,45,45h180c24.814,0,45-20.186,45-45v-15H242z"/>
	</g>
</g>
<g>
	<g>
		<path d="M467,120c-63.528,0-116.613,0-180,0c-24.814,0-45,20.186-45,45v15h270v-15C512,140.186,491.814,120,467,120z"/>
	</g>
</g>
<g>
</g>
<g>
</g>
<g>
</g>
<g>
</g>
<g>
</g>
<g>
</g>
<g>
</g>
<g>
</g>
<g>
</g>
<g>
</g>
<g>
</g>
<g>
</g>
<g>
</g>
<g>
</g>
<g>
</g>
</svg>
