<?xml version="1.0" encoding="iso-8859-1"?>
<!-- Generator: Adobe Illustrator 19.0.0, SVG Export Plug-In . SVG Version: 6.00 Build 0)  -->
<svg version="1.1" id="Capa_1" xmlns="http://www.w3.org/2000/svg" xmlns:xlink="http://www.w3.org/1999/xlink" x="0px" y="0px"
	 viewBox="0 0 512.001 512.001" style="enable-background:new 0 0 512.001 512.001;" xml:space="preserve">
<g>
	<g>
		<path d="M287,362.162c-8.291,0-15-6.909-15-15.2V210h-60v30h15c8.291,0,15,6.709,15,15v91.962c0,8.291-6.709,15.2-15,15.2h-15
			v29.8h90v-29.8H287z"/>
	</g>
</g>
<g>
	<g>
		<path d="M257,0C116.39,0,0.029,114.39,0.029,255c0,48.867,13.813,98.041,40.02,139.042l-38.95,97.354
			c-4.843,12.107,7.172,24.407,19.497,19.497l97.354-38.95c41.001,26.206,90.184,40.02,139.051,40.02
			c140.61,0,255-116.351,255-256.962S397.61,0,257,0z M257,60c24.814,0,45,20.186,45,45c0,24.814-20.186,45-45,45
			c-24.814,0-45-20.186-45-45C212,80.186,232.186,60,257,60z M332,406.962c0,8.291-6.709,15.2-15,15.2H197
			c-8.291,0-15-6.909-15-15.2v-60c0-8.291,6.709-15,15-15h15V270h-15c-8.291,0-15-6.709-15-15v-60c0-8.291,6.709-15,15-15h90
			c8.291,0,15,6.709,15,15v136.962h15c8.291,0,15,6.709,15,15V406.962z"/>
	</g>
</g>
<g>
	<g>
		<path d="M257,90c-8.276,0-15,6.724-15,15s6.724,15,15,15c8.276,0,15-6.724,15-15S265.276,90,257,90z"/>
	</g>
</g>
<g>
</g>
<g>
</g>
<g>
</g>
<g>
</g>
<g>
</g>
<g>
</g>
<g>
</g>
<g>
</g>
<g>
</g>
<g>
</g>
<g>
</g>
<g>
</g>
<g>
</g>
<g>
</g>
<g>
</g>
</svg>
