<?xml version="1.0" encoding="iso-8859-1"?>
<!-- Generator: Adobe Illustrator 19.0.0, SVG Export Plug-In . SVG Version: 6.00 Build 0)  -->
<svg version="1.1" id="Capa_1" xmlns="http://www.w3.org/2000/svg" xmlns:xlink="http://www.w3.org/1999/xlink" x="0px" y="0px"
	 viewBox="0 0 512 512" style="enable-background:new 0 0 512 512;" xml:space="preserve">
<g>
	<g>
		<path d="M467,120H287c-24.814,0-45,20.186-45,45v122c0,24.814,20.186,45,45,45h15v45c0,6.064,3.647,11.543,9.258,13.857
			c1.86,0.776,3.809,1.143,5.742,1.143c3.896,0,7.734-1.523,10.605-4.395L383.211,332H467c24.814,0,45-20.186,45-45V165
			C512,140.186,491.814,120,467,120z M377,272h-60c-8.291,0-15-6.709-15-15c0-8.291,6.709-15,15-15h60c8.291,0,15,6.709,15,15
			S385.291,272,377,272z M437,210H317c-8.291,0-15-6.709-15-15s6.709-15,15-15h120c8.291,0,15,6.709,15,15S445.291,210,437,210z"/>
	</g>
</g>
<g>
	<g>
		<path d="M287,0H45C20.186,0,0,20.186,0,45v15h332V45C332,20.186,311.814,0,287,0z"/>
	</g>
</g>
<g>
	<g>
		<path d="M299.7,418.543C282.913,411.614,272,395.296,272,377v-16.509c-34.189-6.973-60-37.266-60-73.491V165
			c0-41.353,33.647-75,75-75H0v317c0,8.291,6.709,15,15,15h302C311.023,422,305.208,420.843,299.7,418.543z"/>
	</g>
</g>
<g>
	<g>
		<path d="M0,452v15c0,24.814,20.186,45,45,45h242c24.814,0,45-20.186,45-45v-15H0z"/>
	</g>
</g>
<g>
</g>
<g>
</g>
<g>
</g>
<g>
</g>
<g>
</g>
<g>
</g>
<g>
</g>
<g>
</g>
<g>
</g>
<g>
</g>
<g>
</g>
<g>
</g>
<g>
</g>
<g>
</g>
<g>
</g>
</svg>
